<svg width="24" height="18" viewBox="0 0 24 18" fill="none" xmlns="http://www.w3.org/2000/svg">
<path d="M3.825 0.581055C1.7025 0.581055 0 2.28355 0 4.40605V5.26856H24V4.40605C24 2.28355 22.2975 0.581055 20.175 0.581055H3.825ZM0 6.13106V17.4186H24V6.13106H0ZM9.1275 7.00106H14.865V9.37856C14.865 10.9686 13.5825 12.2436 11.9925 12.2436C10.4025 12.2436 9.12 10.9611 9.12 9.37856V7.00106H9.1275ZM12 7.70606C11.43 7.70606 10.9725 8.16356 10.9725 8.73355C10.9725 9.13105 11.205 9.49106 11.565 9.66356L11.22 11.2236H12.7725L12.4275 9.66356C12.7875 9.49856 13.02 9.13105 13.02 8.73355C13.02 8.16356 12.5625 7.70606 11.9925 7.70606H12Z" fill="url(#paint0_linear_2328_14756)"/>
<defs>
<linearGradient id="paint0_linear_2328_14756" x1="12" y1="17.4186" x2="12" y2="0.581055" gradientUnits="userSpaceOnUse">
<stop stop-color="#272B38"/>
<stop offset="1" stop-color="#707A9E"/>
</linearGradient>
</defs>
</svg>
