<svg width="15" height="10" viewBox="0 0 15 10" fill="none" xmlns="http://www.w3.org/2000/svg">
<path d="M2.83025 0.189453C1.61739 0.189453 0.644531 1.16231 0.644531 2.37517V2.86802H14.3588V2.37517C14.3588 1.16231 13.386 0.189453 12.1731 0.189453H2.83025ZM0.644531 3.36088V9.81088H14.3588V3.36088H0.644531ZM5.86025 3.85803H9.13882V5.2166C9.13882 6.12517 8.40596 6.85374 7.49739 6.85374C6.58882 6.85374 5.85596 6.12088 5.85596 5.2166V3.85803H5.86025ZM7.50167 4.26088C7.17596 4.26088 6.91453 4.52231 6.91453 4.84802C6.91453 5.07517 7.04739 5.28088 7.2531 5.37945L7.05596 6.27088H7.9431L7.74596 5.37945C7.95167 5.28517 8.08453 5.07517 8.08453 4.84802C8.08453 4.52231 7.8231 4.26088 7.49739 4.26088H7.50167Z" fill="url(#paint0_linear_2328_14671)"/>
<defs>
<linearGradient id="paint0_linear_2328_14671" x1="7.5116" y1="0.189454" x2="7.49175" y2="9.81088" gradientUnits="userSpaceOnUse">
<stop offset="0.105" stop-color="white"/>
<stop offset="0.91" stop-color="#BDC1CE"/>
</linearGradient>
</defs>
</svg>
