<svg width="24" height="25" viewBox="0 0 24 25" fill="none" xmlns="http://www.w3.org/2000/svg">
<g clip-path="url(#clip0_4283_30021)">
<path d="M11.9989 24.3689C5.58891 24.3689 0.378906 19.1489 0.378906 12.7489C0.378906 6.34891 5.58891 1.12891 11.9989 1.12891C18.4089 1.12891 23.6189 6.33891 23.6189 12.7489C23.6189 19.1589 18.4089 24.3689 11.9989 24.3689Z" fill="url(#paint0_linear_4283_30021)"/>
<path d="M12 1.52C18.19 1.52 23.23 6.56 23.23 12.75C23.23 18.94 18.19 23.98 12 23.98C5.81 23.98 0.77 18.94 0.77 12.75C0.77 6.56 5.81 1.52 12 1.52ZM12 0.75C5.37 0.75 0 6.12 0 12.75C0 19.38 5.37 24.75 12 24.75C18.63 24.75 24 19.38 24 12.75C24 6.12 18.63 0.75 12 0.75Z" fill="#272B38"/>
<path d="M9.42875 10.18H7.71875V8.47H9.42875V10.18ZM9.42875 17.04H7.71875V15.33H9.42875V17.04ZM14.5687 8.46H9.42875V6.75H14.5687V8.46ZM14.5687 18.75H9.42875V17.04H14.5687V18.75ZM14.5687 13.61H11.1388V11.9H14.5687V13.61ZM16.2888 11.89H14.5788V8.46H16.2888V11.89ZM16.2888 17.04H14.5788V13.61H16.2888V17.04Z" fill="black"/>
</g>
<defs>
<linearGradient id="paint0_linear_4283_30021" x1="17.8589" y1="22.8989" x2="5.73891" y2="1.89891" gradientUnits="userSpaceOnUse">
<stop offset="0.06" stop-color="#5F3921"/>
<stop offset="0.38" stop-color="#AF9253"/>
<stop offset="0.56" stop-color="#EADABC"/>
<stop offset="0.83" stop-color="#A88360"/>
<stop offset="0.91" stop-color="#966B46"/>
</linearGradient>
<clipPath id="clip0_4283_30021">
<rect width="24" height="24" fill="white" transform="translate(0 0.75)"/>
</clipPath>
</defs>
</svg>
