<svg width="24" height="25" viewBox="0 0 24 25" fill="none" xmlns="http://www.w3.org/2000/svg">
<g clip-path="url(#clip0_4283_29899)">
<path d="M11.9989 24.3689C5.58891 24.3689 0.378906 19.1589 0.378906 12.7489C0.378906 6.33891 5.58891 1.12891 11.9989 1.12891C18.4089 1.12891 23.6189 6.33891 23.6189 12.7489C23.6189 19.1589 18.4089 24.3689 11.9989 24.3689Z" fill="url(#paint0_linear_4283_29899)"/>
<path d="M12 1.52C18.19 1.52 23.23 6.56 23.23 12.75C23.23 18.94 18.19 23.98 12 23.98C5.81 23.98 0.77 18.94 0.77 12.75C0.77 6.56 5.81 1.52 12 1.52ZM12 0.75C5.37 0.75 0 6.12 0 12.75C0 19.38 5.37 24.75 12 24.75C18.63 24.75 24 19.38 24 12.75C24 6.12 18.63 0.75 12 0.75Z" fill="#272B38"/>
<path d="M12.8609 17.04H16.2909V18.75H7.71094V17.04H11.1409V8.46H7.71094V6.75H12.8509V17.04H12.8609Z" fill="#272B38"/>
</g>
<defs>
<linearGradient id="paint0_linear_4283_29899" x1="6.13891" y1="2.59891" x2="18.2589" y2="23.5989" gradientUnits="userSpaceOnUse">
<stop stop-color="#FCCB00"/>
<stop offset="0.5" stop-color="#FFFAD2"/>
<stop offset="0.53" stop-color="#F9EFBF"/>
<stop offset="0.68" stop-color="#E4C979"/>
<stop offset="0.79" stop-color="#D5AD45"/>
<stop offset="0.88" stop-color="#CC9C25"/>
<stop offset="0.93" stop-color="#C9961A"/>
</linearGradient>
<clipPath id="clip0_4283_29899">
<rect width="24" height="24" fill="white" transform="translate(0 0.75)"/>
</clipPath>
</defs>
</svg>
