<svg width="42" height="43" viewBox="0 0 42 43" fill="none" xmlns="http://www.w3.org/2000/svg">
<circle cx="21" cy="21.25" r="21" fill="#F5F6F9"/>
<path d="M21.7333 21.9838V20.5172H23.2V19.0505H21.7333V16.1172H20.2666V20.5172H14.4V21.9838H20.2666V27.8505H18.8V29.3172H17.3333V30.7838H24.6666V29.3172H23.2V27.8505H21.7333V23.4505H27.6V21.9838H21.7333Z" fill="#5D647B"/>
<path d="M29.0667 20.5173H27.6L27.6 21.9838L29.0667 21.9839V20.5173Z" fill="#5D647B"/>
<path d="M30.5333 19.0501H29.0667V20.5168H30.5333V19.0501Z" fill="#5D647B"/>
<path d="M14.4 19.0501H12.9333V20.5168L14.4 20.5172L14.4 19.0501Z" fill="#5D647B"/>
<path d="M24.6667 17.5835H23.2L23.2 19.0505L24.6667 19.0501V17.5835Z" fill="#5D647B"/>
<path d="M12.9333 17.5835H11.4667V19.0501H12.9333V17.5835Z" fill="#5D647B"/>
<path d="M26.1333 16.1172H24.6667V17.5835L26.1333 17.5838V16.1172Z" fill="#5D647B"/>
<path d="M26.1333 14.6501V16.1172L30.5333 16.1168V19.0501H32V14.6501H26.1333Z" fill="#5D647B"/>
<path d="M20.2667 14.6501H18.8V16.1168L20.2666 16.1172L20.2667 14.6501Z" fill="#5D647B"/>
<path d="M11.4667 13.1835H17.3333V11.7168H10V17.5835L11.4667 17.5835V13.1835Z" fill="#5D647B"/>
<path d="M18.8 13.1839H17.3333V14.6506H18.8V13.1839Z" fill="#5D647B"/>
</svg>
