<svg width="42" height="43" viewBox="0 0 42 43" fill="none" xmlns="http://www.w3.org/2000/svg">
<g clip-path="url(#clip0_2955_23047)">
<path d="M21 42.25C32.598 42.25 42 32.848 42 21.25C42 9.65202 32.598 0.25 21 0.25C9.40202 0.25 0 9.65202 0 21.25C0 32.848 9.40202 42.25 21 42.25Z" fill="#EAEBF0"/>
<path d="M7 32.841C10.6925 31.3535 15.6042 30.4493 21 30.4493C26.3958 30.4493 31.3075 31.3535 35 32.841M24.9958 13.381V30.4668M14.1108 25.4268V30.9568M24.9958 16.601L27.3642 13.7368M24.9958 18.5493L22.4933 16.1168M19.495 11.5318C15.4 14.2327 16.7242 22.4927 24.9958 19.7743C25.7717 20.7252 27.93 21.9268 30.0708 20.9993C32.5267 19.9377 31.9958 16.8227 31.9958 16.8227C31.9958 16.8227 34.1658 14.536 32.8883 11.8818C31.1908 8.35849 27.4108 9.40266 27.4108 9.40266C27.4108 9.40266 25.7775 7.29683 23.0417 7.83933C19.3958 8.56266 19.495 11.5318 19.495 11.5318ZM14 25.5027C14 25.5027 11.9233 26.3952 10.0508 24.546C8.435 22.9535 8.6975 20.9293 8.6975 20.9293C8.6975 20.9293 10.9667 20.7427 12.495 21.921C14.2567 23.2802 14 25.5085 14 25.5085V25.5027ZM14.2158 26.4593C14.2158 26.4593 15.8842 28.116 18.4042 27.066C20.58 26.156 21.0992 24.1027 21.0992 24.1027C21.0992 24.1027 18.9758 23.0468 17.045 23.5893C14.8225 24.2193 14.21 26.4593 14.21 26.4593H14.2158Z" stroke="url(#paint0_linear_2955_23047)" stroke-width="1.2" stroke-miterlimit="10"/>
</g>
<defs>
<linearGradient id="paint0_linear_2955_23047" x1="21" y1="7.75" x2="21" y2="32.841" gradientUnits="userSpaceOnUse">
<stop offset="0.11" stop-color="#6B738E"/>
<stop offset="1" stop-color="#272B38"/>
</linearGradient>
<clipPath id="clip0_2955_23047">
<rect width="42" height="42" fill="white" transform="translate(0 0.25)"/>
</clipPath>
</defs>
</svg>
