<svg width="42" height="43" viewBox="0 0 42 43" fill="none" xmlns="http://www.w3.org/2000/svg">
<circle cx="21" cy="21.25" r="21" fill="#F5F6F9"/>
<path d="M16.4 20.04C14.53 20.04 13 18.52 13 16.64C13 14.76 14.52 13.25 16.4 13.25C18.28 13.25 19.8 14.77 19.8 16.65C19.8 18.53 18.28 20.05 16.4 20.05V20.04ZM16.4 14.58C15.26 14.58 14.34 15.51 14.34 16.64C14.34 17.77 15.27 18.7 16.4 18.7C17.53 18.7 18.46 17.77 18.46 16.64C18.46 15.51 17.53 14.58 16.4 14.58Z" fill="#5D647B"/>
<path d="M25.6 29.25C23.73 29.25 22.2 27.73 22.2 25.85C22.2 23.97 23.72 22.45 25.6 22.45C27.48 22.45 29 23.97 29 25.85C29 27.73 27.48 29.25 25.6 29.25ZM25.6 23.79C24.46 23.79 23.54 24.72 23.54 25.85C23.54 26.98 24.47 27.91 25.6 27.91C26.73 27.91 27.66 26.98 27.66 25.85C27.66 24.72 26.73 23.79 25.6 23.79Z" fill="#5D647B"/>
<path d="M14.13 28.79C13.96 28.79 13.79 28.72 13.66 28.59C13.4 28.33 13.4 27.91 13.66 27.65L27.4 13.9C27.66 13.64 28.08 13.64 28.34 13.9C28.6 14.16 28.6 14.58 28.34 14.84L14.6 28.59C14.47 28.72 14.3 28.79 14.13 28.79Z" fill="#5D647B"/>
</svg>
