<svg width="20" height="20" viewBox="0 0 20 20" fill="none" xmlns="http://www.w3.org/2000/svg">
<path d="M17.9 11.1445C17.686 10.9797 17.4368 10.8666 17.1718 10.814C16.9069 10.7614 16.6334 10.7708 16.3727 10.8414L12.8383 11.6539C12.9541 11.3465 12.9937 11.0156 12.9536 10.6896C12.9135 10.3635 12.7949 10.052 12.608 9.78189C12.4212 9.51173 12.1715 9.29092 11.8806 9.13841C11.5896 8.98591 11.266 8.90624 10.9375 8.90625H7.02656C6.71866 8.90537 6.41365 8.96562 6.12921 9.0835C5.84477 9.20138 5.58655 9.37455 5.36953 9.59297L3.55625 11.4063H1.25C0.959919 11.4063 0.68172 11.5215 0.476602 11.7266C0.271484 11.9317 0.15625 12.2099 0.15625 12.5V15.625C0.15625 15.9151 0.271484 16.1933 0.476602 16.3984C0.68172 16.6035 0.959919 16.7188 1.25 16.7188H9.375C9.41345 16.7188 9.45176 16.714 9.48906 16.7047L14.4891 15.4547C14.5127 15.4484 14.536 15.4406 14.5586 15.4313L17.5914 14.1406L17.6172 14.1289C17.8853 13.995 18.115 13.795 18.2845 13.5478C18.454 13.3006 18.5578 13.0144 18.5861 12.716C18.6144 12.4176 18.5662 12.1169 18.4462 11.8422C18.3262 11.5676 18.1382 11.328 17.9 11.1461V11.1445ZM1.09375 15.625V12.5C1.09375 12.4586 1.11021 12.4188 1.13951 12.3895C1.16882 12.3602 1.20856 12.3438 1.25 12.3438H3.28125V15.7813H1.25C1.20856 15.7813 1.16882 15.7648 1.13951 15.7355C1.11021 15.7062 1.09375 15.6664 1.09375 15.625ZM17.2094 13.2813L14.225 14.5523L9.31719 15.7813H4.21875V12.0695L6.03203 10.2555C6.16234 10.1245 6.31733 10.0206 6.48805 9.94997C6.65876 9.8793 6.8418 9.84319 7.02656 9.84375H10.9375C11.2276 9.84375 11.5058 9.95899 11.7109 10.1641C11.916 10.3692 12.0312 10.6474 12.0312 10.9375C12.0312 11.2276 11.916 11.5058 11.7109 11.7109C11.5058 11.916 11.2276 12.0313 10.9375 12.0313H8.75C8.62568 12.0313 8.50645 12.0806 8.41854 12.1685C8.33064 12.2565 8.28125 12.3757 8.28125 12.5C8.28125 12.6243 8.33064 12.7436 8.41854 12.8315C8.50645 12.9194 8.62568 12.9688 8.75 12.9688H11.25C11.2852 12.9688 11.3203 12.9649 11.3547 12.957L16.5891 11.7531L16.6078 11.7484C16.8048 11.6947 17.0147 11.7157 17.1972 11.8073C17.3797 11.899 17.5219 12.0548 17.5965 12.2449C17.6711 12.435 17.6729 12.6459 17.6014 12.8372C17.5299 13.0285 17.3903 13.1866 17.2094 13.2813ZM12.8125 7.34375C13.0037 7.34367 13.1944 7.32324 13.3812 7.28281C13.5218 7.78207 13.8055 8.22925 14.1973 8.56916C14.5891 8.90908 15.0718 9.12686 15.5859 9.19563C16.1 9.2644 16.6229 9.18116 17.0903 8.95617C17.5576 8.73118 17.9489 8.37429 18.2157 7.92954C18.4826 7.48479 18.6134 6.97164 18.5921 6.4534C18.5707 5.93517 18.3981 5.43453 18.0955 5.01326C17.7929 4.59198 17.3736 4.26852 16.8893 4.08276C16.4051 3.89701 15.877 3.85711 15.3703 3.96797C15.2364 3.49212 14.9724 3.06308 14.6079 2.72911C14.2435 2.39515 13.793 2.16951 13.3073 2.07758C12.8216 1.98566 12.3199 2.03109 11.8586 2.20877C11.3973 2.38646 10.9948 2.68934 10.6962 3.08334C10.3977 3.47735 10.215 3.94684 10.1688 4.439C10.1225 4.93117 10.2145 5.42647 10.4344 5.86919C10.6544 6.31191 10.9935 6.68448 11.4136 6.94498C11.8337 7.20549 12.3182 7.34359 12.8125 7.34375ZM17.6562 6.5625C17.6562 6.90244 17.5554 7.23474 17.3666 7.51739C17.1777 7.80003 16.9093 8.02033 16.5952 8.15042C16.2812 8.28051 15.9356 8.31454 15.6022 8.24823C15.2688 8.18191 14.9625 8.01821 14.7222 7.77784C14.4818 7.53747 14.3181 7.23122 14.2518 6.89781C14.1855 6.56441 14.2195 6.21882 14.3496 5.90476C14.4797 5.5907 14.7 5.32227 14.9826 5.13341C15.2653 4.94455 15.5976 4.84375 15.9375 4.84375C16.3933 4.84375 16.8305 5.02483 17.1528 5.34716C17.4752 5.66949 17.6562 6.10666 17.6562 6.5625ZM12.8125 2.96875C13.2071 2.96828 13.5897 3.10397 13.8959 3.3529C14.202 3.60184 14.4129 3.94877 14.493 4.33516C14.1532 4.55548 13.8683 4.85058 13.66 5.1979C13.4518 5.54521 13.3257 5.93555 13.2914 6.33906C13.0551 6.40714 12.807 6.42373 12.5638 6.38771C12.3205 6.35169 12.0879 6.2639 11.8815 6.13027C11.6751 5.99664 11.4997 5.82028 11.3673 5.6131C11.2349 5.40592 11.1485 5.17273 11.1139 4.9293C11.0793 4.68586 11.0974 4.43783 11.1668 4.20196C11.2363 3.9661 11.3555 3.74788 11.5165 3.56204C11.6775 3.3762 11.8766 3.22708 12.1001 3.12473C12.3237 3.02238 12.5666 2.96919 12.8125 2.96875Z" fill="#272B38"/>
</svg>
