<svg width="26" height="26" viewBox="0 0 26 26" fill="none" xmlns="http://www.w3.org/2000/svg">
<path d="M23.27 14.4879C22.9918 14.2736 22.6678 14.1266 22.3234 14.0582C21.979 13.9898 21.6234 14.002 21.2845 14.0938L16.6898 15.1501C16.8404 14.7505 16.8918 14.3203 16.8397 13.8964C16.7876 13.4726 16.6334 13.0677 16.3905 12.7165C16.1475 12.3652 15.823 12.0782 15.4447 11.8799C15.0665 11.6817 14.6458 11.5781 14.2188 11.5781H9.13453C8.73426 11.577 8.33775 11.6553 7.96797 11.8086C7.59819 11.9618 7.26252 12.1869 6.98039 12.4709L4.62313 14.8281H1.625C1.2479 14.8281 0.886236 14.9779 0.619583 15.2446C0.352929 15.5112 0.203125 15.8729 0.203125 16.25V20.3125C0.203125 20.6896 0.352929 21.0513 0.619583 21.3179C0.886236 21.5846 1.2479 21.7344 1.625 21.7344H12.1875C12.2375 21.7344 12.2873 21.7282 12.3358 21.7161L18.8358 20.0911C18.8666 20.083 18.8968 20.0728 18.9262 20.0606L22.8688 18.3828L22.9023 18.3676C23.2509 18.1935 23.5495 17.9335 23.7698 17.6122C23.9902 17.2908 24.1251 16.9187 24.1619 16.5307C24.1987 16.1428 24.1361 15.7519 23.9801 15.3949C23.824 15.0379 23.5797 14.7264 23.27 14.4899V14.4879ZM1.42188 20.3125V16.25C1.42188 16.1961 1.44328 16.1445 1.48137 16.1064C1.51946 16.0683 1.57113 16.0469 1.625 16.0469H4.26562V20.5156H1.625C1.57113 20.5156 1.51946 20.4942 1.48137 20.4561C1.44328 20.418 1.42188 20.3664 1.42188 20.3125ZM22.3722 17.2656L18.4925 18.918L12.1123 20.5156H5.48438V15.6904L7.84164 13.3321C8.01104 13.1618 8.21253 13.0268 8.43446 12.935C8.65639 12.8431 8.89434 12.7962 9.13453 12.7969H14.2188C14.5959 12.7969 14.9575 12.9467 15.2242 13.2133C15.4908 13.48 15.6406 13.8416 15.6406 14.2188C15.6406 14.5959 15.4908 14.9575 15.2242 15.2242C14.9575 15.4908 14.5959 15.6406 14.2188 15.6406H11.375C11.2134 15.6406 11.0584 15.7048 10.9441 15.8191C10.8298 15.9334 10.7656 16.0884 10.7656 16.25C10.7656 16.4116 10.8298 16.5666 10.9441 16.6809C11.0584 16.7952 11.2134 16.8594 11.375 16.8594H14.625C14.6708 16.8594 14.7164 16.8543 14.7611 16.8441L21.5658 15.2791L21.5902 15.273C21.8463 15.2031 22.1192 15.2304 22.3564 15.3495C22.5936 15.4686 22.7785 15.6712 22.8755 15.9183C22.9724 16.1654 22.9747 16.4397 22.8818 16.6883C22.7889 16.937 22.6074 17.1426 22.3722 17.2656ZM16.6562 9.54688C16.9048 9.54677 17.1527 9.52021 17.3956 9.46766C17.5784 10.1167 17.9472 10.698 18.4565 11.1399C18.9658 11.5818 19.5933 11.8649 20.2616 11.9543C20.9299 12.0437 21.6098 11.9355 22.2174 11.643C22.8249 11.3505 23.3335 10.8866 23.6805 10.3084C24.0274 9.73023 24.1975 9.06313 24.1697 8.38942C24.1419 7.71572 23.9175 7.06488 23.5241 6.51723C23.1308 5.96958 22.5857 5.54907 21.9561 5.30759C21.3266 5.06612 20.6401 5.01424 19.9814 5.15836C19.8073 4.53976 19.4641 3.982 18.9903 3.54785C18.5165 3.11369 17.931 2.82036 17.2995 2.70086C16.6681 2.58135 16.0159 2.64042 15.4162 2.87141C14.8165 3.1024 14.2932 3.49614 13.9051 4.00835C13.517 4.52055 13.2795 5.13089 13.2194 5.7707C13.1593 6.41052 13.2789 7.05441 13.5648 7.62995C13.8507 8.20548 14.2915 8.68982 14.8376 9.02848C15.3838 9.36713 16.0136 9.54666 16.6562 9.54688ZM22.9531 8.53125C22.9531 8.97317 22.8221 9.40516 22.5766 9.7726C22.331 10.14 21.9821 10.4264 21.5738 10.5955C21.1655 10.7647 20.7163 10.8089 20.2828 10.7227C19.8494 10.6365 19.4513 10.4237 19.1388 10.1112C18.8263 9.79871 18.6135 9.40058 18.5273 8.96715C18.4411 8.53373 18.4853 8.08447 18.6545 7.67619C18.8236 7.26791 19.11 6.91895 19.4774 6.67344C19.8448 6.42792 20.2768 6.29688 20.7188 6.29688C21.3113 6.29688 21.8797 6.53228 22.2987 6.95131C22.7177 7.37034 22.9531 7.93866 22.9531 8.53125ZM16.6562 3.85938C17.1692 3.85877 17.6667 4.03516 18.0647 4.35877C18.4627 4.68239 18.7368 5.13341 18.8409 5.6357C18.3991 5.92213 18.0288 6.30576 17.758 6.75727C17.4873 7.20878 17.3234 7.71621 17.2788 8.24078C16.9717 8.32928 16.6491 8.35084 16.3329 8.30402C16.0167 8.25719 15.7142 8.14307 15.4459 7.96935C15.1776 7.79563 14.9497 7.56636 14.7775 7.29703C14.6054 7.02769 14.493 6.72455 14.4481 6.40808C14.4031 6.09162 14.4266 5.76918 14.5169 5.46255C14.6072 5.15592 14.7622 4.87224 14.9715 4.63065C15.1808 4.38906 15.4395 4.1952 15.7302 4.06214C16.0208 3.92909 16.3366 3.85994 16.6562 3.85938Z" fill="#0F80F0"/>
</svg>
