<svg width="42" height="43" viewBox="0 0 42 43" fill="none" xmlns="http://www.w3.org/2000/svg">
<circle cx="21" cy="21.25" r="21" fill="#F5F6F9"/>
<path d="M30.9439 27.86C30.7539 27.29 30.1039 26.79 28.8539 27.09L25.1139 28C24.9339 27.85 24.7139 27.73 24.4539 27.65L19.5839 26.22C18.6239 25.94 17.7339 25.91 16.7639 26.13L15.7939 26.35V26.2C15.7939 25.69 15.3739 25.27 14.8639 25.27H11.9439C11.4239 25.27 11.0039 25.69 11.0039 26.2V31.8C11.0039 32.31 11.4239 32.73 11.9439 32.73H14.8639C15.3739 32.73 15.7939 32.31 15.7939 31.8V31.7L19.6239 32.81C20.1539 32.96 20.6939 33.04 21.2039 33.04C21.9439 33.04 22.6639 32.89 23.4039 32.57L29.9239 29.74C30.7339 29.39 31.1739 28.56 30.9339 27.84L30.9439 27.86ZM19.2739 27.28L24.1439 28.71C24.2839 28.75 24.4039 28.82 24.4439 28.88L24.4639 28.91C24.4639 28.91 24.4939 29 24.4839 29.05C24.4439 29.21 24.2339 29.34 23.8839 29.26L18.9739 28.19C18.8339 28.16 18.6839 28.19 18.5639 28.26C18.4439 28.34 18.3539 28.46 18.3239 28.61C18.2939 28.75 18.3239 28.9 18.3939 29.02C18.4739 29.14 18.5939 29.23 18.7439 29.26L23.6639 30.33C23.8139 30.36 23.9539 30.38 24.0939 30.38C24.9239 30.38 25.4239 29.85 25.5639 29.32C25.5939 29.22 25.6039 29.12 25.6039 29.02L29.1339 28.16C29.5939 28.05 29.8839 28.11 29.9139 28.22C29.9539 28.35 29.8239 28.62 29.5039 28.76L22.9839 31.59C21.9839 32.02 20.9939 32.09 19.9439 31.78L15.8039 30.58V27.5L17.0139 27.22C17.8039 27.04 18.5039 27.06 19.2839 27.29L19.2739 27.28ZM14.6939 31.65H12.1039V26.38H14.6939V31.65Z" fill="#5D647B"/>
<path d="M22.8439 24.89C26.7839 24.89 29.6539 22.25 29.6539 18.61C29.6539 15.61 27.4339 13.16 25.2139 11.73C25.3939 11.61 25.5039 11.4 25.4439 11.17C25.3839 10.91 25.1339 10.74 24.8739 10.77L25.9539 7.75H19.7239L20.8139 10.77C20.5539 10.73 20.2939 10.9 20.2339 11.17C20.1839 11.39 20.2839 11.61 20.4739 11.73C18.1339 13.24 16.0339 15.77 16.0339 18.61C16.0339 22.25 18.8939 24.89 22.8439 24.89ZM24.4739 8.81L23.7039 10.96C23.1339 11.02 22.5639 11.02 21.9939 10.96L21.2139 8.81H24.4739ZM21.9239 12.1L22.0839 12.02C22.3339 12.04 22.5939 12.05 22.8439 12.05C23.0939 12.05 23.3539 12.04 23.6139 12.02L23.7739 12.1C26.0039 13.25 28.6039 15.65 28.6039 18.61C28.6039 21.57 26.1839 23.85 22.8439 23.85C19.5039 23.85 17.0839 21.65 17.0839 18.61C17.0839 15.83 19.5139 13.34 21.9239 12.1Z" fill="#5D647B"/>
<path d="M18.7339 19.23C18.7339 19.49 18.9439 19.7 19.2039 19.7H20.1339C20.6939 20.96 21.9639 21.85 23.4339 21.85C24.1639 21.85 24.8639 21.63 25.4639 21.23C25.6839 21.08 25.7339 20.79 25.5939 20.58C25.4439 20.36 25.1539 20.31 24.9439 20.45C24.5039 20.75 23.9839 20.91 23.4439 20.91C22.5139 20.91 21.6939 20.43 21.2139 19.71H23.2039C23.4639 19.71 23.6739 19.5 23.6739 19.24C23.6739 18.98 23.4639 18.77 23.2039 18.77H20.8239C20.7939 18.6 20.7739 18.43 20.7739 18.25C20.7739 18.22 20.7739 18.2 20.7739 18.18H23.2039C23.4639 18.18 23.6739 17.97 23.6739 17.71C23.6739 17.45 23.4639 17.24 23.2039 17.24H20.9739C21.3739 16.27 22.3239 15.59 23.4439 15.59C23.9839 15.59 24.4939 15.75 24.9439 16.05C25.1639 16.2 25.4539 16.14 25.5939 15.93C25.7439 15.71 25.6839 15.42 25.4739 15.28C24.8739 14.87 24.1739 14.66 23.4439 14.66C21.8039 14.66 20.4239 15.76 19.9839 17.26H19.2139C18.9539 17.26 18.7439 17.47 18.7439 17.73C18.7439 17.99 18.9539 18.2 19.2139 18.2H19.8339C19.8339 18.2 19.8339 18.25 19.8339 18.27C19.8339 18.45 19.8539 18.62 19.8739 18.79H19.2139C18.9539 18.79 18.7439 19 18.7439 19.26L18.7339 19.23Z" fill="#5D647B"/>
</svg>
