<svg width="24" height="20" viewBox="0 0 24 20" fill="none" xmlns="http://www.w3.org/2000/svg">
<path fill-rule="evenodd" clip-rule="evenodd" d="M3.61816 5.09774C3.61816 2.41861 5.65547 0.201172 8.28014 0.201172C10.9048 0.201172 12.9421 2.41861 12.9421 5.09774C12.9421 7.85435 10.6075 9.76158 8.28014 9.76158C5.68079 9.76158 3.61816 7.57045 3.61816 5.09774ZM8.28014 1.60117C6.50345 1.60117 5.01816 3.11485 5.01816 5.09774C5.01816 6.82161 6.47813 8.36158 8.28014 8.36158C9.91472 8.36158 11.5421 7.00316 11.5421 5.09774C11.5421 3.11485 10.0568 1.60117 8.28014 1.60117ZM0.730469 17.7623C0.730469 13.8187 4.15967 10.7153 8.28015 10.7153C12.4337 10.7153 15.6289 13.8424 15.8289 17.7263L15.8298 17.7443V17.7623C15.8298 18.9124 14.8834 19.589 13.8167 19.7873L13.7533 19.7991H13.6888H2.87339C1.74287 19.7991 0.978418 18.9848 0.746253 17.9101L0.730469 17.8371V17.7623ZM2.13105 17.6842C2.26895 18.2265 2.57169 18.3991 2.87339 18.3991H13.6206C14.2865 18.2598 14.4231 17.9595 14.4296 17.7763C14.2575 14.6549 11.6888 12.1153 8.28015 12.1153C4.85969 12.1153 2.17635 14.647 2.13105 17.6842ZM20.2035 4.85002C20.2035 4.46342 19.8901 4.15002 19.5035 4.15002C19.1169 4.15002 18.8035 4.46342 18.8035 4.85002V7.2144H16.4391C16.0525 7.2144 15.7391 7.5278 15.7391 7.91439C15.7391 8.30099 16.0525 8.6144 16.4391 8.6144H18.8035V10.9788C18.8035 11.3654 19.1169 11.6788 19.5035 11.6788C19.8901 11.6788 20.2035 11.3654 20.2035 10.9788V8.6144H22.5663C22.9529 8.6144 23.2663 8.30099 23.2663 7.91439C23.2663 7.5278 22.9529 7.2144 22.5663 7.2144H20.2035V4.85002Z" fill="#0F80F0"/>
</svg>
