<svg width="25" height="24" viewBox="0 0 25 24" fill="none" xmlns="http://www.w3.org/2000/svg">
<path d="M17.832 6H7.83203C6.72936 6 5.83203 6.89733 5.83203 8V16C5.83203 17.1027 6.72936 18 7.83203 18H17.832C18.5674 18 19.1654 17.402 19.1654 16.6667V7.33333C19.1654 6.598 18.5674 6 17.832 6ZM7.83203 16.6667C7.46403 16.6667 7.16536 16.3673 7.16536 16V8C7.16536 7.63267 7.46403 7.33333 7.83203 7.33333H17.832V9.33333H13.832C13.0967 9.33333 12.4987 9.93133 12.4987 10.6667V13.3333C12.4987 14.0687 13.0967 14.6667 13.832 14.6667H17.8327V16.6667H7.83203ZM17.832 10.6667V13.3333H13.832V10.6667H17.832Z" fill="#272B38"/>
</svg>
