<svg width="24" height="24" xmlns="http://www.w3.org/2000/svg" fill-rule="evenodd" clip-rule="evenodd">
  <path
    d="M24 15.951c0-2.468-1.744-4.451-4.114-5.353.069-.395.114-.793.114-1.195 0-4.88-4.751-8.403-10-8.403-5.282 0-10 3.549-10 8.403 0 1.721.616 3.411 1.706 4.724.045 1.536-.852 3.741-1.661 5.346 2.168-.394 5.251-1.265 6.648-2.13 1.18.289 2.313.424 3.383.424l.273-.013c.866 2.251 3.314 4.052 6.6 4.052.748 0 1.54-.094 2.366-.297.978.604 3.137 1.215 4.654 1.491-.566-1.124-1.194-2.667-1.162-3.742.763-.919 1.193-2.101 1.193-3.307zm-3.148 4.084c-.396-.168-.421-.2-1.201-.682-1.011.247-1.683.438-2.702.438-2.179 0-3.76-1.016-4.492-2.265 3.247-.654 5.686-2.607 6.827-5.01 1.61.644 2.716 1.941 2.716 3.435 0 .542-.015 1.158-1.171 2.548-.023.763-.043 1.005.023 1.536zm-14.496-4.849c-.805.5-1.169.794-3.004 1.384.436-1.599.356-2.382.332-3.201-.318-.384-1.684-1.71-1.684-3.966 0-3.522 3.589-6.388 8-6.388 4.412 0 8 2.866 8 6.388 0 3.053-3.029 6.348-7.924 6.348-1.649 0-2.904-.364-3.72-.565zm6.643-3.537c-.212.071-.441-.044-.511-.256 0 0-1.496-.501-3.272.088l1.166 1.814c.121.179.037.422-.164.49l-.794.263-.167.028c-.149 0-.294-.064-.396-.179l-1.604-1.77c-.873.276-1.862-.042-2.192-.865-.076-.188-.114-.389-.114-.592 0-.585.327-1.183 1.038-1.533 3.559-1.747 4.128-3.696 4.128-3.696-.086-.262.11-.532.382-.532.169 0 .327.108.383.277l2.371 5.952c.071.212-.044.441-.254.511zm1.687-2.043l-.614-.261c.267-.634.293-1.371.014-2.058-.279-.688-.808-1.199-1.441-1.466l.26-.615c1.265.535 2.046 1.771 2.046 3.091 0 .454-.092.898-.265 1.309zm-1.063-.451l-.599-.254c.154-.365.169-.789.008-1.185-.16-.396-.466-.69-.83-.843l.253-.601c.518.219.952.635 1.179 1.198.229.564.207 1.165-.011 1.685z" />
</svg>