<svg width="256" height="48" viewBox="0 0 256 48" fill="none" xmlns="http://www.w3.org/2000/svg">
<g clip-path="url(#clip0_216_14819)">
<path fill-rule="evenodd" clip-rule="evenodd" d="M137.801 8.76709H132.406H132.391V35.9677H137.786V27.1106H137.861L143.765 35.9677H150.569L143.451 26.3613L150.389 18.4784H143.765L137.801 25.3872V8.76709ZM58.4476 10.4904H75.5323V15.6757H64.0526V20.8611H74.663V26.0464H64.0526V35.9825H58.4326V10.4904H58.4476ZM77.8244 18.4783H83.2195V21.2808H83.2945C83.864 20.2017 84.5533 19.3925 85.3476 18.8529C86.1419 18.3134 87.131 18.0437 88.3299 18.0437C88.6447 18.0437 88.9594 18.0437 89.2591 18.0736C89.5738 18.1036 89.8586 18.1486 90.1283 18.2235V23.1541C89.7387 23.0342 89.364 22.9443 88.9893 22.8843C88.6147 22.8244 88.225 22.7944 87.8204 22.7944C86.7863 22.7944 85.9771 22.9443 85.3776 23.229C84.7781 23.5138 84.3135 23.9184 83.9988 24.4279C83.6691 24.9375 83.4593 25.5669 83.3694 26.2863C83.2795 27.0056 83.2195 27.7999 83.2195 28.6541V35.9526H77.8244V18.4783ZM103.018 33.7796H103.093V33.8095V35.9976H108.054V27.1106C108.054 25.6419 107.934 24.353 107.694 23.244C107.454 22.135 107.035 21.1909 106.42 20.4266C105.806 19.6623 104.996 19.0778 103.977 18.6881C102.943 18.2835 101.654 18.0887 100.066 18.0887C98.6121 18.0887 97.2333 18.3285 95.8846 18.793C94.5508 19.2576 93.3668 19.962 92.3627 20.8912L95.2401 23.8435C95.8246 23.1991 96.469 22.6895 97.2034 22.3149C97.9377 21.9402 98.747 21.7604 99.6312 21.7604C100.56 21.7604 101.37 22.0301 102.059 22.5996C102.733 23.1541 103.078 23.9184 103.078 24.8776C102.329 24.8776 101.519 24.8776 100.65 24.9075C99.7811 24.9225 98.8969 24.9975 98.0276 25.1174C97.1584 25.2372 96.3042 25.4171 95.4949 25.6719C94.6856 25.9266 93.9513 26.2863 93.3219 26.7359C92.6774 27.1855 92.1829 27.77 91.8082 28.4594C91.4336 29.1487 91.2537 30.003 91.2537 31.0071C91.2537 31.8913 91.4336 32.6706 91.7633 33.345C92.093 34.0194 92.5575 34.5888 93.127 35.0384C93.6965 35.488 94.3709 35.8327 95.1202 36.0575C95.8696 36.2823 96.6639 36.4022 97.4731 36.4022C98.5821 36.4022 99.6162 36.1924 100.62 35.7878C101.624 35.3831 102.419 34.7087 103.018 33.7796ZM100.231 28.3694C100.845 28.3245 101.355 28.3095 101.759 28.3095H103.078V29.4635C103.078 30.018 102.958 30.4975 102.733 30.9022C102.509 31.3068 102.209 31.6365 101.819 31.9063C101.43 32.176 100.995 32.3708 100.5 32.5207C100.006 32.6556 99.4963 32.7305 98.9718 32.7305C98.3723 32.7305 97.8028 32.5807 97.2483 32.2659C96.6938 31.9512 96.4241 31.4716 96.4241 30.8272C96.4241 30.2278 96.6339 29.7482 97.0235 29.4185C97.4132 29.0888 97.8927 28.834 98.4622 28.6692C99.0317 28.5043 99.6162 28.4144 100.231 28.3694ZM111.708 18.4783H116.893V20.8461H116.968C117.133 20.5164 117.373 20.1718 117.688 19.8421C118.002 19.5123 118.377 19.2126 118.797 18.9429C119.231 18.6731 119.726 18.4633 120.265 18.2984C120.82 18.1336 121.419 18.0437 122.064 18.0437C123.427 18.0437 124.536 18.2535 125.376 18.6731C126.215 19.0927 126.874 19.6772 127.339 20.4115C127.804 21.1459 128.118 22.0301 128.298 23.0342C128.463 24.0383 128.553 25.1323 128.553 26.3012V35.9376H123.158V27.3803C123.158 26.8707 123.143 26.3612 123.098 25.8217C123.068 25.2822 122.948 24.7876 122.768 24.323C122.588 23.8734 122.318 23.4988 121.944 23.214C121.569 22.9293 121.045 22.7794 120.34 22.7794C119.636 22.7794 119.081 22.8993 118.647 23.1541C118.212 23.4088 117.882 23.7386 117.658 24.1582C117.433 24.5778 117.283 25.0574 117.208 25.5819C117.133 26.1064 117.103 26.6609 117.103 27.2304V35.9376H111.708V18.4783ZM167.924 32.9403C167.055 34.0493 165.976 34.8885 164.657 35.488C163.339 36.0875 161.975 36.3872 160.551 36.3872C159.127 36.3872 157.943 36.1774 156.76 35.7428C155.576 35.3082 154.541 34.6937 153.657 33.8844C152.773 33.0752 152.099 32.116 151.589 30.992C151.08 29.868 150.84 28.6092 150.84 27.2154C150.84 25.8217 151.095 24.5628 151.589 23.4388C152.099 22.3148 152.788 21.3407 153.657 20.5464C154.527 19.7371 155.561 19.1227 156.76 18.6881C157.943 18.2535 159.217 18.0437 160.551 18.0437C161.795 18.0437 162.934 18.2535 163.953 18.6881C164.972 19.1227 165.841 19.7371 166.546 20.5464C167.25 21.3557 167.805 22.3148 168.179 23.4388C168.569 24.5628 168.749 25.8217 168.749 27.2154V28.9089H156.22C156.43 29.943 156.909 30.7672 157.629 31.3667C158.348 31.9811 159.232 32.2809 160.296 32.2809C161.181 32.2809 161.93 32.0861 162.544 31.6814C163.159 31.2918 163.683 30.7822 164.148 30.1528L167.924 32.9253V32.9403ZM163.354 25.2522C163.384 24.338 163.084 23.5587 162.454 22.9143C161.825 22.2699 161.031 21.9402 160.042 21.9402C159.442 21.9402 158.918 22.0301 158.453 22.2249C158.003 22.4197 157.614 22.6595 157.284 22.9593C156.954 23.259 156.715 23.6037 156.535 24.0083C156.355 24.398 156.25 24.8176 156.235 25.2522H163.354ZM176.886 18.4783H171.701V35.9376H177.096V27.2304C177.096 26.6609 177.126 26.1064 177.201 25.5819C177.276 25.0574 177.426 24.5778 177.651 24.1582C177.875 23.7386 178.205 23.4088 178.64 23.1541C179.074 22.8993 179.629 22.7794 180.333 22.7794C181.038 22.7794 181.562 22.9293 181.937 23.214C182.311 23.4988 182.581 23.8734 182.761 24.323C182.941 24.7876 183.061 25.2822 183.091 25.8217C183.136 26.3612 183.151 26.8707 183.151 27.3803V35.9376H188.546V26.3012C188.546 25.1323 188.456 24.0383 188.291 23.0342C188.111 22.0301 187.797 21.1609 187.332 20.4115C186.867 19.6772 186.208 19.0927 185.369 18.6731C184.529 18.2535 183.42 18.0437 182.057 18.0437C181.412 18.0437 180.813 18.1336 180.258 18.2984C179.719 18.4633 179.224 18.6731 178.79 18.9429C178.37 19.2126 177.995 19.5123 177.681 19.8421C177.366 20.1718 177.126 20.5164 176.961 20.8461H176.886V18.4783ZM203.366 24.1282C203.096 23.7386 202.736 23.4239 202.257 23.1691C201.777 22.9143 201.268 22.7944 200.713 22.7944C199.349 22.7944 198.285 23.1991 197.536 24.0233C196.787 24.8326 196.397 25.9116 196.397 27.2305C196.397 28.5493 196.772 29.6133 197.536 30.4376C198.285 31.2468 199.349 31.6665 200.713 31.6665C201.313 31.6665 201.822 31.5316 202.257 31.2768C202.691 31.0071 203.066 30.7073 203.366 30.3477L206.933 34.0943C206.093 34.9635 205.104 35.563 203.965 35.9077C202.826 36.2524 201.732 36.4322 200.713 36.4322C199.364 36.4322 198.106 36.2224 196.922 35.7878C195.738 35.3532 194.704 34.7387 193.819 33.9294C192.935 33.1202 192.261 32.161 191.751 31.037C191.242 29.913 191.002 28.6542 191.002 27.2604C191.002 25.8667 191.257 24.6078 191.751 23.4838C192.261 22.3598 192.95 21.3857 193.819 20.5914C194.689 19.7821 195.723 19.1677 196.922 18.7331C198.106 18.2985 199.379 18.0887 200.713 18.0887C201.747 18.0887 202.826 18.2685 203.965 18.6132C205.104 18.9579 206.093 19.5723 206.933 20.4266L203.366 24.1732V24.1282ZM208.342 23.4538C207.847 24.5778 207.593 25.8367 207.593 27.2304C207.593 28.6242 207.832 29.883 208.342 31.007C208.851 32.131 209.541 33.0902 210.41 33.8994C211.279 34.7087 212.313 35.3232 213.497 35.7578C214.681 36.1924 215.955 36.4022 217.289 36.4022C218.623 36.4022 219.896 36.1924 221.08 35.7578C222.279 35.3232 223.298 34.7087 224.183 33.8994C225.052 33.1051 225.741 32.131 226.251 31.007C226.745 29.883 227 28.6242 227 27.2304C227 25.8367 226.76 24.5778 226.251 23.4538C225.741 22.3298 225.052 21.3707 224.183 20.5614C223.298 19.7521 222.264 19.1377 221.08 18.7031C219.896 18.2685 218.623 18.0587 217.289 18.0587C215.955 18.0587 214.681 18.2685 213.497 18.7031C212.313 19.1377 211.279 19.7521 210.41 20.5614C209.541 21.3557 208.851 22.3298 208.342 23.4538ZM214.127 30.4375C213.362 29.6133 212.988 28.5492 212.988 27.2304C212.988 25.9116 213.377 24.8326 214.127 24.0233C214.876 23.1991 215.94 22.7944 217.304 22.7944C218.668 22.7944 219.732 23.214 220.481 24.0233C221.245 24.8476 221.62 25.9116 221.62 27.2304C221.62 28.5492 221.23 29.6283 220.481 30.4375C219.732 31.2618 218.668 31.6664 217.304 31.6664C215.94 31.6664 214.876 31.2468 214.127 30.4375ZM229.352 12.9783C229.352 12.109 229.652 11.3747 230.266 10.7603C230.881 10.1458 231.615 9.84608 232.485 9.84608C233.354 9.84608 234.088 10.1458 234.703 10.7603C235.317 11.3747 235.617 12.109 235.617 12.9783C235.617 13.8475 235.317 14.5818 234.703 15.1963C234.088 15.8107 233.354 16.1104 232.485 16.1104C231.615 16.1104 230.881 15.8107 230.266 15.1963C229.652 14.5818 229.352 13.8475 229.352 12.9783ZM229.787 18.4783H235.182V35.9676H229.787V18.4783ZM244.34 18.4783H239.155V35.9376H244.55V27.2304C244.55 26.6609 244.58 26.1064 244.655 25.5819C244.73 25.0574 244.88 24.5778 245.105 24.1582C245.329 23.7386 245.659 23.4088 246.094 23.1541C246.528 22.8993 247.083 22.7794 247.787 22.7794C248.492 22.7794 249.016 22.9293 249.391 23.214C249.765 23.4988 250.035 23.8734 250.215 24.323C250.395 24.7876 250.515 25.2822 250.545 25.8217C250.59 26.3612 250.605 26.8707 250.605 27.3803V35.9376H256V26.3012C256 25.1323 255.91 24.0383 255.745 23.0342C255.565 22.0301 255.251 21.1459 254.786 20.4115C254.321 19.6772 253.662 19.0927 252.823 18.6731C251.983 18.2535 250.874 18.0437 249.511 18.0437C248.866 18.0437 248.267 18.1336 247.712 18.2984C247.173 18.4633 246.678 18.6731 246.244 18.9429C245.824 19.2126 245.449 19.5123 245.135 19.8421C244.82 20.1718 244.58 20.5164 244.415 20.8461H244.34V18.4783Z" fill="#272B38"/>
<g clip-path="url(#clip1_216_14819)">
<path d="M29.9733 46.4585H28.4746V47.9571H29.9733V46.4585Z" fill="#707280"/>
<path d="M28.4742 46.4585H26.9756V47.9571H28.4742V46.4585Z" fill="#717381"/>
<path d="M26.9762 46.4585H25.4775V47.9571H26.9762V46.4585Z" fill="#727482"/>
<path d="M25.4772 46.4585H23.9785V47.9571H25.4772V46.4585Z" fill="#737483"/>
<path d="M23.9781 46.4585H22.4795V47.9571H23.9781V46.4585Z" fill="#747584"/>
<path d="M22.4801 46.4585H20.9814V47.9571H22.4801V46.4585Z" fill="#757685"/>
<path d="M20.9811 46.4585H19.4824V47.9571H20.9811V46.4585Z" fill="#767786"/>
<path d="M19.4821 46.4585H17.9834V47.9571H19.4821V46.4585Z" fill="#777987"/>
<path d="M34.4694 44.9595H32.9707V46.4581H34.4694V44.9595Z" fill="#707280"/>
<path d="M32.9703 44.9595H31.4717V46.4581H32.9703V44.9595Z" fill="#717381"/>
<path d="M31.4713 44.9595H29.9727V46.4581H31.4713V44.9595Z" fill="#727382"/>
<path d="M29.9733 44.9595H28.4746V46.4581H29.9733V44.9595Z" fill="#424756"/>
<path d="M28.4742 44.9595H26.9756V46.4581H28.4742V44.9595Z" fill="#424756"/>
<path d="M26.9762 44.9595H25.4775V46.4581H26.9762V44.9595Z" fill="#424756"/>
<path d="M25.4772 44.9595H23.9785V46.4581H25.4772V44.9595Z" fill="#424756"/>
<path d="M23.9781 44.9595H22.4795V46.4581H23.9781V44.9595Z" fill="#424756"/>
<path d="M22.4801 44.9595H20.9814V46.4581H22.4801V44.9595Z" fill="#424756"/>
<path d="M20.9811 44.9595H19.4824V46.4581H20.9811V44.9595Z" fill="#424756"/>
<path d="M19.4821 44.9595H17.9834V46.4581H19.4821V44.9595Z" fill="#424756"/>
<path d="M17.984 44.9595H16.4854V46.4581H17.984V44.9595Z" fill="#7B7D8B"/>
<path d="M16.485 44.9595H14.9863V46.4581H16.485V44.9595Z" fill="#7C7E8C"/>
<path d="M14.9869 44.9595H13.4883V46.4581H14.9869V44.9595Z" fill="#7D7F8D"/>
<path d="M37.4664 43.4609H35.9678V44.9596H37.4664V43.4609Z" fill="#717281"/>
<path d="M35.9674 43.4609H34.4688V44.9596H35.9674V43.4609Z" fill="#727381"/>
<path d="M34.4694 43.4609H32.9707V44.9596H34.4694V43.4609Z" fill="#444957"/>
<path d="M32.9703 43.4609H31.4717V44.9596H32.9703V43.4609Z" fill="#444957"/>
<path d="M31.4713 43.4609H29.9727V44.9596H31.4713V43.4609Z" fill="#444957"/>
<path d="M29.9733 43.4609H28.4746V44.9596H29.9733V43.4609Z" fill="#444957"/>
<path d="M28.4742 43.4609H26.9756V44.9596H28.4742V43.4609Z" fill="#444957"/>
<path d="M26.9762 43.4609H25.4775V44.9596H26.9762V43.4609Z" fill="#444957"/>
<path d="M25.4772 43.4609H23.9785V44.9596H25.4772V43.4609Z" fill="#444957"/>
<path d="M23.9781 43.4609H22.4795V44.9596H23.9781V43.4609Z" fill="#444957"/>
<path d="M22.4801 43.4609H20.9814V44.9596H22.4801V43.4609Z" fill="#444957"/>
<path d="M20.9811 43.4609H19.4824V44.9596H20.9811V43.4609Z" fill="#444957"/>
<path d="M19.4821 43.4609H17.9834V44.9596H19.4821V43.4609Z" fill="#444957"/>
<path d="M17.984 43.4609H16.4854V44.9596H17.984V43.4609Z" fill="#444957"/>
<path d="M16.485 43.4609H14.9863V44.9596H16.485V43.4609Z" fill="#444957"/>
<path d="M14.9869 43.4609H13.4883V44.9596H14.9869V43.4609Z" fill="#444957"/>
<path d="M13.4879 43.4609H11.9893V44.9596H13.4879V43.4609Z" fill="#818392"/>
<path d="M11.9889 43.4609H10.4902V44.9596H11.9889V43.4609Z" fill="#828493"/>
<path d="M38.9655 41.9624H37.4668V43.4611H38.9655V41.9624Z" fill="#737482"/>
<path d="M37.4664 41.9624H35.9678V43.4611H37.4664V41.9624Z" fill="#454B59"/>
<path d="M35.9674 41.9624H34.4688V43.4611H35.9674V41.9624Z" fill="#454B59"/>
<path d="M34.4694 41.9624H32.9707V43.4611H34.4694V41.9624Z" fill="#454B59"/>
<path d="M32.9703 41.9624H31.4717V43.4611H32.9703V41.9624Z" fill="#454B59"/>
<path d="M31.4713 41.9624H29.9727V43.4611H31.4713V41.9624Z" fill="#454B59"/>
<path d="M29.9733 41.9624H28.4746V43.4611H29.9733V41.9624Z" fill="#454B59"/>
<path d="M28.4742 41.9624H26.9756V43.4611H28.4742V41.9624Z" fill="#454B59"/>
<path d="M26.9762 41.9624H25.4775V43.4611H26.9762V41.9624Z" fill="#454B59"/>
<path d="M25.4772 41.9624H23.9785V43.4611H25.4772V41.9624Z" fill="#454B59"/>
<path d="M23.9781 41.9624H22.4795V43.4611H23.9781V41.9624Z" fill="#454B59"/>
<path d="M22.4801 41.9624H20.9814V43.4611H22.4801V41.9624Z" fill="#454B59"/>
<path d="M20.9811 41.9624H19.4824V43.4611H20.9811V41.9624Z" fill="#454B59"/>
<path d="M19.4821 41.9624H17.9834V43.4611H19.4821V41.9624Z" fill="#454B59"/>
<path d="M17.984 41.9624H16.4854V43.4611H17.984V41.9624Z" fill="#454B59"/>
<path d="M16.485 41.9624H14.9863V43.4611H16.485V41.9624Z" fill="#454B59"/>
<path d="M14.9869 41.9624H13.4883V43.4611H14.9869V41.9624Z" fill="#454B59"/>
<path d="M13.4879 41.9624H11.9893V43.4611H13.4879V41.9624Z" fill="#454B59"/>
<path d="M11.9889 41.9624H10.4902V43.4611H11.9889V41.9624Z" fill="#454B59"/>
<path d="M10.4908 41.9624H8.99219V43.4611H10.4908V41.9624Z" fill="#878998"/>
<path d="M40.4635 40.4639H38.9648V41.9625H40.4635V40.4639Z" fill="#757684"/>
<path d="M38.9655 40.4639H37.4668V41.9625H38.9655V40.4639Z" fill="#474C5B"/>
<path d="M37.4664 40.4639H35.9678V41.9625H37.4664V40.4639Z" fill="#474C5B"/>
<path d="M35.9674 40.4639H34.4688V41.9625H35.9674V40.4639Z" fill="#474C5B"/>
<path d="M34.4694 40.4639H32.9707V41.9625H34.4694V40.4639Z" fill="#474C5B"/>
<path d="M32.9703 40.4639H31.4717V41.9625H32.9703V40.4639Z" fill="#474C5B"/>
<path d="M31.4713 40.4639H29.9727V41.9625H31.4713V40.4639Z" fill="#474C5B"/>
<path d="M29.9733 40.4639H28.4746V41.9625H29.9733V40.4639Z" fill="#474C5B"/>
<path d="M28.4742 40.4639H26.9756V41.9625H28.4742V40.4639Z" fill="#474C5B"/>
<path d="M26.9762 40.4639H25.4775V41.9625H26.9762V40.4639Z" fill="#474C5B"/>
<path d="M25.4772 40.4639H23.9785V41.9625H25.4772V40.4639Z" fill="#474C5B"/>
<path d="M23.9781 40.4639H22.4795V41.9625H23.9781V40.4639Z" fill="#474C5B"/>
<path d="M22.4801 40.4639H20.9814V41.9625H22.4801V40.4639Z" fill="#474C5B"/>
<path d="M20.9811 40.4639H19.4824V41.9625H20.9811V40.4639Z" fill="#474C5B"/>
<path d="M19.4821 40.4639H17.9834V41.9625H19.4821V40.4639Z" fill="#474C5B"/>
<path d="M17.984 40.4639H16.4854V41.9625H17.984V40.4639Z" fill="#474C5B"/>
<path d="M16.485 40.4639H14.9863V41.9625H16.485V40.4639Z" fill="#474C5B"/>
<path d="M14.9869 40.4639H13.4883V41.9625H14.9869V40.4639Z" fill="#474C5B"/>
<path d="M13.4879 40.4639H11.9893V41.9625H13.4879V40.4639Z" fill="#474C5B"/>
<path d="M11.9889 40.4639H10.4902V41.9625H11.9889V40.4639Z" fill="#474C5B"/>
<path d="M10.4908 40.4639H8.99219V41.9625H10.4908V40.4639Z" fill="#474C5B"/>
<path d="M8.99182 40.4639H7.49316V41.9625H8.99182V40.4639Z" fill="#8B8D9C"/>
<path d="M41.9625 38.9648H40.4639V40.4635H41.9625V38.9648Z" fill="#777886"/>
<path d="M40.4635 38.9648H38.9648V40.4635H40.4635V38.9648Z" fill="#484D5D"/>
<path d="M38.9655 38.9648H37.4668V40.4635H38.9655V38.9648Z" fill="#484D5D"/>
<path d="M37.4664 38.9648H35.9678V40.4635H37.4664V38.9648Z" fill="#484D5D"/>
<path d="M35.9674 38.9648H34.4688V40.4635H35.9674V38.9648Z" fill="#484D5D"/>
<path d="M34.4694 38.9648H32.9707V40.4635H34.4694V38.9648Z" fill="#484D5D"/>
<path d="M32.9703 38.9648H31.4717V40.4635H32.9703V38.9648Z" fill="#484D5D"/>
<path d="M31.4713 38.9648H29.9727V40.4635H31.4713V38.9648Z" fill="#484D5D"/>
<path d="M29.9733 38.9648H28.4746V40.4635H29.9733V38.9648Z" fill="#484D5D"/>
<path d="M28.4742 38.9648H26.9756V40.4635H28.4742V38.9648Z" fill="#484D5D"/>
<path d="M26.9762 38.9648H25.4775V40.4635H26.9762V38.9648Z" fill="#484D5D"/>
<path d="M25.4772 38.9648H23.9785V40.4635H25.4772V38.9648Z" fill="#484D5D"/>
<path d="M23.9781 38.9648H22.4795V40.4635H23.9781V38.9648Z" fill="#484D5D"/>
<path d="M22.4801 38.9648H20.9814V40.4635H22.4801V38.9648Z" fill="#484D5D"/>
<path d="M20.9811 38.9648H19.4824V40.4635H20.9811V38.9648Z" fill="#484D5D"/>
<path d="M19.4821 38.9648H17.9834V40.4635H19.4821V38.9648Z" fill="#484D5D"/>
<path d="M17.984 38.9648H16.4854V40.4635H17.984V38.9648Z" fill="#484D5D"/>
<path d="M16.485 38.9648H14.9863V40.4635H16.485V38.9648Z" fill="#484D5D"/>
<path d="M14.9869 38.9648H13.4883V40.4635H14.9869V38.9648Z" fill="#484D5D"/>
<path d="M13.4879 38.9648H11.9893V40.4635H13.4879V38.9648Z" fill="#484D5D"/>
<path d="M11.9889 38.9648H10.4902V40.4635H11.9889V38.9648Z" fill="#484D5D"/>
<path d="M10.4908 38.9648H8.99219V40.4635H10.4908V38.9648Z" fill="#484D5D"/>
<path d="M8.99182 38.9648H7.49316V40.4635H8.99182V38.9648Z" fill="#484D5D"/>
<path d="M7.49279 38.9648H5.99414V40.4635H7.49279V38.9648Z" fill="#8F92A0"/>
<path d="M43.4606 37.4663H41.9619V38.965H43.4606V37.4663Z" fill="#787A88"/>
<path d="M41.9625 37.4663H40.4639V38.965H41.9625V37.4663Z" fill="#4A4F5F"/>
<path d="M40.4635 37.4663H38.9648V38.965H40.4635V37.4663Z" fill="#4A4F5F"/>
<path d="M38.9655 37.4663H37.4668V38.965H38.9655V37.4663Z" fill="#4A4F5F"/>
<path d="M37.4664 37.4663H35.9678V38.965H37.4664V37.4663Z" fill="#4A4F5F"/>
<path d="M35.9674 37.4663H34.4688V38.965H35.9674V37.4663Z" fill="#4A4F5F"/>
<path d="M34.4694 37.4663H32.9707V38.965H34.4694V37.4663Z" fill="#4A4F5F"/>
<path d="M32.9703 37.4663H31.4717V38.965H32.9703V37.4663Z" fill="#4A4F5F"/>
<path d="M31.4713 37.4663H29.9727V38.965H31.4713V37.4663Z" fill="#4A4F5F"/>
<path d="M29.9733 37.4663H28.4746V38.965H29.9733V37.4663Z" fill="#4A4F5F"/>
<path d="M28.4742 37.4663H26.9756V38.965H28.4742V37.4663Z" fill="#4A4F5F"/>
<path d="M26.9762 37.4663H25.4775V38.965H26.9762V37.4663Z" fill="#4A4F5F"/>
<path d="M25.4772 37.4663H23.9785V38.965H25.4772V37.4663Z" fill="#4A4F5F"/>
<path d="M23.9781 37.4663H22.4795V38.965H23.9781V37.4663Z" fill="#4A4F5F"/>
<path d="M22.4801 37.4663H20.9814V38.965H22.4801V37.4663Z" fill="#4A4F5F"/>
<path d="M20.9811 37.4663H19.4824V38.965H20.9811V37.4663Z" fill="#4A4F5F"/>
<path d="M19.4821 37.4663H17.9834V38.965H19.4821V37.4663Z" fill="#4A4F5F"/>
<path d="M17.984 37.4663H16.4854V38.965H17.984V37.4663Z" fill="#4A4F5F"/>
<path d="M16.485 37.4663H14.9863V38.965H16.485V37.4663Z" fill="#4A4F5F"/>
<path d="M14.9869 37.4663H13.4883V38.965H14.9869V37.4663Z" fill="#4A4F5F"/>
<path d="M13.4879 37.4663H11.9893V38.965H13.4879V37.4663Z" fill="#4A4F5F"/>
<path d="M11.9889 37.4663H10.4902V38.965H11.9889V37.4663Z" fill="#4A4F5F"/>
<path d="M10.4908 37.4663H8.99219V38.965H10.4908V37.4663Z" fill="#4A4F5F"/>
<path d="M8.99182 37.4663H7.49316V38.965H8.99182V37.4663Z" fill="#4A4F5F"/>
<path d="M7.49279 37.4663H5.99414V38.965H7.49279V37.4663Z" fill="#4A4F5F"/>
<path d="M5.99475 37.4663H4.49609V38.965H5.99475V37.4663Z" fill="#9396A5"/>
<path d="M44.9596 35.9678H43.4609V37.4664H44.9596V35.9678Z" fill="#7A7C8A"/>
<path d="M43.4606 35.9678H41.9619V37.4664H43.4606V35.9678Z" fill="#4C5161"/>
<path d="M41.9625 35.9678H40.4639V37.4664H41.9625V35.9678Z" fill="#4C5161"/>
<path d="M40.4635 35.9678H38.9648V37.4664H40.4635V35.9678Z" fill="#4C5161"/>
<path d="M38.9655 35.9678H37.4668V37.4664H38.9655V35.9678Z" fill="#4C5161"/>
<path d="M37.4664 35.9678H35.9678V37.4664H37.4664V35.9678Z" fill="#4C5161"/>
<path d="M35.9674 35.9678H34.4688V37.4664H35.9674V35.9678Z" fill="#4C5161"/>
<path d="M34.4694 35.9678H32.9707V37.4664H34.4694V35.9678Z" fill="#4C5161"/>
<path d="M32.9703 35.9678H31.4717V37.4664H32.9703V35.9678Z" fill="#4C5161"/>
<path d="M31.4713 35.9678H29.9727V37.4664H31.4713V35.9678Z" fill="#4C5161"/>
<path d="M29.9733 35.9678H28.4746V37.4664H29.9733V35.9678Z" fill="#4C5161"/>
<path d="M28.4742 35.9678H26.9756V37.4664H28.4742V35.9678Z" fill="#4C5161"/>
<path d="M26.9762 35.9678H25.4775V37.4664H26.9762V35.9678Z" fill="#4C5161"/>
<path d="M25.4772 35.9678H23.9785V37.4664H25.4772V35.9678Z" fill="#4C5161"/>
<path d="M23.9781 35.9678H22.4795V37.4664H23.9781V35.9678Z" fill="#4C5161"/>
<path d="M22.4801 35.9678H20.9814V37.4664H22.4801V35.9678Z" fill="#4C5161"/>
<path d="M20.9811 35.9678H19.4824V37.4664H20.9811V35.9678Z" fill="#4C5161"/>
<path d="M19.4821 35.9678H17.9834V37.4664H19.4821V35.9678Z" fill="#4C5161"/>
<path d="M17.984 35.9678H16.4854V37.4664H17.984V35.9678Z" fill="#4C5161"/>
<path d="M16.485 35.9678H14.9863V37.4664H16.485V35.9678Z" fill="#4C5161"/>
<path d="M14.9869 35.9678H13.4883V37.4664H14.9869V35.9678Z" fill="#4C5161"/>
<path d="M13.4879 35.9678H11.9893V37.4664H13.4879V35.9678Z" fill="#4C5161"/>
<path d="M11.9889 35.9678H10.4902V37.4664H11.9889V35.9678Z" fill="#4C5161"/>
<path d="M10.4908 35.9678H8.99219V37.4664H10.4908V35.9678Z" fill="#4C5161"/>
<path d="M8.99182 35.9678H7.49316V37.4664H8.99182V35.9678Z" fill="#4C5161"/>
<path d="M7.49279 35.9678H5.99414V37.4664H7.49279V35.9678Z" fill="#4C5161"/>
<path d="M5.99475 35.9678H4.49609V37.4664H5.99475V35.9678Z" fill="#464B59"/>
<path d="M4.49572 35.9678H2.99707V37.4664H4.49572V35.9678Z" fill="#979AA9"/>
<path d="M44.9596 34.4692H43.4609V35.9679H44.9596V34.4692Z" fill="#7E7F8E"/>
<path d="M43.4606 34.4692H41.9619V35.9679H43.4606V34.4692Z" fill="#4E5363"/>
<path d="M41.9625 34.4692H40.4639V35.9679H41.9625V34.4692Z" fill="#4E5363"/>
<path d="M40.4635 34.4692H38.9648V35.9679H40.4635V34.4692Z" fill="#4E5363"/>
<path d="M38.9655 34.4692H37.4668V35.9679H38.9655V34.4692Z" fill="#4E5363"/>
<path d="M37.4664 34.4692H35.9678V35.9679H37.4664V34.4692Z" fill="#4E5363"/>
<path d="M35.9674 34.4692H34.4688V35.9679H35.9674V34.4692Z" fill="#4E5363"/>
<path d="M34.4694 34.4692H32.9707V35.9679H34.4694V34.4692Z" fill="#4E5363"/>
<path d="M32.9703 34.4692H31.4717V35.9679H32.9703V34.4692Z" fill="#4E5363"/>
<path d="M31.4713 34.4692H29.9727V35.9679H31.4713V34.4692Z" fill="#C1C2C8"/>
<path d="M29.9733 34.4692H28.4746V35.9679H29.9733V34.4692Z" fill="#4E5363"/>
<path d="M28.4742 34.4692H26.9756V35.9679H28.4742V34.4692Z" fill="#4E5363"/>
<path d="M26.9762 34.4692H25.4775V35.9679H26.9762V34.4692Z" fill="#4E5363"/>
<path d="M25.4772 34.4692H23.9785V35.9679H25.4772V34.4692Z" fill="#4E5363"/>
<path d="M23.9781 34.4692H22.4795V35.9679H23.9781V34.4692Z" fill="#DADBDE"/>
<path d="M22.4801 34.4692H20.9814V35.9679H22.4801V34.4692Z" fill="#4E5363"/>
<path d="M20.9811 34.4692H19.4824V35.9679H20.9811V34.4692Z" fill="#4E5363"/>
<path d="M19.4821 34.4692H17.9834V35.9679H19.4821V34.4692Z" fill="#4E5363"/>
<path d="M17.984 34.4692H16.4854V35.9679H17.984V34.4692Z" fill="#4E5363"/>
<path d="M16.485 34.4692H14.9863V35.9679H16.485V34.4692Z" fill="#4E5363"/>
<path d="M14.9869 34.4692H13.4883V35.9679H14.9869V34.4692Z" fill="#4E5363"/>
<path d="M13.4879 34.4692H11.9893V35.9679H13.4879V34.4692Z" fill="#4E5363"/>
<path d="M11.9889 34.4692H10.4902V35.9679H11.9889V34.4692Z" fill="#4E5363"/>
<path d="M10.4908 34.4692H8.99219V35.9679H10.4908V34.4692Z" fill="#4E5363"/>
<path d="M8.99182 34.4692H7.49316V35.9679H8.99182V34.4692Z" fill="#4E5363"/>
<path d="M7.49279 34.4692H5.99414V35.9679H7.49279V34.4692Z" fill="#4E5363"/>
<path d="M5.99475 34.4692H4.49609V35.9679H5.99475V34.4692Z" fill="#4E5363"/>
<path d="M4.49572 34.4692H2.99707V35.9679H4.49572V34.4692Z" fill="#9B9EAD"/>
<path d="M46.4586 32.9702H44.96V34.4689H46.4586V32.9702Z" fill="#808290"/>
<path d="M44.9596 32.9702H43.4609V34.4689H44.9596V32.9702Z" fill="#505665"/>
<path d="M43.4606 32.9702H41.9619V34.4689H43.4606V32.9702Z" fill="#505665"/>
<path d="M41.9625 32.9702H40.4639V34.4689H41.9625V32.9702Z" fill="#505665"/>
<path d="M40.4635 32.9702H38.9648V34.4689H40.4635V32.9702Z" fill="#505665"/>
<path d="M38.9655 32.9702H37.4668V34.4689H38.9655V32.9702Z" fill="#505665"/>
<path d="M37.4664 32.9702H35.9678V34.4689H37.4664V32.9702Z" fill="#505665"/>
<path d="M35.9674 32.9702H34.4688V34.4689H35.9674V32.9702Z" fill="#505665"/>
<path d="M34.4694 32.9702H32.9707V34.4689H34.4694V32.9702Z" fill="#505665"/>
<path d="M32.9703 32.9702H31.4717V34.4689H32.9703V32.9702Z" fill="#505665"/>
<path d="M31.4713 32.9702H29.9727V34.4689H31.4713V32.9702Z" fill="#505665"/>
<path d="M29.9733 32.9702H28.4746V34.4689H29.9733V32.9702Z" fill="#595E69"/>
<path d="M28.4742 32.9702H26.9756V34.4689H28.4742V32.9702Z" fill="#505665"/>
<path d="M26.9762 32.9702H25.4775V34.4689H26.9762V32.9702Z" fill="#626775"/>
<path d="M25.4772 32.9702H23.9785V34.4689H25.4772V32.9702Z" fill="#E9EAEC"/>
<path d="M23.9781 32.9702H22.4795V34.4689H23.9781V32.9702Z" fill="#505665"/>
<path d="M22.4801 32.9702H20.9814V34.4689H22.4801V32.9702Z" fill="#505665"/>
<path d="M20.9811 32.9702H19.4824V34.4689H20.9811V32.9702Z" fill="#505665"/>
<path d="M19.4821 32.9702H17.9834V34.4689H19.4821V32.9702Z" fill="#505665"/>
<path d="M17.984 32.9702H16.4854V34.4689H17.984V32.9702Z" fill="#505665"/>
<path d="M16.485 32.9702H14.9863V34.4689H16.485V32.9702Z" fill="#505665"/>
<path d="M14.9869 32.9702H13.4883V34.4689H14.9869V32.9702Z" fill="#505665"/>
<path d="M13.4879 32.9702H11.9893V34.4689H13.4879V32.9702Z" fill="#505665"/>
<path d="M11.9889 32.9702H10.4902V34.4689H11.9889V32.9702Z" fill="#505665"/>
<path d="M10.4908 32.9702H8.99219V34.4689H10.4908V32.9702Z" fill="#505665"/>
<path d="M8.99182 32.9702H7.49316V34.4689H8.99182V32.9702Z" fill="#505665"/>
<path d="M7.49279 32.9702H5.99414V34.4689H7.49279V32.9702Z" fill="#505665"/>
<path d="M5.99475 32.9702H4.49609V34.4689H5.99475V32.9702Z" fill="#505665"/>
<path d="M4.49572 32.9702H2.99707V34.4689H4.49572V32.9702Z" fill="#4A4F5D"/>
<path d="M2.99768 32.9702H1.49902V34.4689H2.99768V32.9702Z" fill="#9FA2B1"/>
<path d="M46.4586 31.4717H44.96V32.9703H46.4586V31.4717Z" fill="#838593"/>
<path d="M44.9596 31.4717H43.4609V32.9703H44.9596V31.4717Z" fill="#535868"/>
<path d="M43.4606 31.4717H41.9619V32.9703H43.4606V31.4717Z" fill="#535868"/>
<path d="M41.9625 31.4717H40.4639V32.9703H41.9625V31.4717Z" fill="#535868"/>
<path d="M40.4635 31.4717H38.9648V32.9703H40.4635V31.4717Z" fill="#535868"/>
<path d="M38.9655 31.4717H37.4668V32.9703H38.9655V31.4717Z" fill="#535868"/>
<path d="M37.4664 31.4717H35.9678V32.9703H37.4664V31.4717Z" fill="#686C7A"/>
<path d="M35.9674 31.4717H34.4688V32.9703H35.9674V31.4717Z" fill="#535868"/>
<path d="M34.4694 31.4717H32.9707V32.9703H34.4694V31.4717Z" fill="#535868"/>
<path d="M32.9703 31.4717H31.4717V32.9703H32.9703V31.4717Z" fill="#686C7A"/>
<path d="M31.4713 31.4717H29.9727V32.9703H31.4713V31.4717Z" fill="#535868"/>
<path d="M29.9733 31.4717H28.4746V32.9703H29.9733V31.4717Z" fill="#535868"/>
<path d="M28.4742 31.4717H26.9756V32.9703H28.4742V31.4717Z" fill="#747885"/>
<path d="M26.9762 31.4717H25.4775V32.9703H26.9762V31.4717Z" fill="#E5E6E8"/>
<path d="M25.4772 31.4717H23.9785V32.9703H25.4772V31.4717Z" fill="#535868"/>
<path d="M23.9781 31.4717H22.4795V32.9703H23.9781V31.4717Z" fill="#535868"/>
<path d="M22.4801 31.4717H20.9814V32.9703H22.4801V31.4717Z" fill="#535868"/>
<path d="M20.9811 31.4717H19.4824V32.9703H20.9811V31.4717Z" fill="#535868"/>
<path d="M19.4821 31.4717H17.9834V32.9703H19.4821V31.4717Z" fill="#535868"/>
<path d="M17.984 31.4717H16.4854V32.9703H17.984V31.4717Z" fill="#535868"/>
<path d="M16.485 31.4717H14.9863V32.9703H16.485V31.4717Z" fill="#535868"/>
<path d="M14.9869 31.4717H13.4883V32.9703H14.9869V31.4717Z" fill="#535868"/>
<path d="M13.4879 31.4717H11.9893V32.9703H13.4879V31.4717Z" fill="#535868"/>
<path d="M11.9889 31.4717H10.4902V32.9703H11.9889V31.4717Z" fill="#535868"/>
<path d="M10.4908 31.4717H8.99219V32.9703H10.4908V31.4717Z" fill="#535868"/>
<path d="M8.99182 31.4717H7.49316V32.9703H8.99182V31.4717Z" fill="#535868"/>
<path d="M7.49279 31.4717H5.99414V32.9703H7.49279V31.4717Z" fill="#535868"/>
<path d="M5.99475 31.4717H4.49609V32.9703H5.99475V31.4717Z" fill="#535868"/>
<path d="M4.49572 31.4717H2.99707V32.9703H4.49572V31.4717Z" fill="#4C5160"/>
<path d="M2.99768 31.4717H1.49902V32.9703H2.99768V31.4717Z" fill="#A2A6B5"/>
<path d="M46.4586 29.9731H44.96V31.4718H46.4586V29.9731Z" fill="#868897"/>
<path d="M44.9596 29.9731H43.4609V31.4718H44.9596V29.9731Z" fill="#565B6B"/>
<path d="M43.4606 29.9731H41.9619V31.4718H43.4606V29.9731Z" fill="#565B6B"/>
<path d="M41.9625 29.9731H40.4639V31.4718H41.9625V29.9731Z" fill="#C5C7CD"/>
<path d="M40.4635 29.9731H38.9648V31.4718H40.4635V29.9731Z" fill="#676C7A"/>
<path d="M38.9655 29.9731H37.4668V31.4718H38.9655V29.9731Z" fill="#565B6B"/>
<path d="M37.4664 29.9731H35.9678V31.4718H37.4664V29.9731Z" fill="#565B6B"/>
<path d="M35.9674 29.9731H34.4688V31.4718H35.9674V29.9731Z" fill="#D9DADD"/>
<path d="M34.4694 29.9731H32.9707V31.4718H34.4694V29.9731Z" fill="#565B6B"/>
<path d="M32.9703 29.9731H31.4717V31.4718H32.9703V29.9731Z" fill="#565B6B"/>
<path d="M31.4713 29.9731H29.9727V31.4718H31.4713V29.9731Z" fill="#676C7A"/>
<path d="M29.9733 29.9731H28.4746V31.4718H29.9733V29.9731Z" fill="#767B87"/>
<path d="M28.4742 29.9731H26.9756V31.4718H28.4742V29.9731Z" fill="#E6E7E9"/>
<path d="M26.9762 29.9731H25.4775V31.4718H26.9762V29.9731Z" fill="#565B6B"/>
<path d="M25.4772 29.9731H23.9785V31.4718H25.4772V29.9731Z" fill="#565B6B"/>
<path d="M23.9781 29.9731H22.4795V31.4718H23.9781V29.9731Z" fill="#565B6B"/>
<path d="M22.4801 29.9731H20.9814V31.4718H22.4801V29.9731Z" fill="#565B6B"/>
<path d="M20.9811 29.9731H19.4824V31.4718H20.9811V29.9731Z" fill="#565B6B"/>
<path d="M19.4821 29.9731H17.9834V31.4718H19.4821V29.9731Z" fill="#565B6B"/>
<path d="M17.984 29.9731H16.4854V31.4718H17.984V29.9731Z" fill="#565B6B"/>
<path d="M16.485 29.9731H14.9863V31.4718H16.485V29.9731Z" fill="#565B6B"/>
<path d="M14.9869 29.9731H13.4883V31.4718H14.9869V29.9731Z" fill="#565B6B"/>
<path d="M13.4879 29.9731H11.9893V31.4718H13.4879V29.9731Z" fill="#565B6B"/>
<path d="M11.9889 29.9731H10.4902V31.4718H11.9889V29.9731Z" fill="#565B6B"/>
<path d="M10.4908 29.9731H8.99219V31.4718H10.4908V29.9731Z" fill="#565B6B"/>
<path d="M8.99182 29.9731H7.49316V31.4718H8.99182V29.9731Z" fill="#565B6B"/>
<path d="M7.49279 29.9731H5.99414V31.4718H7.49279V29.9731Z" fill="#565B6B"/>
<path d="M5.99475 29.9731H4.49609V31.4718H5.99475V29.9731Z" fill="#565B6B"/>
<path d="M4.49572 29.9731H2.99707V31.4718H4.49572V29.9731Z" fill="#565B6B"/>
<path d="M2.99768 29.9731H1.49902V31.4718H2.99768V29.9731Z" fill="#A6A9B8"/>
<path d="M47.9567 28.4746H46.458V29.9733H47.9567V28.4746Z" fill="#888A99"/>
<path d="M46.4586 28.4746H44.96V29.9733H46.4586V28.4746Z" fill="#595F6F"/>
<path d="M44.9596 28.4746H43.4609V29.9733H44.9596V28.4746Z" fill="#595F6F"/>
<path d="M43.4606 28.4746H41.9619V29.9733H43.4606V28.4746Z" fill="#595F6F"/>
<path d="M41.9625 28.4746H40.4639V29.9733H41.9625V28.4746Z" fill="#595F6F"/>
<path d="M40.4635 28.4746H38.9648V29.9733H40.4635V28.4746Z" fill="#F4F4F5"/>
<path d="M38.9655 28.4746H37.4668V29.9733H38.9655V28.4746Z" fill="white"/>
<path d="M37.4664 28.4746H35.9678V29.9733H37.4664V28.4746Z" fill="#6A6F7E"/>
<path d="M35.9674 28.4746H34.4688V29.9733H35.9674V28.4746Z" fill="#595F6F"/>
<path d="M34.4694 28.4746H32.9707V29.9733H34.4694V28.4746Z" fill="#595F6F"/>
<path d="M32.9703 28.4746H31.4717V29.9733H32.9703V28.4746Z" fill="white"/>
<path d="M31.4713 28.4746H29.9727V29.9733H31.4713V28.4746Z" fill="#878B97"/>
<path d="M29.9733 28.4746H28.4746V29.9733H29.9733V28.4746Z" fill="#E6E7EA"/>
<path d="M28.4742 28.4746H26.9756V29.9733H28.4742V28.4746Z" fill="white"/>
<path d="M26.9762 28.4746H25.4775V29.9733H26.9762V28.4746Z" fill="#595F6F"/>
<path d="M25.4772 28.4746H23.9785V29.9733H25.4772V28.4746Z" fill="#595F6F"/>
<path d="M23.9781 28.4746H22.4795V29.9733H23.9781V28.4746Z" fill="#595F6F"/>
<path d="M22.4801 28.4746H20.9814V29.9733H22.4801V28.4746Z" fill="#595F6F"/>
<path d="M20.9811 28.4746H19.4824V29.9733H20.9811V28.4746Z" fill="white"/>
<path d="M19.4821 28.4746H17.9834V29.9733H19.4821V28.4746Z" fill="#6A6F7E"/>
<path d="M17.984 28.4746H16.4854V29.9733H17.984V28.4746Z" fill="#595F6F"/>
<path d="M16.485 28.4746H14.9863V29.9733H16.485V28.4746Z" fill="#595F6F"/>
<path d="M14.9869 28.4746H13.4883V29.9733H14.9869V28.4746Z" fill="#595F6F"/>
<path d="M13.4879 28.4746H11.9893V29.9733H13.4879V28.4746Z" fill="#595F6F"/>
<path d="M11.9889 28.4746H10.4902V29.9733H11.9889V28.4746Z" fill="#595F6F"/>
<path d="M10.4908 28.4746H8.99219V29.9733H10.4908V28.4746Z" fill="#595F6F"/>
<path d="M8.99182 28.4746H7.49316V29.9733H8.99182V28.4746Z" fill="#595F6F"/>
<path d="M7.49279 28.4746H5.99414V29.9733H7.49279V28.4746Z" fill="#595F6F"/>
<path d="M5.99475 28.4746H4.49609V29.9733H5.99475V28.4746Z" fill="#6A6F7E"/>
<path d="M4.49572 28.4746H2.99707V29.9733H4.49572V28.4746Z" fill="#7F8490"/>
<path d="M2.99768 28.4746H1.49902V29.9733H2.99768V28.4746Z" fill="#525866"/>
<path d="M1.49865 28.4746H0V29.9733H1.49865V28.4746Z" fill="#AAAEBD"/>
<path d="M47.9567 26.9756H46.458V28.4742H47.9567V26.9756Z" fill="#8B8E9C"/>
<path d="M46.4586 26.9756H44.96V28.4742H46.4586V26.9756Z" fill="#5D6373"/>
<path d="M44.9596 26.9756H43.4609V28.4742H44.9596V26.9756Z" fill="#5D6373"/>
<path d="M43.4606 26.9756H41.9619V28.4742H43.4606V26.9756Z" fill="#717684"/>
<path d="M41.9625 26.9756H40.4639V28.4742H41.9625V26.9756Z" fill="#5D6373"/>
<path d="M40.4635 26.9756H38.9648V28.4742H40.4635V26.9756Z" fill="#5D6373"/>
<path d="M38.9655 26.9756H37.4668V28.4742H38.9655V26.9756Z" fill="#F2F3F4"/>
<path d="M37.4664 26.9756H35.9678V28.4742H37.4664V26.9756Z" fill="white"/>
<path d="M35.9674 26.9756H34.4688V28.4742H35.9674V26.9756Z" fill="#F2F3F4"/>
<path d="M34.4694 26.9756H32.9707V28.4742H34.4694V26.9756Z" fill="#6E7381"/>
<path d="M32.9703 26.9756H31.4717V28.4742H32.9703V26.9756Z" fill="#898E99"/>
<path d="M31.4713 26.9756H29.9727V28.4742H31.4713V26.9756Z" fill="#DCDDE1"/>
<path d="M29.9733 26.9756H28.4746V28.4742H29.9733V26.9756Z" fill="white"/>
<path d="M28.4742 26.9756H26.9756V28.4742H28.4742V26.9756Z" fill="#5D6373"/>
<path d="M26.9762 26.9756H25.4775V28.4742H26.9762V26.9756Z" fill="#5D6373"/>
<path d="M25.4772 26.9756H23.9785V28.4742H25.4772V26.9756Z" fill="#5D6373"/>
<path d="M23.9781 26.9756H22.4795V28.4742H23.9781V26.9756Z" fill="#5D6373"/>
<path d="M22.4801 26.9756H20.9814V28.4742H22.4801V26.9756Z" fill="#5D6373"/>
<path d="M20.9811 26.9756H19.4824V28.4742H20.9811V26.9756Z" fill="#5D6373"/>
<path d="M19.4821 26.9756H17.9834V28.4742H19.4821V26.9756Z" fill="white"/>
<path d="M17.984 26.9756H16.4854V28.4742H17.984V26.9756Z" fill="#E3E4E7"/>
<path d="M16.485 26.9756H14.9863V28.4742H16.485V26.9756Z" fill="#6E7381"/>
<path d="M14.9869 26.9756H13.4883V28.4742H14.9869V26.9756Z" fill="#5D6373"/>
<path d="M13.4879 26.9756H11.9893V28.4742H13.4879V26.9756Z" fill="#5D6373"/>
<path d="M11.9889 26.9756H10.4902V28.4742H11.9889V26.9756Z" fill="#5D6373"/>
<path d="M10.4908 26.9756H8.99219V28.4742H10.4908V26.9756Z" fill="#5D6373"/>
<path d="M8.99182 26.9756H7.49316V28.4742H8.99182V26.9756Z" fill="#6E7381"/>
<path d="M7.49279 26.9756H5.99414V28.4742H7.49279V26.9756Z" fill="#C5C7CC"/>
<path d="M5.99475 26.9756H4.49609V28.4742H5.99475V26.9756Z" fill="#A2A5AE"/>
<path d="M4.49572 26.9756H2.99707V28.4742H4.49572V26.9756Z" fill="#5D6373"/>
<path d="M2.99768 26.9756H1.49902V28.4742H2.99768V26.9756Z" fill="#565B6A"/>
<path d="M1.49865 26.9756H0V28.4742H1.49865V26.9756Z" fill="#ADB1C0"/>
<path d="M47.9567 25.4771H46.458V26.9757H47.9567V25.4771Z" fill="#8E919F"/>
<path d="M46.4586 25.4771H44.96V26.9757H46.4586V25.4771Z" fill="#7E8290"/>
<path d="M44.9596 25.4771H43.4609V26.9757H44.9596V25.4771Z" fill="white"/>
<path d="M43.4606 25.4771H41.9619V26.9757H43.4606V25.4771Z" fill="#717685"/>
<path d="M41.9625 25.4771H40.4639V26.9757H41.9625V25.4771Z" fill="white"/>
<path d="M40.4635 25.4771H38.9648V26.9757H40.4635V25.4771Z" fill="#717685"/>
<path d="M38.9655 25.4771H37.4668V26.9757H38.9655V25.4771Z" fill="#8C919C"/>
<path d="M37.4664 25.4771H35.9678V26.9757H37.4664V25.4771Z" fill="white"/>
<path d="M35.9674 25.4771H34.4688V26.9757H35.9674V25.4771Z" fill="#8C919C"/>
<path d="M34.4694 25.4771H32.9707V26.9757H34.4694V25.4771Z" fill="white"/>
<path d="M32.9703 25.4771H31.4717V26.9757H32.9703V25.4771Z" fill="white"/>
<path d="M31.4713 25.4771H29.9727V26.9757H31.4713V25.4771Z" fill="white"/>
<path d="M29.9733 25.4771H28.4746V26.9757H29.9733V25.4771Z" fill="#616777"/>
<path d="M28.4742 25.4771H26.9756V26.9757H28.4742V25.4771Z" fill="#616777"/>
<path d="M26.9762 25.4771H25.4775V26.9757H26.9762V25.4771Z" fill="#616777"/>
<path d="M25.4772 25.4771H23.9785V26.9757H25.4772V25.4771Z" fill="#616777"/>
<path d="M23.9781 25.4771H22.4795V26.9757H23.9781V25.4771Z" fill="#616777"/>
<path d="M22.4801 25.4771H20.9814V26.9757H22.4801V25.4771Z" fill="#616777"/>
<path d="M20.9811 25.4771H19.4824V26.9757H20.9811V25.4771Z" fill="#616777"/>
<path d="M19.4821 25.4771H17.9834V26.9757H19.4821V25.4771Z" fill="#616777"/>
<path d="M17.984 25.4771H16.4854V26.9757H17.984V25.4771Z" fill="white"/>
<path d="M16.485 25.4771H14.9863V26.9757H16.485V25.4771Z" fill="white"/>
<path d="M14.9869 25.4771H13.4883V26.9757H14.9869V25.4771Z" fill="#E4E5E8"/>
<path d="M13.4879 25.4771H11.9893V26.9757H13.4879V25.4771Z" fill="#717685"/>
<path d="M11.9889 25.4771H10.4902V26.9757H11.9889V25.4771Z" fill="#616777"/>
<path d="M10.4908 25.4771H8.99219V26.9757H10.4908V25.4771Z" fill="#717685"/>
<path d="M8.99182 25.4771H7.49316V26.9757H8.99182V25.4771Z" fill="#C8CAD0"/>
<path d="M7.49279 25.4771H5.99414V26.9757H7.49279V25.4771Z" fill="#616777"/>
<path d="M5.99475 25.4771H4.49609V26.9757H5.99475V25.4771Z" fill="#616777"/>
<path d="M4.49572 25.4771H2.99707V26.9757H4.49572V25.4771Z" fill="#616777"/>
<path d="M2.99768 25.4771H1.49902V26.9757H2.99768V25.4771Z" fill="#595F6E"/>
<path d="M1.49865 25.4771H0V26.9757H1.49865V25.4771Z" fill="#B0B4C3"/>
<path d="M47.9567 23.9785H46.458V25.4772H47.9567V23.9785Z" fill="#9194A3"/>
<path d="M46.4586 23.9785H44.96V25.4772H46.4586V23.9785Z" fill="#656B7B"/>
<path d="M44.9596 23.9785H43.4609V25.4772H44.9596V23.9785Z" fill="#7F8491"/>
<path d="M43.4606 23.9785H41.9619V25.4772H43.4606V23.9785Z" fill="#C5C7CD"/>
<path d="M41.9625 23.9785H40.4639V25.4772H41.9625V23.9785Z" fill="#E2E3E6"/>
<path d="M40.4635 23.9785H38.9648V25.4772H40.4635V23.9785Z" fill="#F4F4F5"/>
<path d="M38.9655 23.9785H37.4668V25.4772H38.9655V23.9785Z" fill="white"/>
<path d="M37.4664 23.9785H35.9678V25.4772H37.4664V23.9785Z" fill="white"/>
<path d="M35.9674 23.9785H34.4688V25.4772H35.9674V23.9785Z" fill="white"/>
<path d="M34.4694 23.9785H32.9707V25.4772H34.4694V23.9785Z" fill="white"/>
<path d="M32.9703 23.9785H31.4717V25.4772H32.9703V23.9785Z" fill="#EBECEE"/>
<path d="M31.4713 23.9785H29.9727V25.4772H31.4713V23.9785Z" fill="#757A88"/>
<path d="M29.9733 23.9785H28.4746V25.4772H29.9733V23.9785Z" fill="#656B7B"/>
<path d="M28.4742 23.9785H26.9756V25.4772H28.4742V23.9785Z" fill="#656B7B"/>
<path d="M26.9762 23.9785H25.4775V25.4772H26.9762V23.9785Z" fill="#656B7B"/>
<path d="M25.4772 23.9785H23.9785V25.4772H25.4772V23.9785Z" fill="#656B7B"/>
<path d="M23.9781 23.9785H22.4795V25.4772H23.9781V23.9785Z" fill="#656B7B"/>
<path d="M22.4801 23.9785H20.9814V25.4772H22.4801V23.9785Z" fill="#656B7B"/>
<path d="M20.9811 23.9785H19.4824V25.4772H20.9811V23.9785Z" fill="#656B7B"/>
<path d="M19.4821 23.9785H17.9834V25.4772H19.4821V23.9785Z" fill="#B7BAC1"/>
<path d="M17.984 23.9785H16.4854V25.4772H17.984V23.9785Z" fill="#656B7B"/>
<path d="M16.485 23.9785H14.9863V25.4772H16.485V23.9785Z" fill="white"/>
<path d="M14.9869 23.9785H13.4883V25.4772H14.9869V23.9785Z" fill="white"/>
<path d="M13.4879 23.9785H11.9893V25.4772H13.4879V23.9785Z" fill="#EFEFF1"/>
<path d="M11.9889 23.9785H10.4902V25.4772H11.9889V23.9785Z" fill="#D5D7DB"/>
<path d="M10.4908 23.9785H8.99219V25.4772H10.4908V23.9785Z" fill="#E4E5E8"/>
<path d="M8.99182 23.9785H7.49316V25.4772H8.99182V23.9785Z" fill="#656B7B"/>
<path d="M7.49279 23.9785H5.99414V25.4772H7.49279V23.9785Z" fill="#656B7B"/>
<path d="M5.99475 23.9785H4.49609V25.4772H5.99475V23.9785Z" fill="#656B7B"/>
<path d="M4.49572 23.9785H2.99707V25.4772H4.49572V23.9785Z" fill="#656B7B"/>
<path d="M2.99768 23.9785H1.49902V25.4772H2.99768V23.9785Z" fill="#5D6371"/>
<path d="M1.49865 23.9785H0V25.4772H1.49865V23.9785Z" fill="#B2B6C6"/>
<path d="M47.9567 22.48H46.458V23.9786H47.9567V22.48Z" fill="#9497A6"/>
<path d="M46.4586 22.48H44.96V23.9786H46.4586V22.48Z" fill="#696F7F"/>
<path d="M44.9596 22.48H43.4609V23.9786H44.9596V22.48Z" fill="#696F7F"/>
<path d="M43.4606 22.48H41.9619V23.9786H43.4606V22.48Z" fill="#696F7F"/>
<path d="M41.9625 22.48H40.4639V23.9786H41.9625V22.48Z" fill="#7B818F"/>
<path d="M40.4635 22.48H38.9648V23.9786H40.4635V22.48Z" fill="#CBCDD2"/>
<path d="M38.9655 22.48H37.4668V23.9786H38.9655V22.48Z" fill="#E7E8EA"/>
<path d="M37.4664 22.48H35.9678V23.9786H37.4664V22.48Z" fill="#F7F8F8"/>
<path d="M35.9674 22.48H34.4688V23.9786H35.9674V22.48Z" fill="white"/>
<path d="M34.4694 22.48H32.9707V23.9786H34.4694V22.48Z" fill="white"/>
<path d="M32.9703 22.48H31.4717V23.9786H32.9703V22.48Z" fill="white"/>
<path d="M31.4713 22.48H29.9727V23.9786H31.4713V22.48Z" fill="#F9F9FA"/>
<path d="M29.9733 22.48H28.4746V23.9786H29.9733V22.48Z" fill="#696F7F"/>
<path d="M28.4742 22.48H26.9756V23.9786H28.4742V22.48Z" fill="#696F7F"/>
<path d="M26.9762 22.48H25.4775V23.9786H26.9762V22.48Z" fill="#696F7F"/>
<path d="M25.4772 22.48H23.9785V23.9786H25.4772V22.48Z" fill="#696F7F"/>
<path d="M23.9781 22.48H22.4795V23.9786H23.9781V22.48Z" fill="#696F7F"/>
<path d="M22.4801 22.48H20.9814V23.9786H22.4801V22.48Z" fill="#696F7F"/>
<path d="M20.9811 22.48H19.4824V23.9786H20.9811V22.48Z" fill="#696F7F"/>
<path d="M19.4821 22.48H17.9834V23.9786H19.4821V22.48Z" fill="white"/>
<path d="M17.984 22.48H16.4854V23.9786H17.984V22.48Z" fill="#696F7F"/>
<path d="M16.485 22.48H14.9863V23.9786H16.485V22.48Z" fill="#696F7F"/>
<path d="M14.9869 22.48H13.4883V23.9786H14.9869V22.48Z" fill="white"/>
<path d="M13.4879 22.48H11.9893V23.9786H13.4879V22.48Z" fill="white"/>
<path d="M11.9889 22.48H10.4902V23.9786H11.9889V22.48Z" fill="#FEFEFE"/>
<path d="M10.4908 22.48H8.99219V23.9786H10.4908V22.48Z" fill="#696F7F"/>
<path d="M8.99182 22.48H7.49316V23.9786H8.99182V22.48Z" fill="#696F7F"/>
<path d="M7.49279 22.48H5.99414V23.9786H7.49279V22.48Z" fill="#696F7F"/>
<path d="M5.99475 22.48H4.49609V23.9786H5.99475V22.48Z" fill="#696F7F"/>
<path d="M4.49572 22.48H2.99707V23.9786H4.49572V22.48Z" fill="#696F7F"/>
<path d="M2.99768 22.48H1.49902V23.9786H2.99768V22.48Z" fill="#616675"/>
<path d="M1.49865 22.48H0V23.9786H1.49865V22.48Z" fill="#B3B8C7"/>
<path d="M47.9567 20.981H46.458V22.4796H47.9567V20.981Z" fill="#989AA9"/>
<path d="M46.4586 20.981H44.96V22.4796H46.4586V20.981Z" fill="#6D7384"/>
<path d="M44.9596 20.981H43.4609V22.4796H44.9596V20.981Z" fill="#6D7384"/>
<path d="M43.4606 20.981H41.9619V22.4796H43.4606V20.981Z" fill="#6D7384"/>
<path d="M41.9625 20.981H40.4639V22.4796H41.9625V20.981Z" fill="#6D7384"/>
<path d="M40.4635 20.981H38.9648V22.4796H40.4635V20.981Z" fill="#6D7384"/>
<path d="M38.9655 20.981H37.4668V22.4796H38.9655V20.981Z" fill="#6D7384"/>
<path d="M37.4664 20.981H35.9678V22.4796H37.4664V20.981Z" fill="#E2E4E7"/>
<path d="M35.9674 20.981H34.4688V22.4796H35.9674V20.981Z" fill="#F1F1F3"/>
<path d="M34.4694 20.981H32.9707V22.4796H34.4694V20.981Z" fill="white"/>
<path d="M32.9703 20.981H31.4717V22.4796H32.9703V20.981Z" fill="white"/>
<path d="M31.4713 20.981H29.9727V22.4796H31.4713V20.981Z" fill="white"/>
<path d="M29.9733 20.981H28.4746V22.4796H29.9733V20.981Z" fill="#7A808F"/>
<path d="M28.4742 20.981H26.9756V22.4796H28.4742V20.981Z" fill="#6D7384"/>
<path d="M26.9762 20.981H25.4775V22.4796H26.9762V20.981Z" fill="#6D7384"/>
<path d="M25.4772 20.981H23.9785V22.4796H25.4772V20.981Z" fill="#6D7384"/>
<path d="M23.9781 20.981H22.4795V22.4796H23.9781V20.981Z" fill="#6D7384"/>
<path d="M22.4801 20.981H20.9814V22.4796H22.4801V20.981Z" fill="#6D7384"/>
<path d="M20.9811 20.981H19.4824V22.4796H20.9811V20.981Z" fill="#CDCFD5"/>
<path d="M19.4821 20.981H17.9834V22.4796H19.4821V20.981Z" fill="#6D7384"/>
<path d="M17.984 20.981H16.4854V22.4796H17.984V20.981Z" fill="#6D7384"/>
<path d="M16.485 20.981H14.9863V22.4796H16.485V20.981Z" fill="#6D7384"/>
<path d="M14.9869 20.981H13.4883V22.4796H14.9869V20.981Z" fill="#6D7384"/>
<path d="M13.4879 20.981H11.9893V22.4796H13.4879V20.981Z" fill="white"/>
<path d="M11.9889 20.981H10.4902V22.4796H11.9889V20.981Z" fill="#6D7384"/>
<path d="M10.4908 20.981H8.99219V22.4796H10.4908V20.981Z" fill="#6D7384"/>
<path d="M8.99182 20.981H7.49316V22.4796H8.99182V20.981Z" fill="#6D7384"/>
<path d="M7.49279 20.981H5.99414V22.4796H7.49279V20.981Z" fill="#6D7384"/>
<path d="M5.99475 20.981H4.49609V22.4796H5.99475V20.981Z" fill="#6D7384"/>
<path d="M4.49572 20.981H2.99707V22.4796H4.49572V20.981Z" fill="#6D7384"/>
<path d="M2.99768 20.981H1.49902V22.4796H2.99768V20.981Z" fill="#646A7A"/>
<path d="M1.49865 20.981H0V22.4796H1.49865V20.981Z" fill="#B3B8C7"/>
<path d="M47.9567 19.4824H46.458V20.9811H47.9567V19.4824Z" fill="#9B9EAD"/>
<path d="M46.4586 19.4824H44.96V20.9811H46.4586V19.4824Z" fill="#717788"/>
<path d="M44.9596 19.4824H43.4609V20.9811H44.9596V19.4824Z" fill="#717788"/>
<path d="M43.4606 19.4824H41.9619V20.9811H43.4606V19.4824Z" fill="#717788"/>
<path d="M41.9625 19.4824H40.4639V20.9811H41.9625V19.4824Z" fill="#717788"/>
<path d="M40.4635 19.4824H38.9648V20.9811H40.4635V19.4824Z" fill="#717788"/>
<path d="M38.9655 19.4824H37.4668V20.9811H38.9655V19.4824Z" fill="#717788"/>
<path d="M37.4664 19.4824H35.9678V20.9811H37.4664V19.4824Z" fill="#717788"/>
<path d="M35.9674 19.4824H34.4688V20.9811H35.9674V19.4824Z" fill="#717788"/>
<path d="M34.4694 19.4824H32.9707V20.9811H34.4694V19.4824Z" fill="#F6F6F8"/>
<path d="M32.9703 19.4824H31.4717V20.9811H32.9703V19.4824Z" fill="white"/>
<path d="M31.4713 19.4824H29.9727V20.9811H31.4713V19.4824Z" fill="white"/>
<path d="M29.9733 19.4824H28.4746V20.9811H29.9733V19.4824Z" fill="white"/>
<path d="M28.4742 19.4824H26.9756V20.9811H28.4742V19.4824Z" fill="#717788"/>
<path d="M26.9762 19.4824H25.4775V20.9811H26.9762V19.4824Z" fill="#717788"/>
<path d="M25.4772 19.4824H23.9785V20.9811H25.4772V19.4824Z" fill="#717788"/>
<path d="M23.9781 19.4824H22.4795V20.9811H23.9781V19.4824Z" fill="#717788"/>
<path d="M22.4801 19.4824H20.9814V20.9811H22.4801V19.4824Z" fill="#717788"/>
<path d="M20.9811 19.4824H19.4824V20.9811H20.9811V19.4824Z" fill="white"/>
<path d="M19.4821 19.4824H17.9834V20.9811H19.4821V19.4824Z" fill="#717788"/>
<path d="M17.984 19.4824H16.4854V20.9811H17.984V19.4824Z" fill="#717788"/>
<path d="M16.485 19.4824H14.9863V20.9811H16.485V19.4824Z" fill="#717788"/>
<path d="M14.9869 19.4824H13.4883V20.9811H14.9869V19.4824Z" fill="#717788"/>
<path d="M13.4879 19.4824H11.9893V20.9811H13.4879V19.4824Z" fill="#717788"/>
<path d="M11.9889 19.4824H10.4902V20.9811H11.9889V19.4824Z" fill="#717788"/>
<path d="M10.4908 19.4824H8.99219V20.9811H10.4908V19.4824Z" fill="#717788"/>
<path d="M8.99182 19.4824H7.49316V20.9811H8.99182V19.4824Z" fill="#717788"/>
<path d="M7.49279 19.4824H5.99414V20.9811H7.49279V19.4824Z" fill="#717788"/>
<path d="M5.99475 19.4824H4.49609V20.9811H5.99475V19.4824Z" fill="#717788"/>
<path d="M4.49572 19.4824H2.99707V20.9811H4.49572V19.4824Z" fill="#717788"/>
<path d="M2.99768 19.4824H1.49902V20.9811H2.99768V19.4824Z" fill="#686E7D"/>
<path d="M1.49865 19.4824H0V20.9811H1.49865V19.4824Z" fill="#B3B8C7"/>
<path d="M47.9567 17.9839H46.458V19.4825H47.9567V17.9839Z" fill="#9EA1B0"/>
<path d="M46.4586 17.9839H44.96V19.4825H46.4586V17.9839Z" fill="#747B8C"/>
<path d="M44.9596 17.9839H43.4609V19.4825H44.9596V17.9839Z" fill="#747B8C"/>
<path d="M43.4606 17.9839H41.9619V19.4825H43.4606V17.9839Z" fill="#747B8C"/>
<path d="M41.9625 17.9839H40.4639V19.4825H41.9625V17.9839Z" fill="#747B8C"/>
<path d="M40.4635 17.9839H38.9648V19.4825H40.4635V17.9839Z" fill="#747B8C"/>
<path d="M38.9655 17.9839H37.4668V19.4825H38.9655V17.9839Z" fill="#747B8C"/>
<path d="M37.4664 17.9839H35.9678V19.4825H37.4664V17.9839Z" fill="#747B8C"/>
<path d="M35.9674 17.9839H34.4688V19.4825H35.9674V17.9839Z" fill="#747B8C"/>
<path d="M34.4694 17.9839H32.9707V19.4825H34.4694V17.9839Z" fill="#747B8C"/>
<path d="M32.9703 17.9839H31.4717V19.4825H32.9703V17.9839Z" fill="#FEFEFF"/>
<path d="M31.4713 17.9839H29.9727V19.4825H31.4713V17.9839Z" fill="white"/>
<path d="M29.9733 17.9839H28.4746V19.4825H29.9733V17.9839Z" fill="white"/>
<path d="M28.4742 17.9839H26.9756V19.4825H28.4742V17.9839Z" fill="#898F9E"/>
<path d="M26.9762 17.9839H25.4775V19.4825H26.9762V17.9839Z" fill="#747B8C"/>
<path d="M25.4772 17.9839H23.9785V19.4825H25.4772V17.9839Z" fill="#747B8C"/>
<path d="M23.9781 17.9839H22.4795V19.4825H23.9781V17.9839Z" fill="#747B8C"/>
<path d="M22.4801 17.9839H20.9814V19.4825H22.4801V17.9839Z" fill="#D0D2D8"/>
<path d="M20.9811 17.9839H19.4824V19.4825H20.9811V17.9839Z" fill="#747B8C"/>
<path d="M19.4821 17.9839H17.9834V19.4825H19.4821V17.9839Z" fill="#747B8C"/>
<path d="M17.984 17.9839H16.4854V19.4825H17.984V17.9839Z" fill="#747B8C"/>
<path d="M16.485 17.9839H14.9863V19.4825H16.485V17.9839Z" fill="#747B8C"/>
<path d="M14.9869 17.9839H13.4883V19.4825H14.9869V17.9839Z" fill="#747B8C"/>
<path d="M13.4879 17.9839H11.9893V19.4825H13.4879V17.9839Z" fill="#747B8C"/>
<path d="M11.9889 17.9839H10.4902V19.4825H11.9889V17.9839Z" fill="#747B8C"/>
<path d="M10.4908 17.9839H8.99219V19.4825H10.4908V17.9839Z" fill="#747B8C"/>
<path d="M8.99182 17.9839H7.49316V19.4825H8.99182V17.9839Z" fill="#747B8C"/>
<path d="M7.49279 17.9839H5.99414V19.4825H7.49279V17.9839Z" fill="#747B8C"/>
<path d="M5.99475 17.9839H4.49609V19.4825H5.99475V17.9839Z" fill="#747B8C"/>
<path d="M4.49572 17.9839H2.99707V19.4825H4.49572V17.9839Z" fill="#6B7181"/>
<path d="M2.99768 17.9839H1.49902V19.4825H2.99768V17.9839Z" fill="#6B7181"/>
<path d="M1.49865 17.9839H0V19.4825H1.49865V17.9839Z" fill="#B3B8C7"/>
<path d="M46.4586 16.4854H44.96V17.984H46.4586V16.4854Z" fill="#A3A6B5"/>
<path d="M44.9596 16.4854H43.4609V17.984H44.9596V16.4854Z" fill="#787E8F"/>
<path d="M43.4606 16.4854H41.9619V17.984H43.4606V16.4854Z" fill="#787E8F"/>
<path d="M41.9625 16.4854H40.4639V17.984H41.9625V16.4854Z" fill="#787E8F"/>
<path d="M40.4635 16.4854H38.9648V17.984H40.4635V16.4854Z" fill="#787E8F"/>
<path d="M38.9655 16.4854H37.4668V17.984H38.9655V16.4854Z" fill="#787E8F"/>
<path d="M37.4664 16.4854H35.9678V17.984H37.4664V16.4854Z" fill="#787E8F"/>
<path d="M35.9674 16.4854H34.4688V17.984H35.9674V16.4854Z" fill="#787E8F"/>
<path d="M34.4694 16.4854H32.9707V17.984H34.4694V16.4854Z" fill="#787E8F"/>
<path d="M32.9703 16.4854H31.4717V17.984H32.9703V16.4854Z" fill="#F0F1F3"/>
<path d="M31.4713 16.4854H29.9727V17.984H31.4713V16.4854Z" fill="white"/>
<path d="M29.9733 16.4854H28.4746V17.984H29.9733V16.4854Z" fill="white"/>
<path d="M28.4742 16.4854H26.9756V17.984H28.4742V16.4854Z" fill="white"/>
<path d="M26.9762 16.4854H25.4775V17.984H26.9762V16.4854Z" fill="#787E8F"/>
<path d="M25.4772 16.4854H23.9785V17.984H25.4772V16.4854Z" fill="#787E8F"/>
<path d="M23.9781 16.4854H22.4795V17.984H23.9781V16.4854Z" fill="#787E8F"/>
<path d="M22.4801 16.4854H20.9814V17.984H22.4801V16.4854Z" fill="white"/>
<path d="M20.9811 16.4854H19.4824V17.984H20.9811V16.4854Z" fill="#787E8F"/>
<path d="M19.4821 16.4854H17.9834V17.984H19.4821V16.4854Z" fill="#787E8F"/>
<path d="M17.984 16.4854H16.4854V17.984H17.984V16.4854Z" fill="#787E8F"/>
<path d="M16.485 16.4854H14.9863V17.984H16.485V16.4854Z" fill="#787E8F"/>
<path d="M14.9869 16.4854H13.4883V17.984H14.9869V16.4854Z" fill="#787E8F"/>
<path d="M13.4879 16.4854H11.9893V17.984H13.4879V16.4854Z" fill="#787E8F"/>
<path d="M11.9889 16.4854H10.4902V17.984H11.9889V16.4854Z" fill="#787E8F"/>
<path d="M10.4908 16.4854H8.99219V17.984H10.4908V16.4854Z" fill="#787E8F"/>
<path d="M8.99182 16.4854H7.49316V17.984H8.99182V16.4854Z" fill="#787E8F"/>
<path d="M7.49279 16.4854H5.99414V17.984H7.49279V16.4854Z" fill="#787E8F"/>
<path d="M5.99475 16.4854H4.49609V17.984H5.99475V16.4854Z" fill="#787E8F"/>
<path d="M4.49572 16.4854H2.99707V17.984H4.49572V16.4854Z" fill="#6F7484"/>
<path d="M2.99768 16.4854H1.49902V17.984H2.99768V16.4854Z" fill="#B3B8C7"/>
<path d="M46.4586 14.9863H44.96V16.485H46.4586V14.9863Z" fill="#A6A9B8"/>
<path d="M44.9596 14.9863H43.4609V16.485H44.9596V14.9863Z" fill="#7A8092"/>
<path d="M43.4606 14.9863H41.9619V16.485H43.4606V14.9863Z" fill="#7A8092"/>
<path d="M41.9625 14.9863H40.4639V16.485H41.9625V14.9863Z" fill="#7A8092"/>
<path d="M40.4635 14.9863H38.9648V16.485H40.4635V14.9863Z" fill="#7A8092"/>
<path d="M38.9655 14.9863H37.4668V16.485H38.9655V14.9863Z" fill="#7A8092"/>
<path d="M37.4664 14.9863H35.9678V16.485H37.4664V14.9863Z" fill="#7A8092"/>
<path d="M35.9674 14.9863H34.4688V16.485H35.9674V14.9863Z" fill="#7A8092"/>
<path d="M34.4694 14.9863H32.9707V16.485H34.4694V14.9863Z" fill="#7A8092"/>
<path d="M32.9703 14.9863H31.4717V16.485H32.9703V14.9863Z" fill="#7A8092"/>
<path d="M31.4713 14.9863H29.9727V16.485H31.4713V14.9863Z" fill="#EDEEF0"/>
<path d="M29.9733 14.9863H28.4746V16.485H29.9733V14.9863Z" fill="#FEFFFF"/>
<path d="M28.4742 14.9863H26.9756V16.485H28.4742V14.9863Z" fill="white"/>
<path d="M26.9762 14.9863H25.4775V16.485H26.9762V14.9863Z" fill="#9196A5"/>
<path d="M25.4772 14.9863H23.9785V16.485H25.4772V14.9863Z" fill="#7A8092"/>
<path d="M23.9781 14.9863H22.4795V16.485H23.9781V14.9863Z" fill="#D2D4DA"/>
<path d="M22.4801 14.9863H20.9814V16.485H22.4801V14.9863Z" fill="#7A8092"/>
<path d="M20.9811 14.9863H19.4824V16.485H20.9811V14.9863Z" fill="#7A8092"/>
<path d="M19.4821 14.9863H17.9834V16.485H19.4821V14.9863Z" fill="#7A8092"/>
<path d="M17.984 14.9863H16.4854V16.485H17.984V14.9863Z" fill="#7A8092"/>
<path d="M16.485 14.9863H14.9863V16.485H16.485V14.9863Z" fill="#7A8092"/>
<path d="M14.9869 14.9863H13.4883V16.485H14.9869V14.9863Z" fill="#7A8092"/>
<path d="M13.4879 14.9863H11.9893V16.485H13.4879V14.9863Z" fill="#7A8092"/>
<path d="M11.9889 14.9863H10.4902V16.485H11.9889V14.9863Z" fill="#7A8092"/>
<path d="M10.4908 14.9863H8.99219V16.485H10.4908V14.9863Z" fill="#7A8092"/>
<path d="M8.99182 14.9863H7.49316V16.485H8.99182V14.9863Z" fill="#7A8092"/>
<path d="M7.49279 14.9863H5.99414V16.485H7.49279V14.9863Z" fill="#7A8092"/>
<path d="M5.99475 14.9863H4.49609V16.485H5.99475V14.9863Z" fill="#7A8092"/>
<path d="M4.49572 14.9863H2.99707V16.485H4.49572V14.9863Z" fill="#707687"/>
<path d="M2.99768 14.9863H1.49902V16.485H2.99768V14.9863Z" fill="#B3B8C7"/>
<path d="M46.4586 13.4878H44.96V14.9864H46.4586V13.4878Z" fill="#A9ADBC"/>
<path d="M44.9596 13.4878H43.4609V14.9864H44.9596V13.4878Z" fill="#7C8294"/>
<path d="M43.4606 13.4878H41.9619V14.9864H43.4606V13.4878Z" fill="#7C8294"/>
<path d="M41.9625 13.4878H40.4639V14.9864H41.9625V13.4878Z" fill="#7C8294"/>
<path d="M40.4635 13.4878H38.9648V14.9864H40.4635V13.4878Z" fill="#7C8294"/>
<path d="M38.9655 13.4878H37.4668V14.9864H38.9655V13.4878Z" fill="#7C8294"/>
<path d="M37.4664 13.4878H35.9678V14.9864H37.4664V13.4878Z" fill="#7C8294"/>
<path d="M35.9674 13.4878H34.4688V14.9864H35.9674V13.4878Z" fill="#7C8294"/>
<path d="M34.4694 13.4878H32.9707V14.9864H34.4694V13.4878Z" fill="#7C8294"/>
<path d="M32.9703 13.4878H31.4717V14.9864H32.9703V13.4878Z" fill="#7C8294"/>
<path d="M31.4713 13.4878H29.9727V14.9864H31.4713V13.4878Z" fill="#7C8294"/>
<path d="M29.9733 13.4878H28.4746V14.9864H29.9733V13.4878Z" fill="#EFF0F2"/>
<path d="M28.4742 13.4878H26.9756V14.9864H28.4742V13.4878Z" fill="white"/>
<path d="M26.9762 13.4878H25.4775V14.9864H26.9762V13.4878Z" fill="white"/>
<path d="M25.4772 13.4878H23.9785V14.9864H25.4772V13.4878Z" fill="#7C8294"/>
<path d="M23.9781 13.4878H22.4795V14.9864H23.9781V13.4878Z" fill="white"/>
<path d="M22.4801 13.4878H20.9814V14.9864H22.4801V13.4878Z" fill="#7C8294"/>
<path d="M20.9811 13.4878H19.4824V14.9864H20.9811V13.4878Z" fill="#7C8294"/>
<path d="M19.4821 13.4878H17.9834V14.9864H19.4821V13.4878Z" fill="#7C8294"/>
<path d="M17.984 13.4878H16.4854V14.9864H17.984V13.4878Z" fill="#7C8294"/>
<path d="M16.485 13.4878H14.9863V14.9864H16.485V13.4878Z" fill="#7C8294"/>
<path d="M14.9869 13.4878H13.4883V14.9864H14.9869V13.4878Z" fill="#7C8294"/>
<path d="M13.4879 13.4878H11.9893V14.9864H13.4879V13.4878Z" fill="#7C8294"/>
<path d="M11.9889 13.4878H10.4902V14.9864H11.9889V13.4878Z" fill="#7C8294"/>
<path d="M10.4908 13.4878H8.99219V14.9864H10.4908V13.4878Z" fill="#7C8294"/>
<path d="M8.99182 13.4878H7.49316V14.9864H8.99182V13.4878Z" fill="#7C8294"/>
<path d="M7.49279 13.4878H5.99414V14.9864H7.49279V13.4878Z" fill="#7C8294"/>
<path d="M5.99475 13.4878H4.49609V14.9864H5.99475V13.4878Z" fill="#727888"/>
<path d="M4.49572 13.4878H2.99707V14.9864H4.49572V13.4878Z" fill="#727888"/>
<path d="M2.99768 13.4878H1.49902V14.9864H2.99768V13.4878Z" fill="#B3B8C7"/>
<path d="M44.9596 11.9893H43.4609V13.4879H44.9596V11.9893Z" fill="#ADB1C0"/>
<path d="M43.4606 11.9893H41.9619V13.4879H43.4606V11.9893Z" fill="#7C8394"/>
<path d="M41.9625 11.9893H40.4639V13.4879H41.9625V11.9893Z" fill="#7C8394"/>
<path d="M40.4635 11.9893H38.9648V13.4879H40.4635V11.9893Z" fill="#7C8394"/>
<path d="M38.9655 11.9893H37.4668V13.4879H38.9655V11.9893Z" fill="#7C8394"/>
<path d="M37.4664 11.9893H35.9678V13.4879H37.4664V11.9893Z" fill="#7C8394"/>
<path d="M35.9674 11.9893H34.4688V13.4879H35.9674V11.9893Z" fill="#7C8394"/>
<path d="M34.4694 11.9893H32.9707V13.4879H34.4694V11.9893Z" fill="#7C8394"/>
<path d="M32.9703 11.9893H31.4717V13.4879H32.9703V11.9893Z" fill="#7C8394"/>
<path d="M31.4713 11.9893H29.9727V13.4879H31.4713V11.9893Z" fill="#7C8394"/>
<path d="M29.9733 11.9893H28.4746V13.4879H29.9733V11.9893Z" fill="#7C8394"/>
<path d="M28.4742 11.9893H26.9756V13.4879H28.4742V11.9893Z" fill="#E8E9EC"/>
<path d="M26.9762 11.9893H25.4775V13.4879H26.9762V11.9893Z" fill="white"/>
<path d="M25.4772 11.9893H23.9785V13.4879H25.4772V11.9893Z" fill="white"/>
<path d="M23.9781 11.9893H22.4795V13.4879H23.9781V11.9893Z" fill="#7C8394"/>
<path d="M22.4801 11.9893H20.9814V13.4879H22.4801V11.9893Z" fill="#7C8394"/>
<path d="M20.9811 11.9893H19.4824V13.4879H20.9811V11.9893Z" fill="#7C8394"/>
<path d="M19.4821 11.9893H17.9834V13.4879H19.4821V11.9893Z" fill="#7C8394"/>
<path d="M17.984 11.9893H16.4854V13.4879H17.984V11.9893Z" fill="#7C8394"/>
<path d="M16.485 11.9893H14.9863V13.4879H16.485V11.9893Z" fill="#7C8394"/>
<path d="M14.9869 11.9893H13.4883V13.4879H14.9869V11.9893Z" fill="#7C8394"/>
<path d="M13.4879 11.9893H11.9893V13.4879H13.4879V11.9893Z" fill="#7C8394"/>
<path d="M11.9889 11.9893H10.4902V13.4879H11.9889V11.9893Z" fill="#7C8394"/>
<path d="M10.4908 11.9893H8.99219V13.4879H10.4908V11.9893Z" fill="#7C8394"/>
<path d="M8.99182 11.9893H7.49316V13.4879H8.99182V11.9893Z" fill="#7C8394"/>
<path d="M7.49279 11.9893H5.99414V13.4879H7.49279V11.9893Z" fill="#7C8394"/>
<path d="M5.99475 11.9893H4.49609V13.4879H5.99475V11.9893Z" fill="#727988"/>
<path d="M4.49572 11.9893H2.99707V13.4879H4.49572V11.9893Z" fill="#B3B8C7"/>
<path d="M44.9596 10.4907H43.4609V11.9894H44.9596V10.4907Z" fill="#B0B4C3"/>
<path d="M43.4606 10.4907H41.9619V11.9894H43.4606V10.4907Z" fill="#7C8394"/>
<path d="M41.9625 10.4907H40.4639V11.9894H41.9625V10.4907Z" fill="#7C8394"/>
<path d="M40.4635 10.4907H38.9648V11.9894H40.4635V10.4907Z" fill="#7C8394"/>
<path d="M38.9655 10.4907H37.4668V11.9894H38.9655V10.4907Z" fill="#7C8394"/>
<path d="M37.4664 10.4907H35.9678V11.9894H37.4664V10.4907Z" fill="#7C8394"/>
<path d="M35.9674 10.4907H34.4688V11.9894H35.9674V10.4907Z" fill="#7C8394"/>
<path d="M34.4694 10.4907H32.9707V11.9894H34.4694V10.4907Z" fill="#7C8394"/>
<path d="M32.9703 10.4907H31.4717V11.9894H32.9703V10.4907Z" fill="#7C8394"/>
<path d="M31.4713 10.4907H29.9727V11.9894H31.4713V10.4907Z" fill="#7C8394"/>
<path d="M29.9733 10.4907H28.4746V11.9894H29.9733V10.4907Z" fill="#7C8394"/>
<path d="M28.4742 10.4907H26.9756V11.9894H28.4742V10.4907Z" fill="#7C8394"/>
<path d="M26.9762 10.4907H25.4775V11.9894H26.9762V10.4907Z" fill="#EAECEE"/>
<path d="M25.4772 10.4907H23.9785V11.9894H25.4772V10.4907Z" fill="white"/>
<path d="M23.9781 10.4907H22.4795V11.9894H23.9781V10.4907Z" fill="#7C8394"/>
<path d="M22.4801 10.4907H20.9814V11.9894H22.4801V10.4907Z" fill="#7C8394"/>
<path d="M20.9811 10.4907H19.4824V11.9894H20.9811V10.4907Z" fill="#7C8394"/>
<path d="M19.4821 10.4907H17.9834V11.9894H19.4821V10.4907Z" fill="#7C8394"/>
<path d="M17.984 10.4907H16.4854V11.9894H17.984V10.4907Z" fill="#7C8394"/>
<path d="M16.485 10.4907H14.9863V11.9894H16.485V10.4907Z" fill="#7C8394"/>
<path d="M14.9869 10.4907H13.4883V11.9894H14.9869V10.4907Z" fill="#7C8394"/>
<path d="M13.4879 10.4907H11.9893V11.9894H13.4879V10.4907Z" fill="#7C8394"/>
<path d="M11.9889 10.4907H10.4902V11.9894H11.9889V10.4907Z" fill="#7C8394"/>
<path d="M10.4908 10.4907H8.99219V11.9894H10.4908V10.4907Z" fill="#7C8394"/>
<path d="M8.99182 10.4907H7.49316V11.9894H8.99182V10.4907Z" fill="#7C8394"/>
<path d="M7.49279 10.4907H5.99414V11.9894H7.49279V10.4907Z" fill="#727988"/>
<path d="M5.99475 10.4907H4.49609V11.9894H5.99475V10.4907Z" fill="#727988"/>
<path d="M4.49572 10.4907H2.99707V11.9894H4.49572V10.4907Z" fill="#B3B8C7"/>
<path d="M43.4606 8.9917H41.9619V10.4904H43.4606V8.9917Z" fill="#B3B7C6"/>
<path d="M41.9625 8.9917H40.4639V10.4904H41.9625V8.9917Z" fill="#7B8192"/>
<path d="M40.4635 8.9917H38.9648V10.4904H40.4635V8.9917Z" fill="#7B8192"/>
<path d="M38.9655 8.9917H37.4668V10.4904H38.9655V8.9917Z" fill="#7B8192"/>
<path d="M37.4664 8.9917H35.9678V10.4904H37.4664V8.9917Z" fill="#7B8192"/>
<path d="M35.9674 8.9917H34.4688V10.4904H35.9674V8.9917Z" fill="#7B8192"/>
<path d="M34.4694 8.9917H32.9707V10.4904H34.4694V8.9917Z" fill="#7B8192"/>
<path d="M32.9703 8.9917H31.4717V10.4904H32.9703V8.9917Z" fill="#7B8192"/>
<path d="M31.4713 8.9917H29.9727V10.4904H31.4713V8.9917Z" fill="#7B8192"/>
<path d="M29.9733 8.9917H28.4746V10.4904H29.9733V8.9917Z" fill="#7B8192"/>
<path d="M28.4742 8.9917H26.9756V10.4904H28.4742V8.9917Z" fill="#7B8192"/>
<path d="M26.9762 8.9917H25.4775V10.4904H26.9762V8.9917Z" fill="#7B8192"/>
<path d="M25.4772 8.9917H23.9785V10.4904H25.4772V8.9917Z" fill="#7B8192"/>
<path d="M23.9781 8.9917H22.4795V10.4904H23.9781V8.9917Z" fill="#7B8192"/>
<path d="M22.4801 8.9917H20.9814V10.4904H22.4801V8.9917Z" fill="#7B8192"/>
<path d="M20.9811 8.9917H19.4824V10.4904H20.9811V8.9917Z" fill="#7B8192"/>
<path d="M19.4821 8.9917H17.9834V10.4904H19.4821V8.9917Z" fill="#7B8192"/>
<path d="M17.984 8.9917H16.4854V10.4904H17.984V8.9917Z" fill="#7B8192"/>
<path d="M16.485 8.9917H14.9863V10.4904H16.485V8.9917Z" fill="#7B8192"/>
<path d="M14.9869 8.9917H13.4883V10.4904H14.9869V8.9917Z" fill="#7B8192"/>
<path d="M13.4879 8.9917H11.9893V10.4904H13.4879V8.9917Z" fill="#7B8192"/>
<path d="M11.9889 8.9917H10.4902V10.4904H11.9889V8.9917Z" fill="#7B8192"/>
<path d="M10.4908 8.9917H8.99219V10.4904H10.4908V8.9917Z" fill="#7B8192"/>
<path d="M8.99182 8.9917H7.49316V10.4904H8.99182V8.9917Z" fill="#717787"/>
<path d="M7.49279 8.9917H5.99414V10.4904H7.49279V8.9917Z" fill="#717787"/>
<path d="M5.99475 8.9917H4.49609V10.4904H5.99475V8.9917Z" fill="#B3B8C7"/>
<path d="M41.9625 7.49316H40.4639V8.99182H41.9625V7.49316Z" fill="#B3B8C7"/>
<path d="M40.4635 7.49316H38.9648V8.99182H40.4635V7.49316Z" fill="#797F8F"/>
<path d="M38.9655 7.49316H37.4668V8.99182H38.9655V7.49316Z" fill="#797F8F"/>
<path d="M37.4664 7.49316H35.9678V8.99182H37.4664V7.49316Z" fill="#797F8F"/>
<path d="M35.9674 7.49316H34.4688V8.99182H35.9674V7.49316Z" fill="#797F8F"/>
<path d="M34.4694 7.49316H32.9707V8.99182H34.4694V7.49316Z" fill="#797F8F"/>
<path d="M32.9703 7.49316H31.4717V8.99182H32.9703V7.49316Z" fill="#797F8F"/>
<path d="M31.4713 7.49316H29.9727V8.99182H31.4713V7.49316Z" fill="#797F8F"/>
<path d="M29.9733 7.49316H28.4746V8.99182H29.9733V7.49316Z" fill="#797F8F"/>
<path d="M28.4742 7.49316H26.9756V8.99182H28.4742V7.49316Z" fill="#797F8F"/>
<path d="M26.9762 7.49316H25.4775V8.99182H26.9762V7.49316Z" fill="#797F8F"/>
<path d="M25.4772 7.49316H23.9785V8.99182H25.4772V7.49316Z" fill="#797F8F"/>
<path d="M23.9781 7.49316H22.4795V8.99182H23.9781V7.49316Z" fill="#797F8F"/>
<path d="M22.4801 7.49316H20.9814V8.99182H22.4801V7.49316Z" fill="#797F8F"/>
<path d="M20.9811 7.49316H19.4824V8.99182H20.9811V7.49316Z" fill="#797F8F"/>
<path d="M19.4821 7.49316H17.9834V8.99182H19.4821V7.49316Z" fill="#797F8F"/>
<path d="M17.984 7.49316H16.4854V8.99182H17.984V7.49316Z" fill="#797F8F"/>
<path d="M16.485 7.49316H14.9863V8.99182H16.485V7.49316Z" fill="#797F8F"/>
<path d="M14.9869 7.49316H13.4883V8.99182H14.9869V7.49316Z" fill="#797F8F"/>
<path d="M13.4879 7.49316H11.9893V8.99182H13.4879V7.49316Z" fill="#797F8F"/>
<path d="M11.9889 7.49316H10.4902V8.99182H11.9889V7.49316Z" fill="#797F8F"/>
<path d="M10.4908 7.49316H8.99219V8.99182H10.4908V7.49316Z" fill="#707584"/>
<path d="M8.99182 7.49316H7.49316V8.99182H8.99182V7.49316Z" fill="#707584"/>
<path d="M7.49279 7.49316H5.99414V8.99182H7.49279V7.49316Z" fill="#B3B8C7"/>
<path d="M40.4635 5.99463H38.9648V7.49328H40.4635V5.99463Z" fill="#B3B8C7"/>
<path d="M38.9655 5.99463H37.4668V7.49328H38.9655V5.99463Z" fill="#767C8D"/>
<path d="M37.4664 5.99463H35.9678V7.49328H37.4664V5.99463Z" fill="#767C8D"/>
<path d="M35.9674 5.99463H34.4688V7.49328H35.9674V5.99463Z" fill="#767C8D"/>
<path d="M34.4694 5.99463H32.9707V7.49328H34.4694V5.99463Z" fill="#767C8D"/>
<path d="M32.9703 5.99463H31.4717V7.49328H32.9703V5.99463Z" fill="#767C8D"/>
<path d="M31.4713 5.99463H29.9727V7.49328H31.4713V5.99463Z" fill="#767C8D"/>
<path d="M29.9733 5.99463H28.4746V7.49328H29.9733V5.99463Z" fill="#767C8D"/>
<path d="M28.4742 5.99463H26.9756V7.49328H28.4742V5.99463Z" fill="#767C8D"/>
<path d="M26.9762 5.99463H25.4775V7.49328H26.9762V5.99463Z" fill="#767C8D"/>
<path d="M25.4772 5.99463H23.9785V7.49328H25.4772V5.99463Z" fill="#767C8D"/>
<path d="M23.9781 5.99463H22.4795V7.49328H23.9781V5.99463Z" fill="#767C8D"/>
<path d="M22.4801 5.99463H20.9814V7.49328H22.4801V5.99463Z" fill="#767C8D"/>
<path d="M20.9811 5.99463H19.4824V7.49328H20.9811V5.99463Z" fill="#767C8D"/>
<path d="M19.4821 5.99463H17.9834V7.49328H19.4821V5.99463Z" fill="#767C8D"/>
<path d="M17.984 5.99463H16.4854V7.49328H17.984V5.99463Z" fill="#767C8D"/>
<path d="M16.485 5.99463H14.9863V7.49328H16.485V5.99463Z" fill="#767C8D"/>
<path d="M14.9869 5.99463H13.4883V7.49328H14.9869V5.99463Z" fill="#767C8D"/>
<path d="M13.4879 5.99463H11.9893V7.49328H13.4879V5.99463Z" fill="#767C8D"/>
<path d="M11.9889 5.99463H10.4902V7.49328H11.9889V5.99463Z" fill="#6D7282"/>
<path d="M10.4908 5.99463H8.99219V7.49328H10.4908V5.99463Z" fill="#6D7282"/>
<path d="M8.99182 5.99463H7.49316V7.49328H8.99182V5.99463Z" fill="#B3B8C7"/>
<path d="M38.9655 4.49609H37.4668V5.99475H38.9655V4.49609Z" fill="#B3B8C7"/>
<path d="M37.4664 4.49609H35.9678V5.99475H37.4664V4.49609Z" fill="#6B707F"/>
<path d="M35.9674 4.49609H34.4688V5.99475H35.9674V4.49609Z" fill="#74798A"/>
<path d="M34.4694 4.49609H32.9707V5.99475H34.4694V4.49609Z" fill="#74798A"/>
<path d="M32.9703 4.49609H31.4717V5.99475H32.9703V4.49609Z" fill="#74798A"/>
<path d="M31.4713 4.49609H29.9727V5.99475H31.4713V4.49609Z" fill="#74798A"/>
<path d="M29.9733 4.49609H28.4746V5.99475H29.9733V4.49609Z" fill="#74798A"/>
<path d="M28.4742 4.49609H26.9756V5.99475H28.4742V4.49609Z" fill="#74798A"/>
<path d="M26.9762 4.49609H25.4775V5.99475H26.9762V4.49609Z" fill="#74798A"/>
<path d="M25.4772 4.49609H23.9785V5.99475H25.4772V4.49609Z" fill="#74798A"/>
<path d="M23.9781 4.49609H22.4795V5.99475H23.9781V4.49609Z" fill="#74798A"/>
<path d="M22.4801 4.49609H20.9814V5.99475H22.4801V4.49609Z" fill="#74798A"/>
<path d="M20.9811 4.49609H19.4824V5.99475H20.9811V4.49609Z" fill="#74798A"/>
<path d="M19.4821 4.49609H17.9834V5.99475H19.4821V4.49609Z" fill="#74798A"/>
<path d="M17.984 4.49609H16.4854V5.99475H17.984V4.49609Z" fill="#74798A"/>
<path d="M16.485 4.49609H14.9863V5.99475H16.485V4.49609Z" fill="#74798A"/>
<path d="M14.9869 4.49609H13.4883V5.99475H14.9869V4.49609Z" fill="#6B707F"/>
<path d="M13.4879 4.49609H11.9893V5.99475H13.4879V4.49609Z" fill="#6B707F"/>
<path d="M11.9889 4.49609H10.4902V5.99475H11.9889V4.49609Z" fill="#6B707F"/>
<path d="M10.4908 4.49609H8.99219V5.99475H10.4908V4.49609Z" fill="#B3B8C7"/>
<path d="M37.4664 2.99707H35.9678V4.49572H37.4664V2.99707Z" fill="#B3B8C7"/>
<path d="M35.9674 2.99707H34.4688V4.49572H35.9674V2.99707Z" fill="#B3B8C7"/>
<path d="M34.4694 2.99707H32.9707V4.49572H34.4694V2.99707Z" fill="#686E7C"/>
<path d="M32.9703 2.99707H31.4717V4.49572H32.9703V2.99707Z" fill="#686E7C"/>
<path d="M31.4713 2.99707H29.9727V4.49572H31.4713V2.99707Z" fill="#717787"/>
<path d="M29.9733 2.99707H28.4746V4.49572H29.9733V2.99707Z" fill="#717787"/>
<path d="M28.4742 2.99707H26.9756V4.49572H28.4742V2.99707Z" fill="#717787"/>
<path d="M26.9762 2.99707H25.4775V4.49572H26.9762V2.99707Z" fill="#717787"/>
<path d="M25.4772 2.99707H23.9785V4.49572H25.4772V2.99707Z" fill="#717787"/>
<path d="M23.9781 2.99707H22.4795V4.49572H23.9781V2.99707Z" fill="#717787"/>
<path d="M22.4801 2.99707H20.9814V4.49572H22.4801V2.99707Z" fill="#717787"/>
<path d="M20.9811 2.99707H19.4824V4.49572H20.9811V2.99707Z" fill="#717787"/>
<path d="M19.4821 2.99707H17.9834V4.49572H19.4821V2.99707Z" fill="#686E7C"/>
<path d="M17.984 2.99707H16.4854V4.49572H17.984V2.99707Z" fill="#686E7C"/>
<path d="M16.485 2.99707H14.9863V4.49572H16.485V2.99707Z" fill="#686E7C"/>
<path d="M14.9869 2.99707H13.4883V4.49572H14.9869V2.99707Z" fill="#686E7C"/>
<path d="M13.4879 2.99707H11.9893V4.49572H13.4879V2.99707Z" fill="#B3B8C7"/>
<path d="M11.9889 2.99707H10.4902V4.49572H11.9889V2.99707Z" fill="#B3B8C7"/>
<path d="M34.4694 1.49854H32.9707V2.99719H34.4694V1.49854Z" fill="#B3B8C7"/>
<path d="M32.9703 1.49854H31.4717V2.99719H32.9703V1.49854Z" fill="#B3B8C7"/>
<path d="M31.4713 1.49854H29.9727V2.99719H31.4713V1.49854Z" fill="#B3B8C7"/>
<path d="M29.9733 1.49854H28.4746V2.99719H29.9733V1.49854Z" fill="#666C7B"/>
<path d="M28.4742 1.49854H26.9756V2.99719H28.4742V1.49854Z" fill="#666C7B"/>
<path d="M26.9762 1.49854H25.4775V2.99719H26.9762V1.49854Z" fill="#666C7B"/>
<path d="M25.4772 1.49854H23.9785V2.99719H25.4772V1.49854Z" fill="#666C7B"/>
<path d="M23.9781 1.49854H22.4795V2.99719H23.9781V1.49854Z" fill="#666C7B"/>
<path d="M22.4801 1.49854H20.9814V2.99719H22.4801V1.49854Z" fill="#666C7B"/>
<path d="M20.9811 1.49854H19.4824V2.99719H20.9811V1.49854Z" fill="#666C7B"/>
<path d="M19.4821 1.49854H17.9834V2.99719H19.4821V1.49854Z" fill="#666C7B"/>
<path d="M17.984 1.49854H16.4854V2.99719H17.984V1.49854Z" fill="#B3B8C7"/>
<path d="M16.485 1.49854H14.9863V2.99719H16.485V1.49854Z" fill="#B3B8C7"/>
<path d="M14.9869 1.49854H13.4883V2.99719H14.9869V1.49854Z" fill="#B3B8C7"/>
<path d="M29.9733 0H28.4746V1.49865H29.9733V0Z" fill="#B3B8C7"/>
<path d="M28.4742 0H26.9756V1.49865H28.4742V0Z" fill="#B3B8C7"/>
<path d="M26.9762 0H25.4775V1.49865H26.9762V0Z" fill="#B3B8C7"/>
<path d="M25.4772 0H23.9785V1.49865H25.4772V0Z" fill="#B3B8C7"/>
<path d="M23.9781 0H22.4795V1.49865H23.9781V0Z" fill="#B3B8C7"/>
<path d="M22.4801 0H20.9814V1.49865H22.4801V0Z" fill="#B3B8C7"/>
<path d="M20.9811 0H19.4824V1.49865H20.9811V0Z" fill="#B3B8C7"/>
<path d="M19.4821 0H17.9834V1.49865H19.4821V0Z" fill="#B3B8C7"/>
<g opacity="0.4">
<path d="M31.4713 46.4585H29.9727V47.9571H31.4713V46.4585Z" fill="#808290"/>
<path d="M17.984 46.4585H16.4854V47.9571H17.984V46.4585Z" fill="#808290"/>
<path d="M35.9674 44.9595H34.4688V46.4581H35.9674V44.9595Z" fill="#808290"/>
<path d="M13.4879 44.9595H11.9893V46.4581H13.4879V44.9595Z" fill="#808290"/>
<path d="M38.9655 43.4609H37.4668V44.9596H38.9655V43.4609Z" fill="#808290"/>
<path d="M10.4908 43.4609H8.99219V44.9596H10.4908V43.4609Z" fill="#808290"/>
<path d="M40.4635 41.9624H38.9648V43.4611H40.4635V41.9624Z" fill="#808290"/>
<path d="M8.99182 41.9624H7.49316V43.4611H8.99182V41.9624Z" fill="#808290"/>
<path d="M41.9625 40.4639H40.4639V41.9625H41.9625V40.4639Z" fill="#808290"/>
<path d="M7.49279 40.4639H5.99414V41.9625H7.49279V40.4639Z" fill="#808290"/>
<path d="M43.4606 38.9648H41.9619V40.4635H43.4606V38.9648Z" fill="#808290"/>
<path d="M5.99475 38.9648H4.49609V40.4635H5.99475V38.9648Z" fill="#808290"/>
<path d="M44.9596 37.4663H43.4609V38.965H44.9596V37.4663Z" fill="#808290"/>
<path d="M4.49572 37.4663H2.99707V38.965H4.49572V37.4663Z" fill="#808290"/>
<path d="M46.4586 34.4692H44.96V35.9679H46.4586V34.4692Z" fill="#808290"/>
<path d="M2.99768 34.4692H1.49902V35.9679H2.99768V34.4692Z" fill="#808290"/>
<path d="M47.9567 29.9731H46.458V31.4718H47.9567V29.9731Z" fill="#808290"/>
<path d="M1.49865 29.9731H0V31.4718H1.49865V29.9731Z" fill="#808290"/>
</g>
<g opacity="0.36">
<path d="M47.9567 16.4854H46.458V17.984H47.9567V16.4854Z" fill="#B3B8C7"/>
<path d="M46.4586 11.9893H44.96V13.4879H46.4586V11.9893Z" fill="#B3B8C7"/>
<path d="M1.49865 16.4854H0V17.984H1.49865V16.4854Z" fill="#B3B8C7"/>
<path d="M2.99768 11.9893H1.49902V13.4879H2.99768V11.9893Z" fill="#B3B8C7"/>
<path d="M44.9596 8.9917H43.4609V10.4904H44.9596V8.9917Z" fill="#B3B8C7"/>
<path d="M4.49572 8.9917H2.99707V10.4904H4.49572V8.9917Z" fill="#B3B8C7"/>
<path d="M43.4606 7.49316H41.9619V8.99182H43.4606V7.49316Z" fill="#B3B8C7"/>
<path d="M5.99475 7.49316H4.49609V8.99182H5.99475V7.49316Z" fill="#B3B8C7"/>
<path d="M41.9625 5.99463H40.4639V7.49328H41.9625V5.99463Z" fill="#B3B8C7"/>
<path d="M7.49279 5.99463H5.99414V7.49328H7.49279V5.99463Z" fill="#B3B8C7"/>
<path d="M40.4635 4.49609H38.9648V5.99475H40.4635V4.49609Z" fill="#B3B8C7"/>
<path d="M8.99182 4.49609H7.49316V5.99475H8.99182V4.49609Z" fill="#B3B8C7"/>
<path d="M38.9655 2.99707H37.4668V4.49572H38.9655V2.99707Z" fill="#B3B8C7"/>
<path d="M10.4908 2.99707H8.99219V4.49572H10.4908V2.99707Z" fill="#B3B8C7"/>
<path d="M35.9674 1.49854H34.4688V2.99719H35.9674V1.49854Z" fill="#B3B8C7"/>
<path d="M13.4879 1.49854H11.9893V2.99719H13.4879V1.49854Z" fill="#B3B8C7"/>
<path d="M31.4713 0H29.9727V1.49865H31.4713V0Z" fill="#B3B8C7"/>
<path d="M17.984 0H16.4854V1.49865H17.984V0Z" fill="#B3B8C7"/>
</g>
</g>
</g>
<defs>
<clipPath id="clip0_216_14819">
<rect width="256" height="47.9569" fill="white"/>
</clipPath>
<clipPath id="clip1_216_14819">
<rect width="47.9569" height="47.9569" fill="white"/>
</clipPath>
</defs>
</svg>
