<svg xmlns="http://www.w3.org/2000/svg" id="Calque_1" data-name="Calque 1" viewBox="0 0 246.22 238.68">
  <defs>
    <style>
      .cls-2 {
        fill: #f6f8f9
      }

      .cls-3 {
        fill: #6a7979
      }

      .cls-4 {
        fill: #040404
      }

      .cls-6 {
        fill: #e3e2ea
      }

      .cls-7 {
        fill: #e8e9ea
      }

      .cls-8 {
        fill: #fff
      }

      .cls-9 {
        fill: #f1f1f4
      }

      .cls-11 {
        fill: #fbfbfc
      }

      .cls-12 {
        fill: #e5e6f0
      }

      .cls-13 {
        fill: #993c4d
      }

      .cls-15 {
        fill: #b75868
      }

      .cls-16 {
        fill: #b8b8d2
      }

      .cls-18 {
        fill: #c2c5c9
      }

      .cls-19 {
        fill: #913648
      }

      .cls-20 {
        fill: #babad4
      }

      .cls-23 {
        fill: #8d8f92
      }

      .cls-25 {
        fill: #313c3d
      }

      .cls-26 {
        fill: #8d3748
      }

      .cls-27 {
        fill: #cdced1
      }

      .cls-28 {
        fill: #b1b5b8
      }

      .cls-29 {
        fill: #a4a5a9
      }

      .cls-32 {
        fill: #d8d8db
      }

      .cls-33 {
        fill: #bbbbc2
      }

      .cls-35 {
        fill: #c7c8cb
      }

      .cls-36 {
        fill: #dcdbe0
      }

      .cls-37 {
        fill: #dbdadf
      }

      .cls-38 {
        fill: #d3d3d6
      }

      .cls-39 {
        fill: #c8cacf
      }

      .cls-40 {
        fill: #d5d7d9
      }

      .cls-41 {
        fill: #172222
      }

      .cls-44 {
        fill: #1e292a
      }

      .cls-45 {
        fill: #131919
      }

      .cls-47 {
        fill: #43524e
      }

      .cls-48 {
        fill: #434f52
      }

      .cls-49 {
        fill: #090a0a
      }

      .cls-50 {
        fill: #080808
      }

      .cls-52 {
        fill: #1c252e
      }

      .cls-54 {
        fill: #374543
      }

      .cls-56 {
        fill: #445150
      }

      .cls-57 {
        fill: #0a0a0a
      }

      .cls-58 {
        fill: #707980
      }

      .cls-60 {
        fill: #565f62
      }

      .cls-61 {
        fill: #293334
      }

      .cls-62 {
        fill: #263234
      }

      .cls-63 {
        fill: #2e403b
      }

      .cls-65 {
        fill: #591e29
      }

      .cls-66 {
        fill: #828990
      }

      .cls-67 {
        fill: #4d5856
      }

      .cls-68 {
        fill: #757b83
      }

      .cls-69 {
        fill: #4e6360
      }
    </style>
  </defs>
  <path d="M100.5 0h-6.28v7.54h6.28V0ZM108.04 0h-7.54v7.54h7.54V0Z" class="cls-50" />
  <path d="M115.57 0h-7.54v7.54h7.54V0ZM123.11 0h-7.54v7.54h7.54V0Z" class="cls-50" />
  <path d="M129.39 0h-6.28v7.54h7.54V0h-1.26Z" class="cls-50" />
  <path d="M136.93 0h-7.54v7.54h7.54V0ZM144.47 0h-7.54v7.54h7.54V0Z" class="cls-50" />
  <path d="M152 0h-7.54v7.54H152V0Z" class="cls-50" />
  <path d="M158.28 0h-7.54v7.54h7.54V0ZM79.14 7.54H71.6v7.54h7.54V7.54ZM86.68 7.54h-7.54v7.54h7.54V7.54Z"
    class="cls-50" />
  <path d="M94.22 7.54h-7.54v7.54h7.54V7.54Z" style="fill:#1c2525" />
  <path d="M100.5 7.54h-6.28v7.54h6.28V7.54ZM108.04 7.54h-7.54v7.54h7.54V7.54Z" class="cls-60" />
  <path d="M115.57 7.54h-7.54v7.54h7.54V7.54Z" class="cls-3" />
  <path d="M123.11 7.54h-7.54v7.54h7.54V7.54Z" class="cls-66" />
  <path d="M129.39 7.54h-6.28v7.54h7.54V7.54h-1.26Z" class="cls-66" />
  <path d="M136.93 7.54h-7.54v7.54h7.54V7.54ZM144.47 7.54h-7.54v7.54h7.54V7.54Z" class="cls-66" />
  <path d="M152 7.54h-7.54v7.54H152V7.54Z" class="cls-66" />
  <path d="M158.28 7.54h-7.54v7.54h7.54V7.54Z" class="cls-66" />
  <path d="M165.82 7.54h-7.54v7.54h7.54V7.54Z" class="cls-50" />
  <path d="M173.36 7.54h-7.54v7.54h7.54V7.54Z" class="cls-4" />
  <path d="M65.32 15.07h-7.54v7.54h7.54v-7.54ZM71.6 15.07h-6.28v7.54h7.54v-7.54H71.6Z" class="cls-50" />
  <path d="M79.14 15.07H71.6v7.54h7.54v-7.54ZM86.68 15.07h-7.54v7.54h7.54v-7.54Z" class="cls-60" />
  <path d="M94.22 15.07h-7.54v7.54h7.54v-7.54Z" class="cls-48" />
  <path d="M100.5 15.07h-6.28v7.54h6.28v-7.54ZM108.04 15.07h-7.54v7.54h7.54v-7.54Z" class="cls-28" />
  <path d="M115.57 15.07h-7.54v7.54h7.54v-7.54ZM123.11 15.07h-7.54v7.54h7.54v-7.54Z" class="cls-39" />
  <path d="M129.39 15.07h-6.28v7.54h7.54v-7.54h-1.26Z" class="cls-39" />
  <path d="M136.93 15.07h-7.54v7.54h7.54v-7.54ZM144.47 15.07h-7.54v7.54h7.54v-7.54Z" class="cls-39" />
  <path d="M152 15.07h-7.54v7.54H152v-7.54Z" class="cls-39" />
  <path d="M158.28 15.07h-7.54v7.54h7.54v-7.54Z" class="cls-39" />
  <path d="M165.82 15.07h-7.54v7.54h7.54v-7.54ZM173.36 15.07h-7.54v7.54h7.54v-7.54Z" class="cls-3" />
  <path d="M180.9 15.07h-7.54v7.54h7.54v-7.54Z" class="cls-4" />
  <path d="M187.18 15.07h-7.54v7.54h7.54v-7.54Z" class="cls-4" />
  <path d="M65.32 21.36h-7.54v7.54h7.54v-7.54ZM71.6 21.36h-6.28v7.54h7.54v-7.54H71.6Z" class="cls-58" />
  <path d="M79.14 21.36H71.6v7.54h7.54v-7.54ZM86.68 21.36h-7.54v7.54h7.54v-7.54Z" class="cls-56" />
  <path d="M94.22 21.36h-7.54v7.54h7.54v-7.54ZM100.5 21.36h-6.28v7.54h6.28v-7.54ZM108.04 21.36h-7.54v7.54h7.54v-7.54Z"
    class="cls-39" />
  <path d="M115.57 21.36h-7.54v7.54h7.54v-7.54Z" class="cls-50" />
  <path d="M123.11 21.36h-7.54v7.54h7.54v-7.54Z" class="cls-4" />
  <path d="M129.39 21.36h-6.28v7.54h7.54v-7.54h-1.26Z" class="cls-4" />
  <path d="M136.93 21.36h-7.54v7.54h7.54v-7.54ZM144.47 21.36h-7.54v7.54h7.54v-7.54Z" class="cls-4" />
  <path d="M152 21.36h-7.54v7.54H152v-7.54Z" class="cls-4" />
  <path d="M158.28 21.36h-7.54v7.54h7.54v-7.54Z" class="cls-4" />
  <path d="M165.82 21.36h-7.54v7.54h7.54v-7.54ZM173.36 21.36h-7.54v7.54h7.54v-7.54ZM180.9 21.36h-7.54v7.54h7.54v-7.54Z"
    class="cls-39" />
  <path d="M187.18 21.36h-7.54v7.54h7.54v-7.54Z" class="cls-39" />
  <path d="M194.72 21.36h-7.54v7.54h7.54v-7.54Z" class="cls-50" />
  <path d="M202.25 21.36h-7.54v7.54h7.54v-7.54ZM42.71 28.89h-6.28v7.54h7.54v-7.54h-1.26Z" class="cls-50" />
  <path d="M50.25 28.89h-7.54v7.54h7.54v-7.54Z" class="cls-44" />
  <path d="M65.32 28.89h-7.54v7.54h7.54v-7.54ZM71.6 28.89h-6.28v7.54h7.54v-7.54H71.6Z" class="cls-67" />
  <path d="M79.14 28.89H71.6v7.54h7.54v-7.54ZM86.68 28.89h-7.54v7.54h7.54v-7.54Z" class="cls-11" />
  <path d="M94.22 28.89h-7.54v7.54h7.54v-7.54ZM100.5 28.89h-6.28v7.54h6.28v-7.54ZM108.04 28.89h-7.54v7.54h7.54v-7.54Z"
    class="cls-57" />
  <path d="M115.57 28.89h-7.54v7.54h7.54v-7.54ZM123.11 28.89h-7.54v7.54h7.54v-7.54Z" class="cls-19" />
  <path d="M129.39 28.89h-6.28v7.54h7.54v-7.54h-1.26Z" class="cls-19" />
  <path d="M136.93 28.89h-7.54v7.54h7.54v-7.54ZM144.47 28.89h-7.54v7.54h7.54v-7.54Z" class="cls-19" />
  <path d="M152 28.89h-7.54v7.54H152v-7.54Z" class="cls-19" />
  <path d="M158.28 28.89h-7.54v7.54h7.54v-7.54Z" class="cls-19" />
  <path d="M165.82 28.89h-7.54v7.54h7.54v-7.54ZM173.36 28.89h-7.54v7.54h7.54v-7.54ZM180.9 28.89h-7.54v7.54h7.54v-7.54Z"
    class="cls-4" />
  <path d="M187.18 28.89h-7.54v7.54h7.54v-7.54ZM194.72 28.89h-7.54v7.54h7.54v-7.54Z" class="cls-39" />
  <path d="M202.25 28.89h-7.54v7.54h7.54v-7.54Z" class="cls-39" />
  <path d="M209.79 28.89h-7.54v7.54h7.54v-7.54ZM36.43 36.43h-7.54v7.54h7.54v-7.54Z" class="cls-50" />
  <path d="M42.71 36.43h-6.28v7.54h7.54v-7.54h-1.26Z" class="cls-66" />
  <path d="M50.25 36.43h-7.54v7.54h7.54v-7.54Z" class="cls-35" />
  <path d="M65.32 36.43h-7.54v7.54h7.54v-7.54Z" class="cls-38" />
  <path d="M71.6 36.43h-6.28v7.54h7.54v-7.54H71.6Z" class="cls-11" />
  <path d="M79.14 36.43H71.6v7.54h7.54v-7.54ZM86.68 36.43h-7.54v7.54h7.54v-7.54Z" class="cls-57" />
  <path d="M94.22 36.43h-7.54v7.54h7.54v-7.54ZM100.5 36.43h-6.28v7.54h6.28v-7.54ZM108.04 36.43h-7.54v7.54h7.54v-7.54Z"
    class="cls-19" />
  <path d="M115.57 36.43h-7.54v7.54h7.54v-7.54ZM123.11 36.43h-7.54v7.54h7.54v-7.54Z" class="cls-15" />
  <path d="M129.39 36.43h-6.28v7.54h7.54v-7.54h-1.26Z" class="cls-15" />
  <path d="M136.93 36.43h-7.54v7.54h7.54v-7.54ZM144.47 36.43h-7.54v7.54h7.54v-7.54Z" class="cls-15" />
  <path d="M152 36.43h-7.54v7.54H152v-7.54Z" class="cls-15" />
  <path d="M158.28 36.43h-7.54v7.54h7.54v-7.54Z" class="cls-15" />
  <path d="M165.82 36.43h-7.54v7.54h7.54v-7.54Z" class="cls-19" />
  <path d="M173.36 36.43h-7.54v7.54h7.54v-7.54ZM180.9 36.43h-7.54v7.54h7.54v-7.54Z" class="cls-15" />
  <path d="M187.18 36.43h-7.54v7.54h7.54v-7.54Z" class="cls-19" />
  <path d="M194.72 36.43h-7.54v7.54h7.54v-7.54Z" class="cls-4" />
  <path d="M202.25 36.43h-7.54v7.54h7.54v-7.54ZM209.79 36.43h-7.54v7.54h7.54v-7.54Z" class="cls-39" />
  <path d="M216.07 36.43h-7.54v7.54h7.54v-7.54ZM28.89 43.97h-7.54v6.28h7.54v-6.28Z" class="cls-50" />
  <path d="M36.43 43.97h-7.54v6.28h7.54v-6.28ZM42.71 43.97h-6.28v6.28h7.54v-6.28h-1.26Z" class="cls-35" />
  <path d="M50.25 43.97h-7.54v6.28h7.54v-6.28Z" class="cls-56" />
  <path d="M65.32 43.97h-7.54v6.28h7.54v-6.28Z" class="cls-27" />
  <path d="M71.6 43.97h-6.28v6.28h7.54v-6.28H71.6Z" class="cls-57" />
  <path d="M79.14 43.97H71.6v6.28h7.54v-6.28Z" class="cls-19" />
  <path d="M86.68 43.97h-7.54v6.28h7.54v-6.28Z" class="cls-15" />
  <path d="M94.22 43.97h-7.54v6.28h7.54v-6.28ZM100.5 43.97h-6.28v6.28h6.28v-6.28ZM108.04 43.97h-7.54v6.28h7.54v-6.28Z"
    class="cls-15" />
  <path d="M115.57 43.97h-7.54v6.28h7.54v-6.28ZM123.11 43.97h-7.54v6.28h7.54v-6.28Z" class="cls-15" />
  <path d="M129.39 43.97h-6.28v6.28h7.54v-6.28h-1.26Z" class="cls-15" />
  <path d="M136.93 43.97h-7.54v6.28h7.54v-6.28ZM144.47 43.97h-7.54v6.28h7.54v-6.28Z" class="cls-15" />
  <path d="M152 43.97h-7.54v6.28H152v-6.28Z" class="cls-15" />
  <path
    d="M158.28 43.97h-7.54v6.28h7.54v-6.28ZM165.82 43.97h-7.54v6.28h7.54v-6.28ZM173.36 43.97h-7.54v6.28h7.54v-6.28ZM180.9 43.97h-7.54v6.28h7.54v-6.28Z"
    class="cls-15" />
  <path d="M187.18 43.97h-7.54v6.28h7.54v-6.28Z" class="cls-15" />
  <path d="M194.72 43.97h-7.54v6.28h7.54v-6.28Z" class="cls-19" />
  <path d="M202.25 43.97h-7.54v6.28h7.54v-6.28Z" class="cls-4" />
  <path d="M209.79 43.97h-7.54v6.28h7.54v-6.28Z" class="cls-39" />
  <path d="M216.07 43.97h-7.54v6.28h7.54v-6.28Z" class="cls-39" />
  <path d="M223.61 43.97h-7.54v6.28h7.54v-6.28ZM28.89 50.25h-7.54v7.54h7.54v-7.54Z" class="cls-50" />
  <path d="M36.43 50.25h-7.54v7.54h7.54v-7.54Z" class="cls-35" />
  <path d="M42.71 50.25h-6.28v7.54h7.54v-7.54h-1.26Z" style="fill:#384544" />
  <path d="M50.25 50.25h-7.54v7.54h7.54v-7.54Z" class="cls-38" />
  <path d="M65.32 50.25h-7.54v7.54h7.54v-7.54Z" class="cls-50" />
  <path d="M71.6 50.25h-6.28v7.54h7.54v-7.54H71.6Z" class="cls-19" />
  <path d="M79.14 50.25H71.6v7.54h7.54v-7.54ZM86.68 50.25h-7.54v7.54h7.54v-7.54Z" class="cls-15" />
  <path d="M94.22 50.25h-7.54v7.54h7.54v-7.54ZM100.5 50.25h-6.28v7.54h6.28v-7.54ZM108.04 50.25h-7.54v7.54h7.54v-7.54Z"
    class="cls-15" />
  <path d="M115.57 50.25h-7.54v7.54h7.54v-7.54ZM123.11 50.25h-7.54v7.54h7.54v-7.54Z" class="cls-12" />
  <path d="M129.39 50.25h-6.28v7.54h7.54v-7.54h-1.26Z" class="cls-12" />
  <path d="M136.93 50.25h-7.54v7.54h7.54v-7.54ZM144.47 50.25h-7.54v7.54h7.54v-7.54Z" class="cls-12" />
  <path d="M152 50.25h-7.54v7.54H152v-7.54Z" class="cls-12" />
  <path d="M158.28 50.25h-7.54v7.54h7.54v-7.54Z" class="cls-12" />
  <path d="M165.82 50.25h-7.54v7.54h7.54v-7.54ZM173.36 50.25h-7.54v7.54h7.54v-7.54ZM180.9 50.25h-7.54v7.54h7.54v-7.54Z"
    class="cls-15" />
  <path d="M187.18 50.25h-7.54v7.54h7.54v-7.54ZM194.72 50.25h-7.54v7.54h7.54v-7.54Z" class="cls-15" />
  <path d="M202.25 50.25h-7.54v7.54h7.54v-7.54Z" class="cls-19" />
  <path d="M209.79 50.25h-7.54v7.54h7.54v-7.54Z" class="cls-4" />
  <path d="M216.07 50.25h-7.54v7.54h7.54v-7.54Z" class="cls-39" />
  <path d="M223.61 50.25h-7.54v7.54h7.54v-7.54Z" style="fill:#313b3c" />
  <path d="M21.36 57.79h-7.54v7.54h7.54v-7.54Z" class="cls-50" />
  <path d="M28.89 57.79h-7.54v7.54h7.54v-7.54Z" class="cls-35" />
  <path d="M36.43 57.79h-7.54v7.54h7.54v-7.54Z" class="cls-69" />
  <path d="M42.71 57.79h-6.28v7.54h7.54v-7.54h-1.26Z" class="cls-37" />
  <path d="M50.25 57.79h-7.54v7.54h7.54v-7.54Z" class="cls-37" />
  <path d="M65.32 57.79h-7.54v7.54h7.54v-7.54Z" class="cls-19" />
  <path d="M71.6 57.79h-6.28v7.54h7.54v-7.54H71.6Z" class="cls-15" />
  <path d="M79.14 57.79H71.6v7.54h7.54v-7.54ZM86.68 57.79h-7.54v7.54h7.54v-7.54Z" class="cls-15" />
  <path d="M94.22 57.79h-7.54v7.54h7.54v-7.54ZM100.5 57.79h-6.28v7.54h6.28v-7.54ZM108.04 57.79h-7.54v7.54h7.54v-7.54Z"
    class="cls-15" />
  <path d="M115.57 57.79h-7.54v7.54h7.54v-7.54ZM123.11 57.79h-7.54v7.54h7.54v-7.54Z" class="cls-12" />
  <path d="M129.39 57.79h-6.28v7.54h7.54v-7.54h-1.26Z" class="cls-12" />
  <path d="M136.93 57.79h-7.54v7.54h7.54v-7.54ZM144.47 57.79h-7.54v7.54h7.54v-7.54Z" class="cls-12" />
  <path d="M152 57.79h-7.54v7.54H152v-7.54Z" class="cls-12" />
  <path d="M158.28 57.79h-7.54v7.54h7.54v-7.54Z" class="cls-12" />
  <path d="M165.82 57.79h-7.54v7.54h7.54v-7.54ZM173.36 57.79h-7.54v7.54h7.54v-7.54ZM180.9 57.79h-7.54v7.54h7.54v-7.54Z"
    class="cls-15" />
  <path d="M187.18 57.79h-7.54v7.54h7.54v-7.54ZM194.72 57.79h-7.54v7.54h7.54v-7.54Z" class="cls-15" />
  <path d="M202.25 57.79h-7.54v7.54h7.54v-7.54Z" class="cls-15" />
  <path d="M209.79 57.79h-7.54v7.54h7.54v-7.54Z" class="cls-19" />
  <path d="M216.07 57.79h-7.54v7.54h7.54v-7.54Z" class="cls-47" />
  <path d="M223.61 57.79h-7.54v7.54h7.54v-7.54Z" class="cls-6" />
  <path d="M231.15 57.79h-7.54v7.54h7.54v-7.54Z" class="cls-50" />
  <path d="M21.36 65.32h-7.54v7.54h7.54v-7.54Z" class="cls-45" />
  <path d="M28.89 65.32h-7.54v7.54h7.54v-7.54Z" class="cls-35" />
  <path d="M36.43 65.32h-7.54v7.54h7.54v-7.54Z" class="cls-69" />
  <path d="M42.71 65.32h-6.28v7.54h7.54v-7.54h-1.26Z" class="cls-37" />
  <path d="M50.25 65.32h-7.54v7.54h7.54v-7.54Z" class="cls-37" />
  <path d="M65.32 65.32h-7.54v7.54h7.54v-7.54ZM71.6 65.32h-6.28v7.54h7.54v-7.54H71.6Z" class="cls-15" />
  <path d="M79.14 65.32H71.6v7.54h7.54v-7.54ZM86.68 65.32h-7.54v7.54h7.54v-7.54Z" class="cls-15" />
  <path d="M94.22 65.32h-7.54v7.54h7.54v-7.54ZM100.5 65.32h-6.28v7.54h6.28v-7.54ZM108.04 65.32h-7.54v7.54h7.54v-7.54Z"
    class="cls-15" />
  <path d="M115.57 65.32h-7.54v7.54h7.54v-7.54ZM123.11 65.32h-7.54v7.54h7.54v-7.54Z" class="cls-12" />
  <path d="M129.39 65.32h-6.28v7.54h7.54v-7.54h-1.26Z" class="cls-12" />
  <path d="M136.93 65.32h-7.54v7.54h7.54v-7.54ZM144.47 65.32h-7.54v7.54h7.54v-7.54Z" class="cls-12" />
  <path d="M152 65.32h-7.54v7.54H152v-7.54Z" class="cls-12" />
  <path d="M158.28 65.32h-7.54v7.54h7.54v-7.54Z" class="cls-12" />
  <path d="M165.82 65.32h-7.54v7.54h7.54v-7.54ZM173.36 65.32h-7.54v7.54h7.54v-7.54ZM180.9 65.32h-7.54v7.54h7.54v-7.54Z"
    class="cls-15" />
  <path d="M187.18 65.32h-7.54v7.54h7.54v-7.54ZM194.72 65.32h-7.54v7.54h7.54v-7.54Z" class="cls-15" />
  <path d="M202.25 65.32h-7.54v7.54h7.54v-7.54Z" class="cls-15" />
  <path d="M209.79 65.32h-7.54v7.54h7.54v-7.54Z" class="cls-19" />
  <path d="M216.07 65.32h-7.54v7.54h7.54v-7.54Z" class="cls-47" />
  <path d="M223.61 65.32h-7.54v7.54h7.54v-7.54Z" class="cls-6" />
  <path d="M231.15 65.32h-7.54v7.54h7.54v-7.54Z" class="cls-49" />
  <path d="M21.36 72.86h-7.54v7.54h7.54v-7.54Z" class="cls-45" />
  <path d="M28.89 72.86h-7.54v7.54h7.54v-7.54Z" class="cls-35" />
  <path d="M36.43 72.86h-7.54v7.54h7.54v-7.54Z" style="fill:#364b47" />
  <path d="M42.71 72.86h-6.28v7.54h7.54v-7.54h-1.26Z" class="cls-37" />
  <path d="M50.25 72.86h-7.54v7.54h7.54v-7.54Z" class="cls-57" />
  <path d="M65.32 72.86h-7.54v7.54h7.54v-7.54ZM71.6 72.86h-6.28v7.54h7.54v-7.54H71.6Z" class="cls-15" />
  <path d="M79.14 72.86H71.6v7.54h7.54v-7.54ZM86.68 72.86h-7.54v7.54h7.54v-7.54Z" class="cls-15" />
  <path d="M94.22 72.86h-7.54v7.54h7.54v-7.54ZM100.5 72.86h-6.28v7.54h6.28v-7.54ZM108.04 72.86h-7.54v7.54h7.54v-7.54Z"
    class="cls-15" />
  <path d="M115.57 72.86h-7.54v7.54h7.54v-7.54ZM123.11 72.86h-7.54v7.54h7.54v-7.54Z" class="cls-12" />
  <path d="M129.39 72.86h-6.28v7.54h7.54v-7.54h-1.26Z" class="cls-12" />
  <path d="M136.93 72.86h-7.54v7.54h7.54v-7.54ZM144.47 72.86h-7.54v7.54h7.54v-7.54Z" class="cls-12" />
  <path d="M152 72.86h-7.54v7.54H152v-7.54Z" class="cls-12" />
  <path d="M158.28 72.86h-7.54v7.54h7.54v-7.54Z" class="cls-12" />
  <path d="M165.82 72.86h-7.54v7.54h7.54v-7.54ZM173.36 72.86h-7.54v7.54h7.54v-7.54ZM180.9 72.86h-7.54v7.54h7.54v-7.54Z"
    class="cls-15" />
  <path d="M187.18 72.86h-7.54v7.54h7.54v-7.54ZM194.72 72.86h-7.54v7.54h7.54v-7.54Z" class="cls-15" />
  <path d="M202.25 72.86h-7.54v7.54h7.54v-7.54ZM209.79 72.86h-7.54v7.54h7.54v-7.54Z" class="cls-15" />
  <path d="M216.07 72.86h-7.54v7.54h7.54v-7.54Z" class="cls-19" />
  <path d="M223.61 72.86h-7.54v7.54h7.54v-7.54Z" class="cls-48" />
  <path d="M231.15 72.86h-7.54v7.54h7.54v-7.54Z" class="cls-27" />
  <path d="M238.68 72.86h-7.54v7.54h7.54v-7.54ZM13.82 79.14H7.54v7.54h7.54v-7.54h-1.26Z" class="cls-50" />
  <path d="M21.36 79.14h-7.54v7.54h7.54v-7.54Z" class="cls-35" />
  <path d="M28.89 79.14h-7.54v7.54h7.54v-7.54Z" class="cls-69" />
  <path d="M36.43 79.14h-7.54v7.54h7.54v-7.54Z" style="fill:#f3f3f5" />
  <path d="M42.71 79.14h-6.28v7.54h7.54v-7.54h-1.26Z" class="cls-37" />
  <path d="M50.25 79.14h-7.54v7.54h7.54v-7.54Z" class="cls-4" />
  <path d="M65.32 79.14h-7.54v7.54h7.54v-7.54ZM71.6 79.14h-6.28v7.54h7.54v-7.54H71.6Z" class="cls-15" />
  <path d="M79.14 79.14H71.6v7.54h7.54v-7.54ZM86.68 79.14h-7.54v7.54h7.54v-7.54Z" class="cls-15" />
  <path d="M94.22 79.14h-7.54v7.54h7.54v-7.54ZM100.5 79.14h-6.28v7.54h6.28v-7.54ZM108.04 79.14h-7.54v7.54h7.54v-7.54Z"
    class="cls-15" />
  <path d="M115.57 79.14h-7.54v7.54h7.54v-7.54ZM123.11 79.14h-7.54v7.54h7.54v-7.54Z" class="cls-12" />
  <path d="M129.39 79.14h-6.28v7.54h7.54v-7.54h-1.26Z" class="cls-12" />
  <path d="M136.93 79.14h-7.54v7.54h7.54v-7.54ZM144.47 79.14h-7.54v7.54h7.54v-7.54Z" class="cls-12" />
  <path d="M152 79.14h-7.54v7.54H152v-7.54Z" class="cls-12" />
  <path d="M158.28 79.14h-7.54v7.54h7.54v-7.54Z" class="cls-12" />
  <path d="M165.82 79.14h-7.54v7.54h7.54v-7.54ZM173.36 79.14h-7.54v7.54h7.54v-7.54ZM180.9 79.14h-7.54v7.54h7.54v-7.54Z"
    class="cls-15" />
  <path d="M187.18 79.14h-7.54v7.54h7.54v-7.54ZM194.72 79.14h-7.54v7.54h7.54v-7.54Z" class="cls-15" />
  <path d="M202.25 79.14h-7.54v7.54h7.54v-7.54ZM209.79 79.14h-7.54v7.54h7.54v-7.54Z" class="cls-15" />
  <path d="M216.07 79.14h-7.54v7.54h7.54v-7.54Z" class="cls-15" />
  <path d="M223.61 79.14h-7.54v7.54h7.54v-7.54Z" class="cls-48" />
  <path d="M231.15 79.14h-7.54v7.54h7.54v-7.54Z" class="cls-27" />
  <path d="M238.68 79.14h-7.54v7.54h7.54v-7.54Z" class="cls-44" />
  <path d="M13.82 86.68H7.54v7.54h7.54v-7.54h-1.26Z" class="cls-50" />
  <path d="M21.36 86.68h-7.54v7.54h7.54v-7.54Z" class="cls-28" />
  <path d="M28.89 86.68h-7.54v7.54h7.54v-7.54Z" style="fill:#374c4a" />
  <path d="M36.43 86.68h-7.54v7.54h7.54v-7.54ZM42.71 86.68h-6.28v7.54h7.54v-7.54h-1.26Z" class="cls-37" />
  <path d="M50.25 86.68h-7.54v7.54h7.54v-7.54Z" class="cls-4" />
  <path d="M65.32 86.68h-7.54v7.54h7.54v-7.54ZM71.6 86.68h-6.28v7.54h7.54v-7.54H71.6Z" class="cls-15" />
  <path d="M79.14 86.68H71.6v7.54h7.54v-7.54ZM86.68 86.68h-7.54v7.54h7.54v-7.54Z" class="cls-15" />
  <path d="M94.22 86.68h-7.54v7.54h7.54v-7.54ZM100.5 86.68h-6.28v7.54h6.28v-7.54ZM108.04 86.68h-7.54v7.54h7.54v-7.54Z"
    class="cls-15" />
  <path d="M115.57 86.68h-7.54v7.54h7.54v-7.54Z" class="cls-8" />
  <path d="M123.11 86.68h-7.54v7.54h7.54v-7.54Z" class="cls-12" />
  <path d="M129.39 86.68h-6.28v7.54h7.54v-7.54h-1.26Z" class="cls-12" />
  <path d="M136.93 86.68h-7.54v7.54h7.54v-7.54ZM144.47 86.68h-7.54v7.54h7.54v-7.54Z" class="cls-12" />
  <path d="M152 86.68h-7.54v7.54H152v-7.54Z" class="cls-12" />
  <path d="M158.28 86.68h-7.54v7.54h7.54v-7.54Z" class="cls-12" />
  <path d="M165.82 86.68h-7.54v7.54h7.54v-7.54ZM173.36 86.68h-7.54v7.54h7.54v-7.54ZM180.9 86.68h-7.54v7.54h7.54v-7.54Z"
    class="cls-15" />
  <path d="M187.18 86.68h-7.54v7.54h7.54v-7.54ZM194.72 86.68h-7.54v7.54h7.54v-7.54Z" class="cls-15" />
  <path d="M202.25 86.68h-7.54v7.54h7.54v-7.54ZM209.79 86.68h-7.54v7.54h7.54v-7.54Z" class="cls-15" />
  <path d="M216.07 86.68h-7.54v7.54h7.54v-7.54Z" class="cls-15" />
  <path d="M223.61 86.68h-7.54v7.54h7.54v-7.54Z" style="fill:#323e40" />
  <path d="M231.15 86.68h-7.54v7.54h7.54v-7.54Z" class="cls-27" />
  <path d="M238.68 86.68h-7.54v7.54h7.54v-7.54Z" class="cls-44" />
  <path d="M7.54 94.22H0v7.54h7.54v-7.54Z" class="cls-4" />
  <path d="M13.82 94.22H7.54v7.54h7.54v-7.54h-1.26Z" class="cls-68" />
  <path d="M21.36 94.22h-7.54v7.54h7.54v-7.54Z" class="cls-63" />
  <path d="M28.89 94.22h-7.54v7.54h7.54v-7.54ZM36.43 94.22h-7.54v7.54h7.54v-7.54Z" class="cls-9" />
  <path d="M42.71 94.22h-6.28v7.54h7.54v-7.54h-1.26Z" class="cls-4" />
  <path d="M50.25 94.22h-7.54v7.54h7.54v-7.54ZM65.32 94.22h-7.54v7.54h7.54v-7.54Z" class="cls-15" />
  <path d="M71.6 94.22h-6.28v7.54h7.54v-7.54H71.6Z" class="cls-8" />
  <path d="M79.14 94.22H71.6v7.54h7.54v-7.54ZM86.68 94.22h-7.54v7.54h7.54v-7.54Z" class="cls-8" />
  <path d="M94.22 94.22h-7.54v7.54h7.54v-7.54ZM100.5 94.22h-6.28v7.54h6.28v-7.54ZM108.04 94.22h-7.54v7.54h7.54v-7.54Z"
    class="cls-8" />
  <path d="M115.57 94.22h-7.54v7.54h7.54v-7.54Z" class="cls-8" />
  <path d="M123.11 94.22h-7.54v7.54h7.54v-7.54Z" class="cls-12" />
  <path d="M129.39 94.22h-6.28v7.54h7.54v-7.54h-1.26Z" class="cls-12" />
  <path d="M136.93 94.22h-7.54v7.54h7.54v-7.54ZM144.47 94.22h-7.54v7.54h7.54v-7.54Z" class="cls-12" />
  <path d="M152 94.22h-7.54v7.54H152v-7.54Z" class="cls-12" />
  <path d="M158.28 94.22h-7.54v7.54h7.54v-7.54Z" class="cls-12" />
  <path d="M165.82 94.22h-7.54v7.54h7.54v-7.54ZM173.36 94.22h-7.54v7.54h7.54v-7.54ZM180.9 94.22h-7.54v7.54h7.54v-7.54Z"
    class="cls-8" />
  <path d="M187.18 94.22h-7.54v7.54h7.54v-7.54ZM194.72 94.22h-7.54v7.54h7.54v-7.54Z" class="cls-8" />
  <path d="M202.25 94.22h-7.54v7.54h7.54v-7.54Z" class="cls-12" />
  <path d="M209.79 94.22h-7.54v7.54h7.54v-7.54Z" class="cls-15" />
  <path d="M216.07 94.22h-7.54v7.54h7.54v-7.54Z" class="cls-15" />
  <path d="M223.61 94.22h-7.54v7.54h7.54v-7.54Z" class="cls-26" />
  <path d="M231.15 94.22h-7.54v7.54h7.54v-7.54Z" class="cls-52" />
  <path d="M238.68 94.22h-7.54v7.54h7.54v-7.54Z" class="cls-36" />
  <path d="M244.96 94.22h-6.28v7.54h7.54v-7.54h-1.26ZM7.54 101.75H0v7.54h7.54v-7.54Z" class="cls-4" />
  <path d="M13.82 101.75H7.54v7.54h7.54v-7.54h-1.26Z" class="cls-18" />
  <path d="M21.36 101.75h-7.54v7.54h7.54v-7.54Z" class="cls-54" />
  <path d="M28.89 101.75h-7.54v7.54h7.54v-7.54ZM36.43 101.75h-7.54v7.54h7.54v-7.54Z" class="cls-9" />
  <path d="M42.71 101.75h-6.28v7.54h7.54v-7.54h-1.26Z" class="cls-4" />
  <path d="M50.25 101.75h-7.54v7.54h7.54v-7.54ZM65.32 101.75h-7.54v7.54h7.54v-7.54Z" class="cls-15" />
  <path d="M71.6 101.75h-6.28v7.54h7.54v-7.54H71.6Z" class="cls-8" />
  <path d="M79.14 101.75H71.6v7.54h7.54v-7.54ZM86.68 101.75h-7.54v7.54h7.54v-7.54Z" class="cls-12" />
  <path
    d="M94.22 101.75h-7.54v7.54h7.54v-7.54ZM100.5 101.75h-6.28v7.54h6.28v-7.54ZM108.04 101.75h-7.54v7.54h7.54v-7.54Z"
    class="cls-12" />
  <path d="M115.57 101.75h-7.54v7.54h7.54v-7.54ZM123.11 101.75h-7.54v7.54h7.54v-7.54Z" class="cls-12" />
  <path d="M129.39 101.75h-6.28v7.54h7.54v-7.54h-1.26Z" class="cls-12" />
  <path d="M136.93 101.75h-7.54v7.54h7.54v-7.54ZM144.47 101.75h-7.54v7.54h7.54v-7.54Z" class="cls-12" />
  <path d="M152 101.75h-7.54v7.54H152v-7.54Z" class="cls-12" />
  <path
    d="M158.28 101.75h-7.54v7.54h7.54v-7.54ZM165.82 101.75h-7.54v7.54h7.54v-7.54ZM173.36 101.75h-7.54v7.54h7.54v-7.54ZM180.9 101.75h-7.54v7.54h7.54v-7.54Z"
    class="cls-12" />
  <path d="M187.18 101.75h-7.54v7.54h7.54v-7.54ZM194.72 101.75h-7.54v7.54h7.54v-7.54Z" class="cls-12" />
  <path d="M202.25 101.75h-7.54v7.54h7.54v-7.54Z" class="cls-12" />
  <path d="M209.79 101.75h-7.54v7.54h7.54v-7.54Z" class="cls-15" />
  <path d="M216.07 101.75h-7.54v7.54h7.54v-7.54Z" class="cls-15" />
  <path d="M223.61 101.75h-7.54v7.54h7.54v-7.54Z" class="cls-26" />
  <path d="M231.15 101.75h-7.54v7.54h7.54v-7.54Z" class="cls-52" />
  <path d="M238.68 101.75h-7.54v7.54h7.54v-7.54Z" class="cls-36" />
  <path d="M244.96 101.75h-6.28v7.54h7.54v-7.54h-1.26ZM7.54 108.04H0v7.54h7.54v-7.54Z" class="cls-4" />
  <path d="M13.82 108.04H7.54v7.54h7.54v-7.54h-1.26Z" class="cls-18" />
  <path d="M21.36 108.04h-7.54v7.54h7.54v-7.54Z" class="cls-54" />
  <path d="M28.89 108.04h-7.54v7.54h7.54v-7.54ZM36.43 108.04h-7.54v7.54h7.54v-7.54Z" class="cls-9" />
  <path d="M42.71 108.04h-6.28v7.54h7.54v-7.54h-1.26Z" class="cls-4" />
  <path d="M50.25 108.04h-7.54v7.54h7.54v-7.54ZM65.32 108.04h-7.54v7.54h7.54v-7.54Z" class="cls-15" />
  <path d="M71.6 108.04h-6.28v7.54h7.54v-7.54H71.6Z" class="cls-8" />
  <path d="M79.14 108.04H71.6v7.54h7.54v-7.54ZM86.68 108.04h-7.54v7.54h7.54v-7.54Z" class="cls-12" />
  <path
    d="M94.22 108.04h-7.54v7.54h7.54v-7.54ZM100.5 108.04h-6.28v7.54h6.28v-7.54ZM108.04 108.04h-7.54v7.54h7.54v-7.54Z"
    class="cls-12" />
  <path d="M115.57 108.04h-7.54v7.54h7.54v-7.54ZM123.11 108.04h-7.54v7.54h7.54v-7.54Z" class="cls-12" />
  <path d="M129.39 108.04h-6.28v7.54h7.54v-7.54h-1.26Z" class="cls-12" />
  <path d="M136.93 108.04h-7.54v7.54h7.54v-7.54ZM144.47 108.04h-7.54v7.54h7.54v-7.54Z" class="cls-12" />
  <path d="M152 108.04h-7.54v7.54H152v-7.54Z" class="cls-12" />
  <path
    d="M158.28 108.04h-7.54v7.54h7.54v-7.54ZM165.82 108.04h-7.54v7.54h7.54v-7.54ZM173.36 108.04h-7.54v7.54h7.54v-7.54ZM180.9 108.04h-7.54v7.54h7.54v-7.54Z"
    class="cls-12" />
  <path d="M187.18 108.04h-7.54v7.54h7.54v-7.54ZM194.72 108.04h-7.54v7.54h7.54v-7.54Z" class="cls-12" />
  <path d="M202.25 108.04h-7.54v7.54h7.54v-7.54Z" class="cls-12" />
  <path d="M209.79 108.04h-7.54v7.54h7.54v-7.54Z" class="cls-15" />
  <path d="M216.07 108.04h-7.54v7.54h7.54v-7.54Z" class="cls-15" />
  <path d="M223.61 108.04h-7.54v7.54h7.54v-7.54Z" class="cls-26" />
  <path d="M231.15 108.04h-7.54v7.54h7.54v-7.54Z" class="cls-52" />
  <path d="M238.68 108.04h-7.54v7.54h7.54v-7.54Z" class="cls-36" />
  <path d="M244.96 108.04h-6.28v7.54h7.54v-7.54h-1.26ZM7.54 115.57H0v7.54h7.54v-7.54Z" class="cls-4" />
  <path d="M13.82 115.57H7.54v7.54h7.54v-7.54h-1.26Z" class="cls-18" />
  <path d="M21.36 115.57h-7.54v7.54h7.54v-7.54Z" class="cls-54" />
  <path d="M28.89 115.57h-7.54v7.54h7.54v-7.54ZM36.43 115.57h-7.54v7.54h7.54v-7.54Z" class="cls-9" />
  <path d="M42.71 115.57h-6.28v7.54h7.54v-7.54h-1.26Z" class="cls-4" />
  <path d="M50.25 115.57h-7.54v7.54h7.54v-7.54ZM65.32 115.57h-7.54v7.54h7.54v-7.54Z" class="cls-15" />
  <path d="M71.6 115.57h-6.28v7.54h7.54v-7.54H71.6Z" class="cls-8" />
  <path d="M79.14 115.57H71.6v7.54h7.54v-7.54ZM86.68 115.57h-7.54v7.54h7.54v-7.54Z" class="cls-12" />
  <path
    d="M94.22 115.57h-7.54v7.54h7.54v-7.54ZM100.5 115.57h-6.28v7.54h6.28v-7.54ZM108.04 115.57h-7.54v7.54h7.54v-7.54Z"
    class="cls-12" />
  <path d="M115.57 115.57h-7.54v7.54h7.54v-7.54ZM123.11 115.57h-7.54v7.54h7.54v-7.54Z" class="cls-12" />
  <path d="M129.39 115.57h-6.28v7.54h7.54v-7.54h-1.26Z" class="cls-12" />
  <path d="M136.93 115.57h-7.54v7.54h7.54v-7.54ZM144.47 115.57h-7.54v7.54h7.54v-7.54Z" class="cls-12" />
  <path d="M152 115.57h-7.54v7.54H152v-7.54Z" class="cls-12" />
  <path
    d="M158.28 115.57h-7.54v7.54h7.54v-7.54ZM165.82 115.57h-7.54v7.54h7.54v-7.54ZM173.36 115.57h-7.54v7.54h7.54v-7.54ZM180.9 115.57h-7.54v7.54h7.54v-7.54Z"
    class="cls-12" />
  <path d="M187.18 115.57h-7.54v7.54h7.54v-7.54ZM194.72 115.57h-7.54v7.54h7.54v-7.54Z" class="cls-12" />
  <path d="M202.25 115.57h-7.54v7.54h7.54v-7.54Z" class="cls-12" />
  <path d="M209.79 115.57h-7.54v7.54h7.54v-7.54Z" class="cls-15" />
  <path d="M216.07 115.57h-7.54v7.54h7.54v-7.54ZM223.61 115.57h-7.54v7.54h7.54v-7.54Z" class="cls-15" />
  <path d="M231.15 115.57h-7.54v7.54h7.54v-7.54Z" class="cls-52" />
  <path d="M238.68 115.57h-7.54v7.54h7.54v-7.54Z" class="cls-36" />
  <path d="M244.96 115.57h-6.28v7.54h7.54v-7.54h-1.26ZM7.54 123.11H0v7.54h7.54v-7.54Z" class="cls-4" />
  <path d="M13.82 123.11H7.54v7.54h7.54v-7.54h-1.26Z" class="cls-18" />
  <path d="M21.36 123.11h-7.54v7.54h7.54v-7.54Z" class="cls-54" />
  <path d="M28.89 123.11h-7.54v7.54h7.54v-7.54ZM36.43 123.11h-7.54v7.54h7.54v-7.54Z" class="cls-9" />
  <path d="M42.71 123.11h-6.28v7.54h7.54v-7.54h-1.26Z" class="cls-4" />
  <path d="M50.25 123.11h-7.54v7.54h7.54v-7.54ZM65.32 123.11h-7.54v7.54h7.54v-7.54Z" class="cls-15" />
  <path d="M71.6 123.11h-6.28v7.54h7.54v-7.54H71.6Z" class="cls-8" />
  <path d="M79.14 123.11H71.6v7.54h7.54v-7.54ZM86.68 123.11h-7.54v7.54h7.54v-7.54Z" class="cls-12" />
  <path
    d="M94.22 123.11h-7.54v7.54h7.54v-7.54ZM100.5 123.11h-6.28v7.54h6.28v-7.54ZM108.04 123.11h-7.54v7.54h7.54v-7.54Z"
    class="cls-12" />
  <path d="M115.57 123.11h-7.54v7.54h7.54v-7.54ZM123.11 123.11h-7.54v7.54h7.54v-7.54Z" class="cls-12" />
  <path d="M129.39 123.11h-6.28v7.54h7.54v-7.54h-1.26Z" class="cls-12" />
  <path d="M136.93 123.11h-7.54v7.54h7.54v-7.54ZM144.47 123.11h-7.54v7.54h7.54v-7.54Z" class="cls-12" />
  <path d="M152 123.11h-7.54v7.54H152v-7.54Z" class="cls-12" />
  <path
    d="M158.28 123.11h-7.54v7.54h7.54v-7.54ZM165.82 123.11h-7.54v7.54h7.54v-7.54ZM173.36 123.11h-7.54v7.54h7.54v-7.54ZM180.9 123.11h-7.54v7.54h7.54v-7.54Z"
    class="cls-12" />
  <path d="M187.18 123.11h-7.54v7.54h7.54v-7.54ZM194.72 123.11h-7.54v7.54h7.54v-7.54Z" class="cls-12" />
  <path d="M202.25 123.11h-7.54v7.54h7.54v-7.54Z" class="cls-12" />
  <path d="M209.79 123.11h-7.54v7.54h7.54v-7.54Z" class="cls-15" />
  <path d="M216.07 123.11h-7.54v7.54h7.54v-7.54ZM223.61 123.11h-7.54v7.54h7.54v-7.54Z" class="cls-15" />
  <path d="M231.15 123.11h-7.54v7.54h7.54v-7.54Z" class="cls-52" />
  <path d="M238.68 123.11h-7.54v7.54h7.54v-7.54Z" class="cls-36" />
  <path d="M244.96 123.11h-6.28v7.54h7.54v-7.54h-1.26ZM7.54 130.65H0v7.54h7.54v-7.54Z" class="cls-4" />
  <path d="M13.82 130.65H7.54v7.54h7.54v-7.54h-1.26Z" class="cls-18" />
  <path d="M21.36 130.65h-7.54v7.54h7.54v-7.54Z" class="cls-63" />
  <path d="M28.89 130.65h-7.54v7.54h7.54v-7.54ZM36.43 130.65h-7.54v7.54h7.54v-7.54Z" class="cls-9" />
  <path d="M42.71 130.65h-6.28v7.54h7.54v-7.54h-1.26Z" class="cls-4" />
  <path d="M50.25 130.65h-7.54v7.54h7.54v-7.54ZM65.32 130.65h-7.54v7.54h7.54v-7.54Z" class="cls-15" />
  <path d="M71.6 130.65h-6.28v7.54h7.54v-7.54H71.6Z" class="cls-8" />
  <path d="M79.14 130.65H71.6v7.54h7.54v-7.54ZM86.68 130.65h-7.54v7.54h7.54v-7.54Z" class="cls-12" />
  <path
    d="M94.22 130.65h-7.54v7.54h7.54v-7.54ZM100.5 130.65h-6.28v7.54h6.28v-7.54ZM108.04 130.65h-7.54v7.54h7.54v-7.54Z"
    class="cls-12" />
  <path d="M115.57 130.65h-7.54v7.54h7.54v-7.54ZM123.11 130.65h-7.54v7.54h7.54v-7.54Z" class="cls-12" />
  <path d="M129.39 130.65h-6.28v7.54h7.54v-7.54h-1.26Z" class="cls-12" />
  <path d="M136.93 130.65h-7.54v7.54h7.54v-7.54ZM144.47 130.65h-7.54v7.54h7.54v-7.54Z" class="cls-12" />
  <path d="M152 130.65h-7.54v7.54H152v-7.54Z" class="cls-12" />
  <path d="M158.28 130.65h-7.54v7.54h7.54v-7.54Z" class="cls-12" />
  <path
    d="M165.82 130.65h-7.54v7.54h7.54v-7.54ZM173.36 130.65h-7.54v7.54h7.54v-7.54ZM180.9 130.65h-7.54v7.54h7.54v-7.54Z"
    class="cls-16" />
  <path d="M187.18 130.65h-7.54v7.54h7.54v-7.54ZM194.72 130.65h-7.54v7.54h7.54v-7.54Z" class="cls-16" />
  <path d="M202.25 130.65h-7.54v7.54h7.54v-7.54Z" class="cls-16" />
  <path d="M209.79 130.65h-7.54v7.54h7.54v-7.54Z" class="cls-19" />
  <path d="M216.07 130.65h-7.54v7.54h7.54v-7.54ZM223.61 130.65h-7.54v7.54h7.54v-7.54Z" class="cls-15" />
  <path d="M231.15 130.65h-7.54v7.54h7.54v-7.54Z" class="cls-52" />
  <path d="M238.68 130.65h-7.54v7.54h7.54v-7.54Z" class="cls-36" />
  <path d="M244.96 130.65h-6.28v7.54h7.54v-7.54h-1.26ZM7.54 136.93H0v7.54h7.54v-7.54Z" class="cls-4" />
  <path d="M13.82 136.93H7.54v7.54h7.54v-7.54h-1.26Z" class="cls-68" />
  <path d="M21.36 136.93h-7.54v7.54h7.54v-7.54Z" class="cls-63" />
  <path d="M28.89 136.93h-7.54v7.54h7.54v-7.54Z" style="fill:#bdbad5" />
  <path d="M36.43 136.93h-7.54v7.54h7.54v-7.54Z" class="cls-9" />
  <path d="M42.71 136.93h-6.28v7.54h7.54v-7.54h-1.26Z" class="cls-4" />
  <path d="M50.25 136.93h-7.54v7.54h7.54v-7.54ZM65.32 136.93h-7.54v7.54h7.54v-7.54Z" class="cls-15" />
  <path d="M71.6 136.93h-6.28v7.54h7.54v-7.54H71.6Z" class="cls-20" />
  <path d="M79.14 136.93H71.6v7.54h7.54v-7.54ZM86.68 136.93h-7.54v7.54h7.54v-7.54Z" class="cls-20" />
  <path
    d="M94.22 136.93h-7.54v7.54h7.54v-7.54ZM100.5 136.93h-6.28v7.54h6.28v-7.54ZM108.04 136.93h-7.54v7.54h7.54v-7.54Z"
    class="cls-20" />
  <path d="M115.57 136.93h-7.54v7.54h7.54v-7.54Z" class="cls-20" />
  <path d="M123.11 136.93h-7.54v7.54h7.54v-7.54Z" class="cls-12" />
  <path d="M129.39 136.93h-6.28v7.54h7.54v-7.54h-1.26Z" class="cls-12" />
  <path d="M136.93 136.93h-7.54v7.54h7.54v-7.54ZM144.47 136.93h-7.54v7.54h7.54v-7.54Z" class="cls-12" />
  <path d="M152 136.93h-7.54v7.54H152v-7.54Z" class="cls-12" />
  <path
    d="M158.28 136.93h-7.54v7.54h7.54v-7.54ZM165.82 136.93h-7.54v7.54h7.54v-7.54ZM173.36 136.93h-7.54v7.54h7.54v-7.54ZM180.9 136.93h-7.54v7.54h7.54v-7.54Z"
    class="cls-16" />
  <path d="M187.18 136.93h-7.54v7.54h7.54v-7.54ZM194.72 136.93h-7.54v7.54h7.54v-7.54Z" class="cls-16" />
  <path d="M202.25 136.93h-7.54v7.54h7.54v-7.54Z" class="cls-16" />
  <path d="M209.79 136.93h-7.54v7.54h7.54v-7.54Z" class="cls-15" />
  <path d="M216.07 136.93h-7.54v7.54h7.54v-7.54ZM223.61 136.93h-7.54v7.54h7.54v-7.54Z" class="cls-15" />
  <path d="M231.15 136.93h-7.54v7.54h7.54v-7.54Z" class="cls-52" />
  <path d="M238.68 136.93h-7.54v7.54h7.54v-7.54Z" style="fill:#b8b8d4" />
  <path d="M244.96 136.93h-6.28v7.54h7.54v-7.54h-1.26ZM13.82 144.47H7.54v7.54h7.54v-7.54h-1.26Z" class="cls-4" />
  <path d="M21.36 144.47h-7.54v7.54h7.54v-7.54Z" style="fill:#6c747c" />
  <path d="M28.89 144.47h-7.54v7.54h7.54v-7.54Z" class="cls-49" />
  <path d="M36.43 144.47h-7.54v7.54h7.54v-7.54Z" class="cls-9" />
  <path d="M42.71 144.47h-6.28v7.54h7.54v-7.54h-1.26Z" class="cls-8" />
  <path d="M50.25 144.47h-7.54v7.54h7.54v-7.54Z" class="cls-4" />
  <path d="M65.32 144.47h-7.54v7.54h7.54v-7.54Z" class="cls-15" />
  <path d="M71.6 144.47h-6.28v7.54h7.54v-7.54H71.6Z" class="cls-19" />
  <path d="M79.14 144.47H71.6v7.54h7.54v-7.54ZM86.68 144.47h-7.54v7.54h7.54v-7.54Z" class="cls-19" />
  <path
    d="M94.22 144.47h-7.54v7.54h7.54v-7.54ZM100.5 144.47h-6.28v7.54h6.28v-7.54ZM108.04 144.47h-7.54v7.54h7.54v-7.54Z"
    class="cls-19" />
  <path d="M115.57 144.47h-7.54v7.54h7.54v-7.54Z" class="cls-20" />
  <path d="M123.11 144.47h-7.54v7.54h7.54v-7.54Z" class="cls-12" />
  <path d="M129.39 144.47h-6.28v7.54h7.54v-7.54h-1.26Z" class="cls-12" />
  <path d="M136.93 144.47h-7.54v7.54h7.54v-7.54ZM144.47 144.47h-7.54v7.54h7.54v-7.54Z" class="cls-12" />
  <path d="M152 144.47h-7.54v7.54H152v-7.54Z" class="cls-12" />
  <path d="M158.28 144.47h-7.54v7.54h7.54v-7.54Z" class="cls-16" />
  <path
    d="M165.82 144.47h-7.54v7.54h7.54v-7.54ZM173.36 144.47h-7.54v7.54h7.54v-7.54ZM180.9 144.47h-7.54v7.54h7.54v-7.54Z"
    class="cls-19" />
  <path d="M187.18 144.47h-7.54v7.54h7.54v-7.54ZM194.72 144.47h-7.54v7.54h7.54v-7.54Z" class="cls-19" />
  <path d="M202.25 144.47h-7.54v7.54h7.54v-7.54Z" class="cls-19" />
  <path d="M209.79 144.47h-7.54v7.54h7.54v-7.54Z" class="cls-15" />
  <path d="M216.07 144.47h-7.54v7.54h7.54v-7.54Z" class="cls-15" />
  <path d="M223.61 144.47h-7.54v7.54h7.54v-7.54Z" class="cls-19" />
  <path d="M231.15 144.47h-7.54v7.54h7.54v-7.54Z" class="cls-8" />
  <path d="M238.68 144.47h-7.54v7.54h7.54v-7.54Z" style="fill:#303c3d" />
  <path d="M13.82 152H7.54v7.54h7.54V152h-1.26Z" class="cls-4" />
  <path d="M21.36 152h-7.54v7.54h7.54V152Z" class="cls-66" />
  <path d="M28.89 152h-7.54v7.54h7.54V152Z" class="cls-25" />
  <path d="M36.43 152h-7.54v7.54h7.54V152Z" class="cls-9" />
  <path d="M42.71 152h-6.28v7.54h7.54V152h-1.26Z" class="cls-8" />
  <path d="M50.25 152h-7.54v7.54h7.54V152Z" class="cls-4" />
  <path d="M65.32 152h-7.54v7.54h7.54V152ZM71.6 152h-6.28v7.54h7.54V152H71.6Z" class="cls-15" />
  <path d="M79.14 152H71.6v7.54h7.54V152ZM86.68 152h-7.54v7.54h7.54V152Z" class="cls-15" />
  <path d="M94.22 152h-7.54v7.54h7.54V152ZM100.5 152h-6.28v7.54h6.28V152ZM108.04 152h-7.54v7.54h7.54V152Z"
    class="cls-15" />
  <path d="M115.57 152h-7.54v7.54h7.54V152Z" class="cls-8" />
  <path d="M123.11 152h-7.54v7.54h7.54V152Z" class="cls-12" />
  <path d="M129.39 152h-6.28v7.54h7.54V152h-1.26Z" class="cls-12" />
  <path d="M136.93 152h-7.54v7.54h7.54V152ZM144.47 152h-7.54v7.54h7.54V152Z" class="cls-12" />
  <path d="M152 152h-7.54v7.54H152V152Z" class="cls-12" />
  <path d="M158.28 152h-7.54v7.54h7.54V152Z" class="cls-16" />
  <path d="M165.82 152h-7.54v7.54h7.54V152Z" class="cls-19" />
  <path d="M173.36 152h-7.54v7.54h7.54V152ZM180.9 152h-7.54v7.54h7.54V152Z" class="cls-15" />
  <path d="M187.18 152h-7.54v7.54h7.54V152ZM194.72 152h-7.54v7.54h7.54V152Z" class="cls-15" />
  <path d="M202.25 152h-7.54v7.54h7.54V152ZM209.79 152h-7.54v7.54h7.54V152Z" class="cls-15" />
  <path d="M216.07 152h-7.54v7.54h7.54V152Z" class="cls-15" />
  <path d="M223.61 152h-7.54v7.54h7.54V152Z" class="cls-19" />
  <path d="M231.15 152h-7.54v7.54h7.54V152Z" class="cls-8" />
  <path d="M238.68 152h-7.54v7.54h7.54V152Z" style="fill:#2b3739" />
  <path d="M13.82 159.54H7.54v7.54h7.54v-7.54h-1.26Z" class="cls-4" />
  <path d="M21.36 159.54h-7.54v7.54h7.54v-7.54Z" style="fill:#b2b6bd" />
  <path d="M28.89 159.54h-7.54v7.54h7.54v-7.54Z" class="cls-25" />
  <path d="M36.43 159.54h-7.54v7.54h7.54v-7.54ZM42.71 159.54h-6.28v7.54h7.54v-7.54h-1.26Z" class="cls-8" />
  <path d="M50.25 159.54h-7.54v7.54h7.54v-7.54Z" class="cls-4" />
  <path d="M65.32 159.54h-7.54v7.54h7.54v-7.54ZM71.6 159.54h-6.28v7.54h7.54v-7.54H71.6Z" class="cls-15" />
  <path d="M79.14 159.54H71.6v7.54h7.54v-7.54ZM86.68 159.54h-7.54v7.54h7.54v-7.54Z" class="cls-15" />
  <path
    d="M94.22 159.54h-7.54v7.54h7.54v-7.54ZM100.5 159.54h-6.28v7.54h6.28v-7.54ZM108.04 159.54h-7.54v7.54h7.54v-7.54Z"
    class="cls-15" />
  <path d="M115.57 159.54h-7.54v7.54h7.54v-7.54ZM123.11 159.54h-7.54v7.54h7.54v-7.54Z" class="cls-12" />
  <path d="M129.39 159.54h-6.28v7.54h7.54v-7.54h-1.26Z" class="cls-12" />
  <path d="M136.93 159.54h-7.54v7.54h7.54v-7.54ZM144.47 159.54h-7.54v7.54h7.54v-7.54Z" class="cls-12" />
  <path d="M152 159.54h-7.54v7.54H152v-7.54Z" class="cls-12" />
  <path d="M158.28 159.54h-7.54v7.54h7.54v-7.54Z" class="cls-16" />
  <path d="M165.82 159.54h-7.54v7.54h7.54v-7.54Z" class="cls-19" />
  <path d="M173.36 159.54h-7.54v7.54h7.54v-7.54ZM180.9 159.54h-7.54v7.54h7.54v-7.54Z" class="cls-15" />
  <path d="M187.18 159.54h-7.54v7.54h7.54v-7.54ZM194.72 159.54h-7.54v7.54h7.54v-7.54Z" class="cls-15" />
  <path d="M202.25 159.54h-7.54v7.54h7.54v-7.54ZM209.79 159.54h-7.54v7.54h7.54v-7.54Z" class="cls-15" />
  <path d="M216.07 159.54h-7.54v7.54h7.54v-7.54Z" class="cls-15" />
  <path d="M223.61 159.54h-7.54v7.54h7.54v-7.54Z" class="cls-19" />
  <path d="M231.15 159.54h-7.54v7.54h7.54v-7.54Z" class="cls-8" />
  <path d="M238.68 159.54h-7.54v7.54h7.54v-7.54Z" style="fill:#1f2c2c" />
  <path d="M21.36 165.82h-7.54v7.54h7.54v-7.54Z" class="cls-4" />
  <path d="M28.89 165.82h-7.54v7.54h7.54v-7.54Z" class="cls-23" />
  <path d="M36.43 165.82h-7.54v7.54h7.54v-7.54Z" class="cls-25" />
  <path d="M42.71 165.82h-6.28v7.54h7.54v-7.54h-1.26Z" class="cls-32" />
  <path d="M50.25 165.82h-7.54v7.54h7.54v-7.54Z" class="cls-9" />
  <path d="M65.32 165.82h-7.54v7.54h7.54v-7.54ZM71.6 165.82h-6.28v7.54h7.54v-7.54H71.6Z" class="cls-15" />
  <path d="M79.14 165.82H71.6v7.54h7.54v-7.54ZM86.68 165.82h-7.54v7.54h7.54v-7.54Z" class="cls-15" />
  <path
    d="M94.22 165.82h-7.54v7.54h7.54v-7.54ZM100.5 165.82h-6.28v7.54h6.28v-7.54ZM108.04 165.82h-7.54v7.54h7.54v-7.54Z"
    class="cls-15" />
  <path d="M115.57 165.82h-7.54v7.54h7.54v-7.54ZM123.11 165.82h-7.54v7.54h7.54v-7.54Z" class="cls-12" />
  <path d="M129.39 165.82h-6.28v7.54h7.54v-7.54h-1.26Z" class="cls-12" />
  <path d="M136.93 165.82h-7.54v7.54h7.54v-7.54Z" class="cls-12" />
  <path d="M144.47 165.82h-7.54v7.54h7.54v-7.54Z" class="cls-16" />
  <path d="M152 165.82h-7.54v7.54H152v-7.54Z" class="cls-16" />
  <path d="M158.28 165.82h-7.54v7.54h7.54v-7.54Z" class="cls-16" />
  <path d="M165.82 165.82h-7.54v7.54h7.54v-7.54Z" class="cls-19" />
  <path d="M173.36 165.82h-7.54v7.54h7.54v-7.54ZM180.9 165.82h-7.54v7.54h7.54v-7.54Z" class="cls-15" />
  <path d="M187.18 165.82h-7.54v7.54h7.54v-7.54ZM194.72 165.82h-7.54v7.54h7.54v-7.54Z" class="cls-15" />
  <path d="M202.25 165.82h-7.54v7.54h7.54v-7.54ZM209.79 165.82h-7.54v7.54h7.54v-7.54Z" class="cls-15" />
  <path d="M216.07 165.82h-7.54v7.54h7.54v-7.54Z" class="cls-65" />
  <path d="M223.61 165.82h-7.54v7.54h7.54v-7.54Z" class="cls-7" />
  <path d="M231.15 165.82h-7.54v7.54h7.54v-7.54Z" style="fill:#252e2f" />
  <path d="M21.36 173.36h-7.54v7.54h7.54v-7.54Z" class="cls-4" />
  <path d="M28.89 173.36h-7.54v7.54h7.54v-7.54Z" class="cls-58" />
  <path d="M36.43 173.36h-7.54v7.54h7.54v-7.54Z" class="cls-25" />
  <path d="M42.71 173.36h-6.28v7.54h7.54v-7.54h-1.26Z" class="cls-32" />
  <path d="M50.25 173.36h-7.54v7.54h7.54v-7.54Z" class="cls-8" />
  <path d="M65.32 173.36h-7.54v7.54h7.54v-7.54Z" class="cls-19" />
  <path d="M71.6 173.36h-6.28v7.54h7.54v-7.54H71.6Z" class="cls-15" />
  <path d="M79.14 173.36H71.6v7.54h7.54v-7.54ZM86.68 173.36h-7.54v7.54h7.54v-7.54Z" class="cls-15" />
  <path
    d="M94.22 173.36h-7.54v7.54h7.54v-7.54ZM100.5 173.36h-6.28v7.54h6.28v-7.54ZM108.04 173.36h-7.54v7.54h7.54v-7.54Z"
    class="cls-15" />
  <path d="M115.57 173.36h-7.54v7.54h7.54v-7.54Z" class="cls-12" />
  <path d="M123.11 173.36h-7.54v7.54h7.54v-7.54Z" class="cls-16" />
  <path d="M129.39 173.36h-6.28v7.54h7.54v-7.54h-1.26Z" class="cls-16" />
  <path d="M136.93 173.36h-7.54v7.54h7.54v-7.54ZM144.47 173.36h-7.54v7.54h7.54v-7.54Z" class="cls-16" />
  <path d="M152 173.36h-7.54v7.54H152v-7.54Z" class="cls-16" />
  <path d="M158.28 173.36h-7.54v7.54h7.54v-7.54Z" class="cls-16" />
  <path d="M165.82 173.36h-7.54v7.54h7.54v-7.54Z" class="cls-19" />
  <path d="M173.36 173.36h-7.54v7.54h7.54v-7.54ZM180.9 173.36h-7.54v7.54h7.54v-7.54Z" class="cls-15" />
  <path d="M187.18 173.36h-7.54v7.54h7.54v-7.54ZM194.72 173.36h-7.54v7.54h7.54v-7.54Z" class="cls-15" />
  <path d="M202.25 173.36h-7.54v7.54h7.54v-7.54ZM209.79 173.36h-7.54v7.54h7.54v-7.54Z" class="cls-15" />
  <path d="M216.07 173.36h-7.54v7.54h7.54v-7.54Z" class="cls-65" />
  <path d="M223.61 173.36h-7.54v7.54h7.54v-7.54Z" class="cls-7" />
  <path d="M231.15 173.36h-7.54v7.54h7.54v-7.54Z" class="cls-50" />
  <path d="M28.89 180.9h-7.54v7.54h7.54v-7.54Z" class="cls-4" />
  <path d="M36.43 180.9h-7.54v7.54h7.54v-7.54Z" class="cls-23" />
  <path d="M42.71 180.9h-6.28v7.54h7.54v-7.54h-1.26Z" class="cls-25" />
  <path d="M50.25 180.9h-7.54v7.54h7.54v-7.54Z" class="cls-32" />
  <path d="M65.32 180.9h-7.54v7.54h7.54v-7.54Z" class="cls-19" />
  <path d="M71.6 180.9h-6.28v7.54h7.54v-7.54H71.6Z" class="cls-15" />
  <path d="M79.14 180.9H71.6v7.54h7.54v-7.54ZM86.68 180.9h-7.54v7.54h7.54v-7.54Z" class="cls-15" />
  <path d="M94.22 180.9h-7.54v7.54h7.54v-7.54ZM100.5 180.9h-6.28v7.54h6.28v-7.54ZM108.04 180.9h-7.54v7.54h7.54v-7.54Z"
    class="cls-15" />
  <path d="M115.57 180.9h-7.54v7.54h7.54v-7.54ZM123.11 180.9h-7.54v7.54h7.54v-7.54Z" class="cls-16" />
  <path d="M129.39 180.9h-6.28v7.54h7.54v-7.54h-1.26Z" class="cls-16" />
  <path d="M136.93 180.9h-7.54v7.54h7.54v-7.54ZM144.47 180.9h-7.54v7.54h7.54v-7.54Z" class="cls-16" />
  <path d="M152 180.9h-7.54v7.54H152v-7.54Z" class="cls-16" />
  <path d="M158.28 180.9h-7.54v7.54h7.54v-7.54Z" class="cls-16" />
  <path d="M165.82 180.9h-7.54v7.54h7.54v-7.54Z" class="cls-19" />
  <path d="M173.36 180.9h-7.54v7.54h7.54v-7.54ZM180.9 180.9h-7.54v7.54h7.54v-7.54Z" class="cls-15" />
  <path d="M187.18 180.9h-7.54v7.54h7.54v-7.54ZM194.72 180.9h-7.54v7.54h7.54v-7.54Z" class="cls-15" />
  <path d="M202.25 180.9h-7.54v7.54h7.54v-7.54Z" class="cls-15" />
  <path d="M209.79 180.9h-7.54v7.54h7.54v-7.54Z" class="cls-13" />
  <path d="M216.07 180.9h-7.54v7.54h7.54v-7.54Z" class="cls-7" />
  <path d="M223.61 180.9h-7.54v7.54h7.54v-7.54Z" class="cls-62" />
  <path d="M28.89 188.43h-7.54v7.54h7.54v-7.54Z" class="cls-4" />
  <path d="M36.43 188.43h-7.54v7.54h7.54v-7.54Z" class="cls-58" />
  <path d="M42.71 188.43h-6.28v7.54h7.54v-7.54h-1.26Z" class="cls-23" />
  <path d="M50.25 188.43h-7.54v7.54h7.54v-7.54Z" class="cls-25" />
  <path d="M65.32 188.43h-7.54v7.54h7.54v-7.54Z" class="cls-4" />
  <path d="M71.6 188.43h-6.28v7.54h7.54v-7.54H71.6Z" class="cls-19" />
  <path d="M79.14 188.43H71.6v7.54h7.54v-7.54ZM86.68 188.43h-7.54v7.54h7.54v-7.54Z" class="cls-15" />
  <path
    d="M94.22 188.43h-7.54v7.54h7.54v-7.54ZM100.5 188.43h-6.28v7.54h6.28v-7.54ZM108.04 188.43h-7.54v7.54h7.54v-7.54Z"
    class="cls-15" />
  <path d="M115.57 188.43h-7.54v7.54h7.54v-7.54ZM123.11 188.43h-7.54v7.54h7.54v-7.54Z" class="cls-19" />
  <path d="M129.39 188.43h-6.28v7.54h7.54v-7.54h-1.26Z" class="cls-19" />
  <path d="M136.93 188.43h-7.54v7.54h7.54v-7.54ZM144.47 188.43h-7.54v7.54h7.54v-7.54Z" class="cls-19" />
  <path d="M152 188.43h-7.54v7.54H152v-7.54Z" class="cls-19" />
  <path d="M158.28 188.43h-7.54v7.54h7.54v-7.54Z" class="cls-19" />
  <path
    d="M165.82 188.43h-7.54v7.54h7.54v-7.54ZM173.36 188.43h-7.54v7.54h7.54v-7.54ZM180.9 188.43h-7.54v7.54h7.54v-7.54Z"
    class="cls-15" />
  <path d="M187.18 188.43h-7.54v7.54h7.54v-7.54ZM194.72 188.43h-7.54v7.54h7.54v-7.54Z" class="cls-15" />
  <path d="M202.25 188.43h-7.54v7.54h7.54v-7.54Z" class="cls-13" />
  <path d="M209.79 188.43h-7.54v7.54h7.54v-7.54Z" class="cls-7" />
  <path d="M216.07 188.43h-7.54v7.54h7.54v-7.54Z" class="cls-40" />
  <path d="M223.61 188.43h-7.54v7.54h7.54v-7.54Z" class="cls-62" />
  <path d="M36.43 194.72h-7.54v7.54h7.54v-7.54Z" class="cls-4" />
  <path d="M42.71 194.72h-6.28v7.54h7.54v-7.54h-1.26Z" class="cls-58" />
  <path d="M50.25 194.72h-7.54v7.54h7.54v-7.54Z" class="cls-23" />
  <path d="M65.32 194.72h-7.54v7.54h7.54v-7.54ZM71.6 194.72h-6.28v7.54h7.54v-7.54H71.6Z" class="cls-38" />
  <path d="M79.14 194.72H71.6v7.54h7.54v-7.54Z" class="cls-4" />
  <path d="M86.68 194.72h-7.54v7.54h7.54v-7.54Z" class="cls-19" />
  <path
    d="M94.22 194.72h-7.54v7.54h7.54v-7.54ZM100.5 194.72h-6.28v7.54h6.28v-7.54ZM108.04 194.72h-7.54v7.54h7.54v-7.54Z"
    class="cls-15" />
  <path d="M115.57 194.72h-7.54v7.54h7.54v-7.54ZM123.11 194.72h-7.54v7.54h7.54v-7.54Z" class="cls-15" />
  <path d="M129.39 194.72h-6.28v7.54h7.54v-7.54h-1.26Z" class="cls-15" />
  <path d="M136.93 194.72h-7.54v7.54h7.54v-7.54ZM144.47 194.72h-7.54v7.54h7.54v-7.54Z" class="cls-15" />
  <path d="M152 194.72h-7.54v7.54H152v-7.54Z" class="cls-15" />
  <path
    d="M158.28 194.72h-7.54v7.54h7.54v-7.54ZM165.82 194.72h-7.54v7.54h7.54v-7.54ZM173.36 194.72h-7.54v7.54h7.54v-7.54ZM180.9 194.72h-7.54v7.54h7.54v-7.54Z"
    class="cls-15" />
  <path d="M187.18 194.72h-7.54v7.54h7.54v-7.54Z" class="cls-13" />
  <path d="M194.72 194.72h-7.54v7.54h7.54v-7.54Z" style="fill:#aa495a" />
  <path d="M202.25 194.72h-7.54v7.54h7.54v-7.54Z" class="cls-7" />
  <path d="M209.79 194.72h-7.54v7.54h7.54v-7.54Z" class="cls-40" />
  <path d="M216.07 194.72h-7.54v7.54h7.54v-7.54Z" class="cls-62" />
  <path d="M42.71 202.25h-6.28v7.54h7.54v-7.54h-1.26Z" class="cls-41" />
  <path d="M50.25 202.25h-7.54v7.54h7.54v-7.54Z" class="cls-58" />
  <path d="M65.32 202.25h-7.54v7.54h7.54v-7.54Z" class="cls-25" />
  <path d="M71.6 202.25h-6.28v7.54h7.54v-7.54H71.6Z" class="cls-38" />
  <path d="M79.14 202.25H71.6v7.54h7.54v-7.54ZM86.68 202.25h-7.54v7.54h7.54v-7.54Z" class="cls-38" />
  <path
    d="M94.22 202.25h-7.54v7.54h7.54v-7.54ZM100.5 202.25h-6.28v7.54h6.28v-7.54ZM108.04 202.25h-7.54v7.54h7.54v-7.54Z"
    class="cls-19" />
  <path d="M115.57 202.25h-7.54v7.54h7.54v-7.54ZM123.11 202.25h-7.54v7.54h7.54v-7.54Z" class="cls-15" />
  <path d="M129.39 202.25h-6.28v7.54h7.54v-7.54h-1.26Z" class="cls-15" />
  <path d="M136.93 202.25h-7.54v7.54h7.54v-7.54ZM144.47 202.25h-7.54v7.54h7.54v-7.54Z" class="cls-15" />
  <path d="M152 202.25h-7.54v7.54H152v-7.54Z" class="cls-15" />
  <path d="M158.28 202.25h-7.54v7.54h7.54v-7.54Z" class="cls-15" />
  <path
    d="M165.82 202.25h-7.54v7.54h7.54v-7.54ZM173.36 202.25h-7.54v7.54h7.54v-7.54ZM180.9 202.25h-7.54v7.54h7.54v-7.54Z"
    class="cls-13" />
  <path d="M187.18 202.25h-7.54v7.54h7.54v-7.54Z" class="cls-2" />
  <path d="M194.72 202.25h-7.54v7.54h7.54v-7.54Z" class="cls-7" />
  <path d="M202.25 202.25h-7.54v7.54h7.54v-7.54Z" class="cls-7" />
  <path d="M209.79 202.25h-7.54v7.54h7.54v-7.54Z" class="cls-62" />
  <path d="M50.25 209.79h-7.54v7.54h7.54v-7.54ZM65.32 217.33h-7.54v7.54h7.54v-7.54Z" class="cls-41" />
  <path d="M57.79 217.33h-7.54v7.54h7.54v-7.54Z" class="cls-41" />
  <path d="M65.32 217.33v-7.54h-7.54v7.54h7.54Z" class="cls-23" />
  <path d="M71.6 209.79h-6.28v7.54h7.54v-7.54H71.6Z" class="cls-25" />
  <path d="M79.14 209.79H71.6v7.54h7.54v-7.54Z" class="cls-25" />
  <path d="M86.68 209.79h-7.54v7.54h7.54v-7.54Z" class="cls-32" />
  <path
    d="M94.22 209.79h-7.54v7.54h7.54v-7.54ZM100.5 209.79h-6.28v7.54h6.28v-7.54ZM108.04 209.79h-7.54v7.54h7.54v-7.54Z"
    class="cls-38" />
  <path d="M115.57 209.79h-7.54v7.54h7.54v-7.54ZM123.11 209.79h-7.54v7.54h7.54v-7.54Z" class="cls-19" />
  <path d="M129.39 209.79h-6.28v7.54h7.54v-7.54h-1.26Z" class="cls-19" />
  <path d="M136.93 209.79h-7.54v7.54h7.54v-7.54ZM144.47 209.79h-7.54v7.54h7.54v-7.54Z" class="cls-19" />
  <path d="M152 209.79h-7.54v7.54H152v-7.54Z" class="cls-19" />
  <path d="M158.28 209.79h-7.54v7.54h7.54v-7.54Z" class="cls-19" />
  <path
    d="M165.82 209.79h-7.54v7.54h7.54v-7.54ZM173.36 209.79h-7.54v7.54h7.54v-7.54ZM180.9 209.79h-7.54v7.54h7.54v-7.54Z"
    class="cls-2" />
  <path d="M187.18 209.79h-7.54v7.54h7.54v-7.54Z" class="cls-40" />
  <path d="M194.72 209.79h-7.54v7.54h7.54v-7.54Z" class="cls-61" />
  <path d="M202.25 209.79h-7.54v7.54h7.54v-7.54Z" class="cls-50" />
  <path d="M71.6 217.33h-6.28v7.54h7.54v-7.54H71.6Z" class="cls-58" />
  <path d="M79.14 217.33H71.6v7.54h7.54v-7.54Z" class="cls-58" />
  <path d="M86.68 217.33h-7.54v7.54h7.54v-7.54Z" class="cls-25" />
  <path
    d="M94.22 217.33h-7.54v7.54h7.54v-7.54ZM100.5 217.33h-6.28v7.54h6.28v-7.54ZM108.04 217.33h-7.54v7.54h7.54v-7.54Z"
    class="cls-38" />
  <path d="M115.57 217.33h-7.54v7.54h7.54v-7.54ZM123.11 217.33h-7.54v7.54h7.54v-7.54Z" class="cls-7" />
  <path d="M129.39 217.33h-6.28v7.54h7.54v-7.54h-1.26Z" class="cls-7" />
  <path d="M136.93 217.33h-7.54v7.54h7.54v-7.54ZM144.47 217.33h-7.54v7.54h7.54v-7.54Z" class="cls-7" />
  <path d="M152 217.33h-7.54v7.54H152v-7.54Z" class="cls-7" />
  <path d="M158.28 217.33h-7.54v7.54h7.54v-7.54Z" class="cls-7" />
  <path d="M165.82 217.33h-7.54v7.54h7.54v-7.54ZM173.36 217.33h-7.54v7.54h7.54v-7.54Z" class="cls-40" />
  <path d="M180.9 217.33h-7.54v7.54h7.54v-7.54Z" class="cls-50" />
  <path d="M187.18 217.33h-7.54v7.54h7.54v-7.54Z" class="cls-50" />
  <path d="M71.6 223.61h-6.28v7.54h7.54v-7.54H71.6Z" class="cls-41" />
  <path d="M79.14 223.61H71.6v7.54h7.54v-7.54Z" class="cls-41" />
  <path d="M86.68 223.61h-7.54v7.54h7.54v-7.54Z" class="cls-60" />
  <path d="M94.22 223.61h-7.54v7.54h7.54v-7.54ZM100.5 223.61h-6.28v7.54h6.28v-7.54Z" class="cls-60" />
  <path d="M108.04 223.61h-7.54v7.54h7.54v-7.54Z" class="cls-66" />
  <path d="M115.57 223.61h-7.54v7.54h7.54v-7.54ZM123.11 223.61h-7.54v7.54h7.54v-7.54Z" class="cls-29" />
  <path d="M129.39 223.61h-6.28v7.54h7.54v-7.54h-1.26Z" class="cls-33" />
  <path d="M136.93 223.61h-7.54v7.54h7.54v-7.54ZM144.47 223.61h-7.54v7.54h7.54v-7.54Z" class="cls-33" />
  <path d="M152 223.61h-7.54v7.54H152v-7.54Z" class="cls-33" />
  <path d="M158.28 223.61h-7.54v7.54h7.54v-7.54Z" class="cls-33" />
  <path d="M165.82 223.61h-7.54v7.54h7.54v-7.54ZM173.36 223.61h-7.54v7.54h7.54v-7.54Z" class="cls-61" />
  <path d="M86.68 231.15h-7.54v7.54h7.54v-7.54Z" class="cls-41" />
  <path
    d="M94.22 231.15h-7.54v7.54h7.54v-7.54ZM100.5 231.15h-6.28v7.54h6.28v-7.54ZM108.04 231.15h-7.54v7.54h7.54v-7.54Z"
    class="cls-41" />
  <path d="M115.57 231.15h-7.54v7.54h7.54v-7.54ZM123.11 231.15h-7.54v7.54h7.54v-7.54Z" class="cls-4" />
  <path d="M129.39 231.15h-6.28v7.54h7.54v-7.54h-1.26Z" class="cls-4" />
  <path d="M136.93 231.15h-7.54v7.54h7.54v-7.54ZM144.47 231.15h-7.54v7.54h7.54v-7.54Z" class="cls-4" />
  <path d="M152 231.15h-7.54v7.54H152v-7.54Z" class="cls-4" />
  <path d="M158.28 231.15h-7.54v7.54h7.54v-7.54Z" class="cls-4" />
  <path d="M57.79 21.36h-7.54v7.54h7.54v-7.54Z" class="cls-50" />
  <path d="M57.79 28.89h-7.54v7.54h7.54v-7.54Z" class="cls-35" />
  <path d="M57.79 36.43h-7.54v7.54h7.54v-7.54Z" class="cls-67" />
  <path d="M57.79 43.97h-7.54v6.28h7.54v-6.28Z" class="cls-11" />
  <path d="M57.79 50.25h-7.54v7.54h7.54v-7.54Z" class="cls-27" />
  <path d="M57.79 57.79h-7.54v7.54h7.54v-7.54Z" class="cls-57" />
  <path d="M57.79 65.32h-7.54v7.54h7.54v-7.54Z" class="cls-57" />
  <path d="M57.79 72.86h-7.54v7.54h7.54v-7.54Z" class="cls-15" />
  <path d="M57.79 79.14h-7.54v7.54h7.54v-7.54ZM57.79 86.68h-7.54v7.54h7.54v-7.54Z" class="cls-15" />
  <path d="M57.79 94.22h-7.54v7.54h7.54v-7.54Z" class="cls-15" />
  <path d="M57.79 101.75h-7.54v7.54h7.54v-7.54Z" class="cls-15" />
  <path d="M57.79 108.04h-7.54v7.54h7.54v-7.54Z" class="cls-15" />
  <path d="M57.79 115.57h-7.54v7.54h7.54v-7.54ZM57.79 123.11h-7.54v7.54h7.54v-7.54ZM57.79 130.65h-7.54v7.54h7.54v-7.54Z"
    class="cls-15" />
  <path d="M57.79 136.93h-7.54v7.54h7.54v-7.54ZM57.79 144.47h-7.54v7.54h7.54v-7.54Z" class="cls-15" />
  <path d="M57.79 152h-7.54v7.54h7.54V152Z" class="cls-15" />
  <path d="M57.79 159.54h-7.54v7.54h7.54v-7.54Z" class="cls-19" />
  <path d="M57.79 165.82h-7.54v7.54h7.54v-7.54Z" style="fill:#212a29" />
  <path d="M57.79 173.36h-7.54v7.54h7.54v-7.54Z" class="cls-4" />
  <path d="M57.79 180.9h-7.54v7.54h7.54v-7.54Z" style="fill:#f1f2f4" />
  <path d="M57.79 188.43h-7.54v7.54h7.54v-7.54Z" style="fill:#e6e7e9" />
  <path d="M57.79 194.72h-7.54v7.54h7.54v-7.54Z" class="cls-25" />
  <path d="M57.79 202.25h-7.54v7.54h7.54v-7.54Z" class="cls-23" />
  <path d="M57.79 209.79h-7.54v7.54h7.54v-7.54Z" class="cls-58" />
</svg>