<svg xmlns="http://www.w3.org/2000/svg" xmlns:xlink="http://www.w3.org/1999/xlink" xml:space="preserve" id="Ebene_1"
  x="0" y="0" style="enable-background:new 0 0 171 19" version="1.1" viewBox="0 0 171 19">
  <style>
    .st1 {
      fill: #060606
    }

    .st3 {
      fill: #565e61
    }

    .st4 {
      fill: #697878
    }

    .st5 {
      fill: #818990
    }

    .st6 {
      fill: #424e51
    }

    .st7 {
      fill: #b0b4b8
    }

    .st8 {
      fill: #c7c9ce
    }

    .st9 {
      fill: #707980
    }

    .st10 {
      fill: #435050
    }

    .st11 {
      fill: #1e292a
    }

    .st12 {
      fill: #4c5755
    }

    .st13 {
      fill: #fafafa
    }

    .st14 {
      fill: #070808
    }

    .st15 {
      fill: #903547
    }

    .st16 {
      fill: #c6c7ca
    }

    .st17 {
      fill: #d2d2d6
    }

    .st18 {
      fill: #b65767
    }

    .st19 {
      fill: #cdcdd1
    }

    .st21 {
      fill: #e6e6f0
    }

    .st23 {
      fill: #4d625f
    }

    .st24 {
      fill: #dadadf
    }

    .st25 {
      fill: #42514d
    }

    .st26 {
      fill: #e3e2eb
    }

    .st27 {
      fill: #121919
    }

    .st28 {
      fill: #060707
    }

    .st32 {
      fill: #fff
    }

    .st34 {
      fill: #747b83
    }

    .st35 {
      fill: #2d3f3a
    }

    .st36 {
      fill: #f1f1f4
    }

    .st37 {
      fill: #8c3647
    }

    .st38 {
      fill: #1c252e
    }

    .st39 {
      fill: #dcdbe0
    }

    .st40 {
      fill: #c2c5c9
    }

    .st41 {
      fill: #364442
    }

    .st42 {
      fill: #b8b8d3
    }

    .st44 {
      fill: #babad5
    }

    .st48 {
      fill: #303b3c
    }

    .st52 {
      fill: #8d8f92
    }

    .st53 {
      fill: #d8d8db
    }

    .st54 {
      fill: #591e29
    }

    .st55 {
      fill: #e8e9eb
    }

    .st57 {
      fill: #983b4c
    }

    .st58 {
      fill: #263234
    }

    .st59 {
      fill: #d4d6d9
    }

    .st61 {
      fill: #162122
    }

    .st62 {
      fill: #f7f8f9
    }

    .st63 {
      fill: #283334
    }

    .st64 {
      fill: #a3a4a8
    }

    .st65 {
      fill: #babbc1
    }

    .st66 {
      fill: #000000;
    }
  </style>
  <defs>
    <path id="SVGID_1_" d="M0 0h171v19H0z" />
  </defs>
  <clipPath id="SVGID_00000183950162244463719020000007172789315513582485_">
    <use xlink:href="#SVGID_1_" style="overflow:visible" />
  </clipPath>
  <g style="clip-path:url(#SVGID_00000183950162244463719020000007172789315513582485_)">
    <path d="M8 0h-.5v.6H8V0zM8.6 0H8v.6h.6V0zM9.2 0h-.6v.6h.6V0zM9.8 0h-.6v.6h.6V0zM10.3 0h-.5v.6h.6V0h-.1z"
      class="st1" />
    <path d="M10.9 0h-.6v.6h.6V0zM11.5 0h-.6v.6h.6V0zM12.1 0h-.6v.6h.6V0z" class="st1" />
    <path d="M12.6 0H12v.6h.6V0zM6.3.6h-.6v.6h.6V.6zM6.9.6h-.6v.6h.6V.6z" class="st1" />
    <path d="M7.5.6h-.6v.6h.6V.6z" style="fill:#1c2525" />
    <path d="M8 .6h-.5v.6H8V.6zM8.6.6H8v.6h.6V.6z" class="st3" />
    <path d="M9.2.6h-.6v.6h.6V.6z" class="st4" />
    <path d="M9.8.6h-.6v.6h.6V.6zM10.3.6h-.5v.6h.6V.6h-.1z" class="st5" />
    <path d="M10.9.6h-.6v.6h.6V.6zM11.5.6h-.6v.6h.6V.6zM12.1.6h-.6v.6h.6V.6z" class="st5" />
    <path d="M12.6.6H12v.6h.6V.6z" class="st5" />
    <path d="M13.2.6h-.6v.6h.6V.6z" class="st1" />
    <path d="M13.8.6h-.6v.6h.6V.6z" />
    <path d="M5.2 1.2h-.6v.6h.6v-.6zM5.7 1.2h-.5v.6h.6l-.1-.6z" class="st1" />
    <path d="M6.3 1.2h-.6v.6h.6v-.6zM6.9 1.2h-.6v.6h.6v-.6z" class="st3" />
    <path d="M7.5 1.2h-.6v.6h.6v-.6z" class="st6" />
    <path d="M8 1.2h-.5v.6H8v-.6zM8.6 1.2H8v.6h.6v-.6z" class="st7" />
    <path d="M9.2 1.2h-.6v.6h.6v-.6zM9.8 1.2h-.6v.6h.6v-.6zM10.3 1.2h-.5v.6h.6v-.6h-.1z" class="st8" />
    <path d="M10.9 1.2h-.6v.6h.6v-.6zM11.5 1.2h-.6v.6h.6v-.6zM12.1 1.2h-.6v.6h.6v-.6z" class="st8" />
    <path d="M12.6 1.2H12v.6h.6v-.6z" class="st8" />
    <path d="M13.2 1.2h-.6v.6h.6v-.6zM13.8 1.2h-.6v.6h.6v-.6z" class="st4" />
    <path d="M14.4 1.2h-.6v.6h.6v-.6z" />
    <path d="M14.9 1.2h-.6v.6h.6v-.6z" />
    <path d="M5.2 1.7h-.6v.6h.6v-.6zM5.7 1.7h-.5v.6h.6l-.1-.6z" class="st9" />
    <path d="M6.3 1.7h-.6v.6h.6v-.6zM6.9 1.7h-.6v.6h.6v-.6z" class="st10" />
    <path d="M7.5 1.7h-.6v.6h.6v-.6zM8 1.7h-.5v.6H8v-.6zM8.6 1.7H8v.6h.6v-.6z" class="st8" />
    <path d="M9.2 1.7h-.6v.6h.6v-.6z" class="st1" />
    <path d="M9.8 1.7h-.6v.6h.6v-.6zM10.3 1.7h-.5v.6h.6v-.6h-.1z" />
    <path d="M10.9 1.7h-.6v.6h.6v-.6zM11.5 1.7h-.6v.6h.6v-.6zM12.1 1.7h-.6v.6h.6v-.6z" />
    <path d="M12.6 1.7H12v.6h.6v-.6z" />
    <path d="M13.2 1.7h-.6v.6h.6v-.6zM13.8 1.7h-.6v.6h.6v-.6zM14.4 1.7h-.6v.6h.6v-.6z" class="st8" />
    <path d="M14.9 1.7h-.6v.6h.6v-.6z" class="st8" />
    <path d="M15.5 1.7h-.6v.6h.6v-.6zM16.1 1.7h-.6v.6h.6v-.6zM3.4 2.3h-.5v.6h.6l-.1-.6z" class="st1" />
    <path d="M4 2.3h-.6v.6H4v-.6z" class="st11" />
    <path d="M5.2 2.3h-.6v.6h.6v-.6zM5.7 2.3h-.5v.6h.6l-.1-.6z" class="st12" />
    <path d="M6.3 2.3h-.6v.6h.6v-.6zM6.9 2.3h-.6v.6h.6v-.6z" class="st13" />
    <path d="M7.5 2.3h-.6v.6h.6v-.6zM8 2.3h-.5v.6H8v-.6zM8.6 2.3H8v.6h.6v-.6z" class="st14" />
    <path d="M9.2 2.3h-.6v.6h.6v-.6zM9.8 2.3h-.6v.6h.6v-.6zM10.3 2.3h-.5v.6h.6v-.6h-.1z" class="st15" />
    <path d="M10.9 2.3h-.6v.6h.6v-.6zM11.5 2.3h-.6v.6h.6v-.6zM12.1 2.3h-.6v.6h.6v-.6z" class="st15" />
    <path d="M12.6 2.3H12v.6h.6v-.6z" class="st15" />
    <path d="M13.2 2.3h-.6v.6h.6v-.6zM13.8 2.3h-.6v.6h.6v-.6zM14.4 2.3h-.6v.6h.6v-.6z" />
    <path d="M14.9 2.3h-.6v.6h.6v-.6zM15.5 2.3h-.6v.6h.6v-.6zM16.1 2.3h-.6v.6h.6v-.6z" class="st8" />
    <path d="M16.7 2.3h-.6v.6h.6v-.6zM2.9 2.9h-.6v.6h.6v-.6z" class="st1" />
    <path d="M3.4 2.9h-.5v.6h.6l-.1-.6z" class="st5" />
    <path d="M4 2.9h-.6v.6H4v-.6z" class="st16" />
    <path d="M5.2 2.9h-.6v.6h.6v-.6z" class="st17" />
    <path d="M5.7 2.9h-.5v.6h.6l-.1-.6z" class="st13" />
    <path d="M6.3 2.9h-.6v.6h.6v-.6zM6.9 2.9h-.6v.6h.6v-.6z" class="st14" />
    <path d="M7.5 2.9h-.6v.6h.6v-.6zM8 2.9h-.5v.6H8v-.6zM8.6 2.9H8v.6h.6v-.6z" class="st15" />
    <path d="M9.2 2.9h-.6v.6h.6v-.6zM9.8 2.9h-.6v.6h.6v-.6zM10.3 2.9h-.5v.6h.6v-.6h-.1z" class="st18" />
    <path d="M10.9 2.9h-.6v.6h.6v-.6zM11.5 2.9h-.6v.6h.6v-.6zM12.1 2.9h-.6v.6h.6v-.6z" class="st18" />
    <path d="M12.6 2.9H12v.6h.6v-.6z" class="st18" />
    <path d="M13.2 2.9h-.6v.6h.6v-.6z" class="st15" />
    <path d="M13.8 2.9h-.6v.6h.6v-.6zM14.4 2.9h-.6v.6h.6v-.6z" class="st18" />
    <path d="M14.9 2.9h-.6v.6h.6v-.6z" class="st15" />
    <path d="M15.5 2.9h-.6v.6h.6v-.6z" />
    <path d="M16.1 2.9h-.6v.6h.6v-.6z" class="st8" />
    <path d="M16.7 2.9h-.6v.6h.6v-.6z" class="st8" />
    <path d="M17.2 2.9h-.6v.6h.6v-.6zM2.3 3.5h-.6V4h.6v-.5z" class="st1" />
    <path d="M2.9 3.5h-.6V4h.6v-.5zM3.4 3.5h-.5V4h.6l-.1-.5z" class="st16" />
    <path d="M4 3.5h-.6V4H4v-.5z" class="st10" />
    <path d="M5.2 3.5h-.6V4h.6v-.5z" class="st19" />
    <path d="M5.7 3.5h-.5V4h.6l-.1-.5z" class="st14" />
    <path d="M6.3 3.5h-.6V4h.6v-.5z" class="st15" />
    <path
      d="M6.9 3.5h-.6V4h.6v-.5zM7.5 3.5h-.6V4h.6v-.5zM8 3.5h-.5V4H8v-.5zM8.6 3.5H8V4h.6v-.5zM9.2 3.5h-.6V4h.6v-.5zM9.8 3.5h-.6V4h.6v-.5zM10.3 3.5h-.5V4h.6v-.5h-.1z"
      class="st18" />
    <path d="M10.9 3.5h-.6V4h.6v-.5zM11.5 3.5h-.6V4h.6v-.5zM12.1 3.5h-.6V4h.6v-.5z" class="st18" />
    <path d="M12.6 3.5H12V4h.6v-.5zM13.2 3.5h-.6V4h.6v-.5zM13.8 3.5h-.6V4h.6v-.5zM14.4 3.5h-.6V4h.6v-.5z"
      class="st18" />
    <path d="M14.9 3.5h-.6V4h.6v-.5z" class="st18" />
    <path d="M15.5 3.5h-.6V4h.6v-.5z" class="st15" />
    <path d="M16.1 3.5h-.6V4h.6v-.5z" />
    <path d="M16.7 3.5h-.6V4h.6v-.5z" class="st8" />
    <path d="M17.2 3.5h-.6V4h.6v-.5z" class="st8" />
    <path d="M17.8 3.5h-.6V4h.6v-.5zM2.3 4h-.6v.6h.6V4z" class="st1" />
    <path d="M2.9 4h-.6v.6h.6V4z" class="st16" />
    <path d="M3.4 4h-.5v.6h.6L3.4 4z" style="fill:#374443" />
    <path d="M4 4h-.6v.6H4V4z" class="st17" />
    <path d="M5.2 4h-.6v.6h.6V4z" class="st1" />
    <path d="M5.7 4h-.5v.6h.6L5.7 4z" class="st15" />
    <path d="M6.3 4h-.6v.6h.6V4zM6.9 4h-.6v.6h.6V4zM7.5 4h-.6v.6h.6V4zM8 4h-.5v.6H8V4zM8.6 4H8v.6h.6V4z" class="st18" />
    <path d="M9.2 4h-.6v.6h.6V4zM9.8 4h-.6v.6h.6V4zM10.3 4h-.5v.6h.6V4h-.1z" class="st21" />
    <path d="M10.9 4h-.6v.6h.6V4zM11.5 4h-.6v.6h.6V4zM12.1 4h-.6v.6h.6V4z" class="st21" />
    <path d="M12.6 4H12v.6h.6V4z" class="st21" />
    <path d="M13.2 4h-.6v.6h.6V4zM13.8 4h-.6v.6h.6V4zM14.4 4h-.6v.6h.6V4z" class="st18" />
    <path d="M14.9 4h-.6v.6h.6V4zM15.5 4h-.6v.6h.6V4z" class="st18" />
    <path d="M16.1 4h-.6v.6h.6V4z" class="st15" />
    <path d="M16.7 4h-.6v.6h.6V4z" />
    <path d="M17.2 4h-.6v.6h.6V4z" class="st8" />
    <path d="M17.8 4h-.6v.6h.6V4z" style="fill:#303a3b" />
    <path d="M1.7 4.6h-.6v.6h.6v-.6z" class="st1" />
    <path d="M2.3 4.6h-.6v.6h.6v-.6z" class="st16" />
    <path d="M2.9 4.6h-.6v.6h.6v-.6z" class="st23" />
    <path d="M3.4 4.6h-.5v.6h.6l-.1-.6z" class="st24" />
    <path d="M4 4.6h-.6v.6H4v-.6z" class="st24" />
    <path d="M5.2 4.6h-.6v.6h.6v-.6z" class="st15" />
    <path d="M5.7 4.6h-.5v.6h.6l-.1-.6z" class="st18" />
    <path
      d="M6.3 4.6h-.6v.6h.6v-.6zM6.9 4.6h-.6v.6h.6v-.6zM7.5 4.6h-.6v.6h.6v-.6zM8 4.6h-.5v.6H8v-.6zM8.6 4.6H8v.6h.6v-.6z"
      class="st18" />
    <path d="M9.2 4.6h-.6v.6h.6v-.6zM9.8 4.6h-.6v.6h.6v-.6zM10.3 4.6h-.5v.6h.6v-.6h-.1z" class="st21" />
    <path d="M10.9 4.6h-.6v.6h.6v-.6zM11.5 4.6h-.6v.6h.6v-.6zM12.1 4.6h-.6v.6h.6v-.6z" class="st21" />
    <path d="M12.6 4.6H12v.6h.6v-.6z" class="st21" />
    <path d="M13.2 4.6h-.6v.6h.6v-.6zM13.8 4.6h-.6v.6h.6v-.6zM14.4 4.6h-.6v.6h.6v-.6z" class="st18" />
    <path d="M14.9 4.6h-.6v.6h.6v-.6zM15.5 4.6h-.6v.6h.6v-.6zM16.1 4.6h-.6v.6h.6v-.6z" class="st18" />
    <path d="M16.7 4.6h-.6v.6h.6v-.6z" class="st15" />
    <path d="M17.2 4.6h-.6v.6h.6v-.6z" class="st25" />
    <path d="M17.8 4.6h-.6v.6h.6v-.6z" class="st26" />
    <path d="M18.4 4.6h-.6v.6h.6v-.6z" class="st1" />
    <path d="M1.7 5.2h-.6v.6h.6v-.6z" class="st27" />
    <path d="M2.3 5.2h-.6v.6h.6v-.6z" class="st16" />
    <path d="M2.9 5.2h-.6v.6h.6v-.6z" class="st23" />
    <path d="M3.4 5.2h-.5v.6h.6l-.1-.6z" class="st24" />
    <path d="M4 5.2h-.6v.6H4v-.6z" class="st24" />
    <path d="M5.2 5.2h-.6v.6h.6v-.6zM5.7 5.2h-.5v.6h.6l-.1-.6z" class="st18" />
    <path
      d="M6.3 5.2h-.6v.6h.6v-.6zM6.9 5.2h-.6v.6h.6v-.6zM7.5 5.2h-.6v.6h.6v-.6zM8 5.2h-.5v.6H8v-.6zM8.6 5.2H8v.6h.6v-.6z"
      class="st18" />
    <path d="M9.2 5.2h-.6v.6h.6v-.6zM9.8 5.2h-.6v.6h.6v-.6zM10.3 5.2h-.5v.6h.6v-.6h-.1z" class="st21" />
    <path d="M10.9 5.2h-.6v.6h.6v-.6zM11.5 5.2h-.6v.6h.6v-.6zM12.1 5.2h-.6v.6h.6v-.6z" class="st21" />
    <path d="M12.6 5.2H12v.6h.6v-.6z" class="st21" />
    <path d="M13.2 5.2h-.6v.6h.6v-.6zM13.8 5.2h-.6v.6h.6v-.6zM14.4 5.2h-.6v.6h.6v-.6z" class="st18" />
    <path d="M14.9 5.2h-.6v.6h.6v-.6zM15.5 5.2h-.6v.6h.6v-.6zM16.1 5.2h-.6v.6h.6v-.6z" class="st18" />
    <path d="M16.7 5.2h-.6v.6h.6v-.6z" class="st15" />
    <path d="M17.2 5.2h-.6v.6h.6v-.6z" class="st25" />
    <path d="M17.8 5.2h-.6v.6h.6v-.6z" class="st26" />
    <path d="M18.4 5.2h-.6v.6h.6v-.6z" class="st28" />
    <path d="M1.7 5.8h-.6v.6h.6v-.6z" class="st27" />
    <path d="M2.3 5.8h-.6v.6h.6v-.6z" class="st16" />
    <path d="M2.9 5.8h-.6v.6h.6v-.6z" style="fill:#354a46" />
    <path d="M3.4 5.8h-.5v.6h.6l-.1-.6z" class="st24" />
    <path d="M4 5.8h-.6v.6H4v-.6z" class="st14" />
    <path d="M5.2 5.8h-.6v.6h.6v-.6zM5.7 5.8h-.5v.6h.6l-.1-.6z" class="st18" />
    <path
      d="M6.3 5.8h-.6v.6h.6v-.6zM6.9 5.8h-.6v.6h.6v-.6zM7.5 5.8h-.6v.6h.6v-.6zM8 5.8h-.5v.6H8v-.6zM8.6 5.8H8v.6h.6v-.6z"
      class="st18" />
    <path d="M9.2 5.8h-.6v.6h.6v-.6zM9.8 5.8h-.6v.6h.6v-.6zM10.3 5.8h-.5v.6h.6v-.6h-.1z" class="st21" />
    <path d="M10.9 5.8h-.6v.6h.6v-.6zM11.5 5.8h-.6v.6h.6v-.6zM12.1 5.8h-.6v.6h.6v-.6z" class="st21" />
    <path d="M12.6 5.8H12v.6h.6v-.6z" class="st21" />
    <path d="M13.2 5.8h-.6v.6h.6v-.6zM13.8 5.8h-.6v.6h.6v-.6zM14.4 5.8h-.6v.6h.6v-.6z" class="st18" />
    <path d="M14.9 5.8h-.6v.6h.6v-.6zM15.5 5.8h-.6v.6h.6v-.6zM16.1 5.8h-.6v.6h.6v-.6z" class="st18" />
    <path d="M16.7 5.8h-.6v.6h.6v-.6z" class="st18" />
    <path d="M17.2 5.8h-.6v.6h.6v-.6z" class="st15" />
    <path d="M17.8 5.8h-.6v.6h.6v-.6z" class="st6" />
    <path d="M18.4 5.8h-.6v.6h.6v-.6z" class="st19" />
    <path d="M19 5.8h-.6v.6h.6v-.6zM1.1 6.3H.6v.6h.6v-.6h-.1z" class="st1" />
    <path d="M1.7 6.3h-.6v.6h.6v-.6z" class="st16" />
    <path d="M2.3 6.3h-.6v.6h.6v-.6z" class="st23" />
    <path d="M2.9 6.3h-.6v.6h.6v-.6z" style="fill:#f3f3f5" />
    <path d="M3.4 6.3h-.5v.6h.6l-.1-.6z" class="st24" />
    <path d="M4 6.3h-.6v.6H4v-.6z" />
    <path d="M5.2 6.3h-.6v.6h.6v-.6zM5.7 6.3h-.5v.6h.6l-.1-.6z" class="st18" />
    <path
      d="M6.3 6.3h-.6v.6h.6v-.6zM6.9 6.3h-.6v.6h.6v-.6zM7.5 6.3h-.6v.6h.6v-.6zM8 6.3h-.5v.6H8v-.6zM8.6 6.3H8v.6h.6v-.6z"
      class="st18" />
    <path d="M9.2 6.3h-.6v.6h.6v-.6zM9.8 6.3h-.6v.6h.6v-.6zM10.3 6.3h-.5v.6h.6v-.6h-.1z" class="st21" />
    <path d="M10.9 6.3h-.6v.6h.6v-.6zM11.5 6.3h-.6v.6h.6v-.6zM12.1 6.3h-.6v.6h.6v-.6z" class="st21" />
    <path d="M12.6 6.3H12v.6h.6v-.6z" class="st21" />
    <path d="M13.2 6.3h-.6v.6h.6v-.6zM13.8 6.3h-.6v.6h.6v-.6zM14.4 6.3h-.6v.6h.6v-.6z" class="st18" />
    <path d="M14.9 6.3h-.6v.6h.6v-.6zM15.5 6.3h-.6v.6h.6v-.6zM16.1 6.3h-.6v.6h.6v-.6z" class="st18" />
    <path d="M16.7 6.3h-.6v.6h.6v-.6z" class="st18" />
    <path d="M17.2 6.3h-.6v.6h.6v-.6z" class="st18" />
    <path d="M17.8 6.3h-.6v.6h.6v-.6z" class="st6" />
    <path d="M18.4 6.3h-.6v.6h.6v-.6z" class="st19" />
    <path d="M19 6.3h-.6v.6h.6v-.6z" class="st11" />
    <path d="M1.1 6.9H.6v.6h.6v-.6h-.1z" class="st1" />
    <path d="M1.7 6.9h-.6v.6h.6v-.6z" class="st7" />
    <path d="M2.3 6.9h-.6v.6h.6v-.6z" style="fill:#364b49" />
    <path d="M2.9 6.9h-.6v.6h.6v-.6zM3.4 6.9h-.5v.6h.6l-.1-.6z" class="st24" />
    <path d="M4 6.9h-.6v.6H4v-.6z" />
    <path d="M5.2 6.9h-.6v.6h.6v-.6zM5.7 6.9h-.5v.6h.6l-.1-.6z" class="st18" />
    <path
      d="M6.3 6.9h-.6v.6h.6v-.6zM6.9 6.9h-.6v.6h.6v-.6zM7.5 6.9h-.6v.6h.6v-.6zM8 6.9h-.5v.6H8v-.6zM8.6 6.9H8v.6h.6v-.6z"
      class="st18" />
    <path d="M9.2 6.9h-.6v.6h.6v-.6z" class="st32" />
    <path d="M9.8 6.9h-.6v.6h.6v-.6zM10.3 6.9h-.5v.6h.6v-.6h-.1z" class="st21" />
    <path d="M10.9 6.9h-.6v.6h.6v-.6zM11.5 6.9h-.6v.6h.6v-.6zM12.1 6.9h-.6v.6h.6v-.6z" class="st21" />
    <path d="M12.6 6.9H12v.6h.6v-.6z" class="st21" />
    <path d="M13.2 6.9h-.6v.6h.6v-.6zM13.8 6.9h-.6v.6h.6v-.6zM14.4 6.9h-.6v.6h.6v-.6z" class="st18" />
    <path d="M14.9 6.9h-.6v.6h.6v-.6zM15.5 6.9h-.6v.6h.6v-.6zM16.1 6.9h-.6v.6h.6v-.6z" class="st18" />
    <path d="M16.7 6.9h-.6v.6h.6v-.6z" class="st18" />
    <path d="M17.2 6.9h-.6v.6h.6v-.6z" class="st18" />
    <path d="M17.8 6.9h-.6v.6h.6v-.6z" style="fill:#313d3f" />
    <path d="M18.4 6.9h-.6v.6h.6v-.6z" class="st19" />
    <path d="M19 6.9h-.6v.6h.6v-.6z" class="st11" />
    <path d="M.6 7.5H0v.6h.6v-.6z" />
    <path d="M1.1 7.5H.6v.6h.6v-.6h-.1z" class="st34" />
    <path d="M1.7 7.5h-.6v.6h.6v-.6z" class="st35" />
    <path d="M2.3 7.5h-.6v.6h.6v-.6zM2.9 7.5h-.6v.6h.6v-.6z" class="st36" />
    <path d="M3.4 7.5h-.5v.6h.6l-.1-.6z" />
    <path d="M4 7.5h-.6v.6H4v-.6zM5.2 7.5h-.6v.6h.6v-.6z" class="st18" />
    <path d="M5.7 7.5h-.5v.6h.6l-.1-.6z" class="st32" />
    <path
      d="M6.3 7.5h-.6v.6h.6v-.6zM6.9 7.5h-.6v.6h.6v-.6zM7.5 7.5h-.6v.6h.6v-.6zM8 7.5h-.5v.6H8v-.6zM8.6 7.5H8v.6h.6v-.6zM9.2 7.5h-.6v.6h.6v-.6z"
      class="st32" />
    <path d="M9.8 7.5h-.6v.6h.6v-.6zM10.3 7.5h-.5v.6h.6v-.6h-.1z" class="st21" />
    <path d="M10.9 7.5h-.6v.6h.6v-.6zM11.5 7.5h-.6v.6h.6v-.6zM12.1 7.5h-.6v.6h.6v-.6z" class="st21" />
    <path d="M12.6 7.5H12v.6h.6v-.6z" class="st21" />
    <path d="M13.2 7.5h-.6v.6h.6v-.6zM13.8 7.5h-.6v.6h.6v-.6zM14.4 7.5h-.6v.6h.6v-.6z" class="st32" />
    <path d="M14.9 7.5h-.6v.6h.6v-.6zM15.5 7.5h-.6v.6h.6v-.6z" class="st32" />
    <path d="M16.1 7.5h-.6v.6h.6v-.6z" class="st21" />
    <path d="M16.7 7.5h-.6v.6h.6v-.6z" class="st18" />
    <path d="M17.2 7.5h-.6v.6h.6v-.6z" class="st18" />
    <path d="M17.8 7.5h-.6v.6h.6v-.6z" class="st37" />
    <path d="M18.4 7.5h-.6v.6h.6v-.6z" class="st38" />
    <path d="M19 7.5h-.6v.6h.6v-.6z" class="st39" />
    <path d="M19.5 7.5H19v.6h.6v-.6h-.1zM.6 8.1H0v.6h.6v-.6z" />
    <path d="M1.1 8.1H.6v.6h.6v-.6h-.1z" class="st40" />
    <path d="M1.7 8.1h-.6v.6h.6v-.6z" class="st41" />
    <path d="M2.3 8.1h-.6v.6h.6v-.6zM2.9 8.1h-.6v.6h.6v-.6z" class="st36" />
    <path d="M3.4 8.1h-.5v.6h.6l-.1-.6z" />
    <path d="M4 8.1h-.6v.6H4v-.6zM5.2 8.1h-.6v.6h.6v-.6z" class="st18" />
    <path d="M5.7 8.1h-.5v.6h.6l-.1-.6z" class="st32" />
    <path
      d="M6.3 8.1h-.6v.6h.6v-.6zM6.9 8.1h-.6v.6h.6v-.6zM7.5 8.1h-.6v.6h.6v-.6zM8 8.1h-.5v.6H8v-.6zM8.6 8.1H8v.6h.6v-.6zM9.2 8.1h-.6v.6h.6v-.6zM9.8 8.1h-.6v.6h.6v-.6zM10.3 8.1h-.5v.6h.6v-.6h-.1z"
      class="st21" />
    <path d="M10.9 8.1h-.6v.6h.6v-.6zM11.5 8.1h-.6v.6h.6v-.6zM12.1 8.1h-.6v.6h.6v-.6z" class="st21" />
    <path d="M12.6 8.1H12v.6h.6v-.6zM13.2 8.1h-.6v.6h.6v-.6zM13.8 8.1h-.6v.6h.6v-.6zM14.4 8.1h-.6v.6h.6v-.6z"
      class="st21" />
    <path d="M14.9 8.1h-.6v.6h.6v-.6zM15.5 8.1h-.6v.6h.6v-.6zM16.1 8.1h-.6v.6h.6v-.6z" class="st21" />
    <path d="M16.7 8.1h-.6v.6h.6v-.6z" class="st18" />
    <path d="M17.2 8.1h-.6v.6h.6v-.6z" class="st18" />
    <path d="M17.8 8.1h-.6v.6h.6v-.6z" class="st37" />
    <path d="M18.4 8.1h-.6v.6h.6v-.6z" class="st38" />
    <path d="M19 8.1h-.6v.6h.6v-.6z" class="st39" />
    <path d="M19.5 8.1H19v.6h.6v-.6h-.1zM.6 8.6H0v.6h.6v-.6z" />
    <path d="M1.1 8.6H.6v.6h.6v-.6h-.1z" class="st40" />
    <path d="M1.7 8.6h-.6v.6h.6v-.6z" class="st41" />
    <path d="M2.3 8.6h-.6v.6h.6v-.6zM2.9 8.6h-.6v.6h.6v-.6z" class="st36" />
    <path d="M3.4 8.6h-.5v.6h.6l-.1-.6z" />
    <path d="M4 8.6h-.6v.6H4v-.6zM5.2 8.6h-.6v.6h.6v-.6z" class="st18" />
    <path d="M5.7 8.6h-.5v.6h.6l-.1-.6z" class="st32" />
    <path
      d="M6.3 8.6h-.6v.6h.6v-.6zM6.9 8.6h-.6v.6h.6v-.6zM7.5 8.6h-.6v.6h.6v-.6zM8 8.6h-.5v.6H8v-.6zM8.6 8.6H8v.6h.6v-.6zM9.2 8.6h-.6v.6h.6v-.6zM9.8 8.6h-.6v.6h.6v-.6zM10.3 8.6h-.5v.6h.6v-.6h-.1z"
      class="st21" />
    <path d="M10.9 8.6h-.6v.6h.6v-.6zM11.5 8.6h-.6v.6h.6v-.6zM12.1 8.6h-.6v.6h.6v-.6z" class="st21" />
    <path d="M12.6 8.6H12v.6h.6v-.6zM13.2 8.6h-.6v.6h.6v-.6zM13.8 8.6h-.6v.6h.6v-.6zM14.4 8.6h-.6v.6h.6v-.6z"
      class="st21" />
    <path d="M14.9 8.6h-.6v.6h.6v-.6zM15.5 8.6h-.6v.6h.6v-.6zM16.1 8.6h-.6v.6h.6v-.6z" class="st21" />
    <path d="M16.7 8.6h-.6v.6h.6v-.6z" class="st18" />
    <path d="M17.2 8.6h-.6v.6h.6v-.6z" class="st18" />
    <path d="M17.8 8.6h-.6v.6h.6v-.6z" class="st37" />
    <path d="M18.4 8.6h-.6v.6h.6v-.6z" class="st38" />
    <path d="M19 8.6h-.6v.6h.6v-.6z" class="st39" />
    <path d="M19.5 8.6H19v.6h.6v-.6h-.1zM.6 9.2H0v.6h.6v-.6z" />
    <path d="M1.1 9.2H.6v.6h.6v-.6h-.1z" class="st40" />
    <path d="M1.7 9.2h-.6v.6h.6v-.6z" class="st41" />
    <path d="M2.3 9.2h-.6v.6h.6v-.6zM2.9 9.2h-.6v.6h.6v-.6z" class="st36" />
    <path d="M3.4 9.2h-.5v.6h.6l-.1-.6z" />
    <path d="M4 9.2h-.6v.6H4v-.6zM5.2 9.2h-.6v.6h.6v-.6z" class="st18" />
    <path d="M5.7 9.2h-.5v.6h.6l-.1-.6z" class="st32" />
    <path
      d="M6.3 9.2h-.6v.6h.6v-.6zM6.9 9.2h-.6v.6h.6v-.6zM7.5 9.2h-.6v.6h.6v-.6zM8 9.2h-.5v.6H8v-.6zM8.6 9.2H8v.6h.6v-.6zM9.2 9.2h-.6v.6h.6v-.6zM9.8 9.2h-.6v.6h.6v-.6zM10.3 9.2h-.5v.6h.6v-.6h-.1z"
      class="st21" />
    <path d="M10.9 9.2h-.6v.6h.6v-.6zM11.5 9.2h-.6v.6h.6v-.6zM12.1 9.2h-.6v.6h.6v-.6z" class="st21" />
    <path d="M12.6 9.2H12v.6h.6v-.6zM13.2 9.2h-.6v.6h.6v-.6zM13.8 9.2h-.6v.6h.6v-.6zM14.4 9.2h-.6v.6h.6v-.6z"
      class="st21" />
    <path d="M14.9 9.2h-.6v.6h.6v-.6zM15.5 9.2h-.6v.6h.6v-.6zM16.1 9.2h-.6v.6h.6v-.6z" class="st21" />
    <path d="M16.7 9.2h-.6v.6h.6v-.6z" class="st18" />
    <path d="M17.2 9.2h-.6v.6h.6v-.6zM17.8 9.2h-.6v.6h.6v-.6z" class="st18" />
    <path d="M18.4 9.2h-.6v.6h.6v-.6z" class="st38" />
    <path d="M19 9.2h-.6v.6h.6v-.6z" class="st39" />
    <path d="M19.5 9.2H19v.6h.6v-.6h-.1zM.6 9.8H0v.6h.6v-.6z" />
    <path d="M1.1 9.8H.6v.6h.6v-.6h-.1z" class="st40" />
    <path d="M1.7 9.8h-.6v.6h.6v-.6z" class="st41" />
    <path d="M2.3 9.8h-.6v.6h.6v-.6zM2.9 9.8h-.6v.6h.6v-.6z" class="st36" />
    <path d="M3.4 9.8h-.5v.6h.6l-.1-.6z" />
    <path d="M4 9.8h-.6v.6H4v-.6zM5.2 9.8h-.6v.6h.6v-.6z" class="st18" />
    <path d="M5.7 9.8h-.5v.6h.6l-.1-.6z" class="st32" />
    <path
      d="M6.3 9.8h-.6v.6h.6v-.6zM6.9 9.8h-.6v.6h.6v-.6zM7.5 9.8h-.6v.6h.6v-.6zM8 9.8h-.5v.6H8v-.6zM8.6 9.8H8v.6h.6v-.6zM9.2 9.8h-.6v.6h.6v-.6zM9.8 9.8h-.6v.6h.6v-.6zM10.3 9.8h-.5v.6h.6v-.6h-.1z"
      class="st21" />
    <path d="M10.9 9.8h-.6v.6h.6v-.6zM11.5 9.8h-.6v.6h.6v-.6zM12.1 9.8h-.6v.6h.6v-.6z" class="st21" />
    <path d="M12.6 9.8H12v.6h.6v-.6zM13.2 9.8h-.6v.6h.6v-.6zM13.8 9.8h-.6v.6h.6v-.6zM14.4 9.8h-.6v.6h.6v-.6z"
      class="st21" />
    <path d="M14.9 9.8h-.6v.6h.6v-.6zM15.5 9.8h-.6v.6h.6v-.6zM16.1 9.8h-.6v.6h.6v-.6z" class="st21" />
    <path d="M16.7 9.8h-.6v.6h.6v-.6z" class="st18" />
    <path d="M17.2 9.8h-.6v.6h.6v-.6zM17.8 9.8h-.6v.6h.6v-.6z" class="st18" />
    <path d="M18.4 9.8h-.6v.6h.6v-.6z" class="st38" />
    <path d="M19 9.8h-.6v.6h.6v-.6z" class="st39" />
    <path d="M19.5 9.8H19v.6h.6v-.6h-.1zM.6 10.4H0v.6h.6v-.6z" />
    <path d="M1.1 10.4H.6v.6h.6v-.6h-.1z" class="st40" />
    <path d="M1.7 10.4h-.6v.6h.6v-.6z" class="st35" />
    <path d="M2.3 10.4h-.6v.6h.6v-.6zM2.9 10.4h-.6v.6h.6v-.6z" class="st36" />
    <path d="M3.4 10.4h-.5v.6h.6l-.1-.6z" />
    <path d="M4 10.4h-.6v.6H4v-.6zM5.2 10.4h-.6v.6h.6v-.6z" class="st18" />
    <path d="M5.7 10.4h-.5v.6h.6l-.1-.6z" class="st32" />
    <path
      d="M6.3 10.4h-.6v.6h.6v-.6zM6.9 10.4h-.6v.6h.6v-.6zM7.5 10.4h-.6v.6h.6v-.6zM8 10.4h-.5v.6H8v-.6zM8.6 10.4H8v.6h.6v-.6zM9.2 10.4h-.6v.6h.6v-.6zM9.8 10.4h-.6v.6h.6v-.6zM10.3 10.4h-.5v.6h.6v-.6h-.1z"
      class="st21" />
    <path d="M10.9 10.4h-.6v.6h.6v-.6zM11.5 10.4h-.6v.6h.6v-.6zM12.1 10.4h-.6v.6h.6v-.6z" class="st21" />
    <path d="M12.6 10.4H12v.6h.6v-.6z" class="st21" />
    <path d="M13.2 10.4h-.6v.6h.6v-.6zM13.8 10.4h-.6v.6h.6v-.6zM14.4 10.4h-.6v.6h.6v-.6z" class="st42" />
    <path d="M14.9 10.4h-.6v.6h.6v-.6zM15.5 10.4h-.6v.6h.6v-.6zM16.1 10.4h-.6v.6h.6v-.6z" class="st42" />
    <path d="M16.7 10.4h-.6v.6h.6v-.6z" class="st15" />
    <path d="M17.2 10.4h-.6v.6h.6v-.6zM17.8 10.4h-.6v.6h.6v-.6z" class="st18" />
    <path d="M18.4 10.4h-.6v.6h.6v-.6z" class="st38" />
    <path d="M19 10.4h-.6v.6h.6v-.6z" class="st39" />
    <path d="M19.5 10.4H19v.6h.6v-.6h-.1zM.6 10.9H0v.6h.6v-.6z" />
    <path d="M1.1 10.9H.6v.6h.6v-.6h-.1z" class="st34" />
    <path d="M1.7 10.9h-.6v.6h.6v-.6z" class="st35" />
    <path d="M2.3 10.9h-.6v.6h.6v-.6z" style="fill:#bdbbd7" />
    <path d="M2.9 10.9h-.6v.6h.6v-.6z" class="st36" />
    <path d="M3.4 10.9h-.5v.6h.6l-.1-.6z" />
    <path d="M4 10.9h-.6v.6H4v-.6zM5.2 10.9h-.6v.6h.6v-.6z" class="st18" />
    <path d="M5.7 10.9h-.5v.6h.6l-.1-.6z" class="st44" />
    <path
      d="M6.3 10.9h-.6v.6h.6v-.6zM6.9 10.9h-.6v.6h.6v-.6zM7.5 10.9h-.6v.6h.6v-.6zM8 10.9h-.5v.6H8v-.6zM8.6 10.9H8v.6h.6v-.6zM9.2 10.9h-.6v.6h.6v-.6z"
      class="st44" />
    <path d="M9.8 10.9h-.6v.6h.6v-.6zM10.3 10.9h-.5v.6h.6v-.6h-.1z" class="st21" />
    <path d="M10.9 10.9h-.6v.6h.6v-.6zM11.5 10.9h-.6v.6h.6v-.6zM12.1 10.9h-.6v.6h.6v-.6z" class="st21" />
    <path d="M12.6 10.9H12v.6h.6v-.6zM13.2 10.9h-.6v.6h.6v-.6zM13.8 10.9h-.6v.6h.6v-.6zM14.4 10.9h-.6v.6h.6v-.6z"
      class="st42" />
    <path d="M14.9 10.9h-.6v.6h.6v-.6zM15.5 10.9h-.6v.6h.6v-.6zM16.1 10.9h-.6v.6h.6v-.6z" class="st42" />
    <path d="M16.7 10.9h-.6v.6h.6v-.6z" class="st18" />
    <path d="M17.2 10.9h-.6v.6h.6v-.6zM17.8 10.9h-.6v.6h.6v-.6z" class="st18" />
    <path d="M18.4 10.9h-.6v.6h.6v-.6z" class="st38" />
    <path d="M19 10.9h-.6v.6h.6v-.6z" style="fill:#b8b8d4" />
    <path d="M19.5 10.9H19v.6h.6v-.6h-.1zM1.1 11.5H.6v.6h.6v-.6h-.1z" />
    <path d="M1.7 11.5h-.6v.6h.6v-.6z" style="fill:#6b747c" />
    <path d="M2.3 11.5h-.6v.6h.6v-.6z" class="st28" />
    <path d="M2.9 11.5h-.6v.6h.6v-.6z" class="st36" />
    <path d="M3.4 11.5h-.5v.6h.6l-.1-.6z" class="st32" />
    <path d="M4 11.5h-.6v.6H4v-.6z" />
    <path d="M5.2 11.5h-.6v.6h.6v-.6z" class="st18" />
    <path d="M5.7 11.5h-.5v.6h.6l-.1-.6z" class="st15" />
    <path
      d="M6.3 11.5h-.6v.6h.6v-.6zM6.9 11.5h-.6v.6h.6v-.6zM7.5 11.5h-.6v.6h.6v-.6zM8 11.5h-.5v.6H8v-.6zM8.6 11.5H8v.6h.6v-.6z"
      class="st15" />
    <path d="M9.2 11.5h-.6v.6h.6v-.6z" class="st44" />
    <path d="M9.8 11.5h-.6v.6h.6v-.6zM10.3 11.5h-.5v.6h.6v-.6h-.1z" class="st21" />
    <path d="M10.9 11.5h-.6v.6h.6v-.6zM11.5 11.5h-.6v.6h.6v-.6zM12.1 11.5h-.6v.6h.6v-.6z" class="st21" />
    <path d="M12.6 11.5H12v.6h.6v-.6z" class="st42" />
    <path d="M13.2 11.5h-.6v.6h.6v-.6zM13.8 11.5h-.6v.6h.6v-.6zM14.4 11.5h-.6v.6h.6v-.6z" class="st15" />
    <path d="M14.9 11.5h-.6v.6h.6v-.6zM15.5 11.5h-.6v.6h.6v-.6zM16.1 11.5h-.6v.6h.6v-.6z" class="st15" />
    <path d="M16.7 11.5h-.6v.6h.6v-.6z" class="st18" />
    <path d="M17.2 11.5h-.6v.6h.6v-.6z" class="st18" />
    <path d="M17.8 11.5h-.6v.6h.6v-.6z" class="st15" />
    <path d="M18.4 11.5h-.6v.6h.6v-.6z" class="st32" />
    <path d="M19 11.5h-.6v.6h.6v-.6z" style="fill:#2f3b3c" />
    <path d="M1.1 12.1H.6v.6h.6v-.6h-.1z" />
    <path d="M1.7 12.1h-.6v.6h.6v-.6z" class="st5" />
    <path d="M2.3 12.1h-.6v.6h.6v-.6z" class="st48" />
    <path d="M2.9 12.1h-.6v.6h.6v-.6z" class="st36" />
    <path d="M3.4 12.1h-.5v.6h.6l-.1-.6z" class="st32" />
    <path d="M4 12.1h-.6v.6H4v-.6z" />
    <path d="M5.2 12.1h-.6v.6h.6v-.6zM5.7 12.1h-.5v.6h.6l-.1-.6z" class="st18" />
    <path
      d="M6.3 12.1h-.6v.6h.6v-.6zM6.9 12.1h-.6v.6h.6v-.6zM7.5 12.1h-.6v.6h.6v-.6zM8 12.1h-.5v.6H8v-.6zM8.6 12.1H8v.6h.6v-.6z"
      class="st18" />
    <path d="M9.2 12.1h-.6v.6h.6v-.6z" class="st32" />
    <path d="M9.8 12.1h-.6v.6h.6v-.6zM10.3 12.1h-.5v.6h.6v-.6h-.1z" class="st21" />
    <path d="M10.9 12.1h-.6v.6h.6v-.6zM11.5 12.1h-.6v.6h.6v-.6zM12.1 12.1h-.6v.6h.6v-.6z" class="st21" />
    <path d="M12.6 12.1H12v.6h.6v-.6z" class="st42" />
    <path d="M13.2 12.1h-.6v.6h.6v-.6z" class="st15" />
    <path d="M13.8 12.1h-.6v.6h.6v-.6zM14.4 12.1h-.6v.6h.6v-.6z" class="st18" />
    <path d="M14.9 12.1h-.6v.6h.6v-.6zM15.5 12.1h-.6v.6h.6v-.6zM16.1 12.1h-.6v.6h.6v-.6z" class="st18" />
    <path d="M16.7 12.1h-.6v.6h.6v-.6z" class="st18" />
    <path d="M17.2 12.1h-.6v.6h.6v-.6z" class="st18" />
    <path d="M17.8 12.1h-.6v.6h.6v-.6z" class="st15" />
    <path d="M18.4 12.1h-.6v.6h.6v-.6z" class="st32" />
    <path d="M19 12.1h-.6v.6h.6v-.6z" style="fill:#2b3738" />
    <path d="M1.1 12.7H.6v.6h.6v-.6h-.1z" />
    <path d="M1.7 12.7h-.6v.6h.6v-.6z" style="fill:#b2b5bd" />
    <path d="M2.3 12.7h-.6v.6h.6v-.6z" class="st48" />
    <path d="M2.9 12.7h-.6v.6h.6v-.6zM3.4 12.7h-.5v.6h.6l-.1-.6z" class="st32" />
    <path d="M4 12.7h-.6v.6H4v-.6z" />
    <path d="M5.2 12.7h-.6v.6h.6v-.6zM5.7 12.7h-.5v.6h.6l-.1-.6z" class="st18" />
    <path
      d="M6.3 12.7h-.6v.6h.6v-.6zM6.9 12.7h-.6v.6h.6v-.6zM7.5 12.7h-.6v.6h.6v-.6zM8 12.7h-.5v.6H8v-.6zM8.6 12.7H8v.6h.6v-.6z"
      class="st18" />
    <path d="M9.2 12.7h-.6v.6h.6v-.6zM9.8 12.7h-.6v.6h.6v-.6zM10.3 12.7h-.5v.6h.6v-.6h-.1z" class="st21" />
    <path d="M10.9 12.7h-.6v.6h.6v-.6zM11.5 12.7h-.6v.6h.6v-.6zM12.1 12.7h-.6v.6h.6v-.6z" class="st21" />
    <path d="M12.6 12.7H12v.6h.6v-.6z" class="st42" />
    <path d="M13.2 12.7h-.6v.6h.6v-.6z" class="st15" />
    <path d="M13.8 12.7h-.6v.6h.6v-.6zM14.4 12.7h-.6v.6h.6v-.6z" class="st18" />
    <path d="M14.9 12.7h-.6v.6h.6v-.6zM15.5 12.7h-.6v.6h.6v-.6zM16.1 12.7h-.6v.6h.6v-.6z" class="st18" />
    <path d="M16.7 12.7h-.6v.6h.6v-.6z" class="st18" />
    <path d="M17.2 12.7h-.6v.6h.6v-.6z" class="st18" />
    <path d="M17.8 12.7h-.6v.6h.6v-.6z" class="st15" />
    <path d="M18.4 12.7h-.6v.6h.6v-.6z" class="st32" />
    <path d="M19 12.7h-.6v.6h.6v-.6z" style="fill:#1f2c2c" />
    <path d="M1.7 13.2h-.6v.6h.6v-.6z" />
    <path d="M2.3 13.2h-.6v.6h.6v-.6z" class="st52" />
    <path d="M2.9 13.2h-.6v.6h.6v-.6z" class="st48" />
    <path d="M3.4 13.2h-.5v.6h.6l-.1-.6z" class="st53" />
    <path d="M4 13.2h-.6v.6H4v-.6z" class="st36" />
    <path d="M5.2 13.2h-.6v.6h.6v-.6zM5.7 13.2h-.5v.6h.6l-.1-.6z" class="st18" />
    <path
      d="M6.3 13.2h-.6v.6h.6v-.6zM6.9 13.2h-.6v.6h.6v-.6zM7.5 13.2h-.6v.6h.6v-.6zM8 13.2h-.5v.6H8v-.6zM8.6 13.2H8v.6h.6v-.6z"
      class="st18" />
    <path d="M9.2 13.2h-.6v.6h.6v-.6zM9.8 13.2h-.6v.6h.6v-.6zM10.3 13.2h-.5v.6h.6v-.6h-.1z" class="st21" />
    <path d="M10.9 13.2h-.6v.6h.6v-.6z" class="st21" />
    <path d="M11.5 13.2h-.6v.6h.6v-.6zM12.1 13.2h-.6v.6h.6v-.6z" class="st42" />
    <path d="M12.6 13.2H12v.6h.6v-.6z" class="st42" />
    <path d="M13.2 13.2h-.6v.6h.6v-.6z" class="st15" />
    <path d="M13.8 13.2h-.6v.6h.6v-.6zM14.4 13.2h-.6v.6h.6v-.6z" class="st18" />
    <path d="M14.9 13.2h-.6v.6h.6v-.6zM15.5 13.2h-.6v.6h.6v-.6zM16.1 13.2h-.6v.6h.6v-.6z" class="st18" />
    <path d="M16.7 13.2h-.6v.6h.6v-.6z" class="st18" />
    <path d="M17.2 13.2h-.6v.6h.6v-.6z" class="st54" />
    <path d="M17.8 13.2h-.6v.6h.6v-.6z" class="st55" />
    <path d="M18.4 13.2h-.6v.6h.6v-.6z" style="fill:#252e2f" />
    <path d="M1.7 13.8h-.6v.6h.6v-.6z" />
    <path d="M2.3 13.8h-.6v.6h.6v-.6z" class="st9" />
    <path d="M2.9 13.8h-.6v.6h.6v-.6z" class="st48" />
    <path d="M3.4 13.8h-.5v.6h.6l-.1-.6z" class="st53" />
    <path d="M4 13.8h-.6v.6H4v-.6z" class="st32" />
    <path d="M5.2 13.8h-.6v.6h.6v-.6z" class="st15" />
    <path d="M5.7 13.8h-.5v.6h.6l-.1-.6z" class="st18" />
    <path
      d="M6.3 13.8h-.6v.6h.6v-.6zM6.9 13.8h-.6v.6h.6v-.6zM7.5 13.8h-.6v.6h.6v-.6zM8 13.8h-.5v.6H8v-.6zM8.6 13.8H8v.6h.6v-.6z"
      class="st18" />
    <path d="M9.2 13.8h-.6v.6h.6v-.6z" class="st21" />
    <path d="M9.8 13.8h-.6v.6h.6v-.6zM10.3 13.8h-.5v.6h.6v-.6h-.1z" class="st42" />
    <path d="M10.9 13.8h-.6v.6h.6v-.6zM11.5 13.8h-.6v.6h.6v-.6zM12.1 13.8h-.6v.6h.6v-.6z" class="st42" />
    <path d="M12.6 13.8H12v.6h.6v-.6z" class="st42" />
    <path d="M13.2 13.8h-.6v.6h.6v-.6z" class="st15" />
    <path d="M13.8 13.8h-.6v.6h.6v-.6zM14.4 13.8h-.6v.6h.6v-.6z" class="st18" />
    <path d="M14.9 13.8h-.6v.6h.6v-.6zM15.5 13.8h-.6v.6h.6v-.6zM16.1 13.8h-.6v.6h.6v-.6z" class="st18" />
    <path d="M16.7 13.8h-.6v.6h.6v-.6z" class="st18" />
    <path d="M17.2 13.8h-.6v.6h.6v-.6z" class="st54" />
    <path d="M17.8 13.8h-.6v.6h.6v-.6z" class="st55" />
    <path d="M18.4 13.8h-.6v.6h.6v-.6z" class="st1" />
    <path d="M2.3 14.4h-.6v.6h.6v-.6z" />
    <path d="M2.9 14.4h-.6v.6h.6v-.6z" class="st52" />
    <path d="M3.4 14.4h-.5v.6h.6l-.1-.6z" class="st48" />
    <path d="M4 14.4h-.6v.6H4v-.6z" class="st53" />
    <path d="M5.2 14.4h-.6v.6h.6v-.6z" class="st15" />
    <path d="M5.7 14.4h-.5v.6h.6l-.1-.6z" class="st18" />
    <path
      d="M6.3 14.4h-.6v.6h.6v-.6zM6.9 14.4h-.6v.6h.6v-.6zM7.5 14.4h-.6v.6h.6v-.6zM8 14.4h-.5v.6H8v-.6zM8.6 14.4H8v.6h.6v-.6z"
      class="st18" />
    <path d="M9.2 14.4h-.6v.6h.6v-.6zM9.8 14.4h-.6v.6h.6v-.6zM10.3 14.4h-.5v.6h.6v-.6h-.1z" class="st42" />
    <path d="M10.9 14.4h-.6v.6h.6v-.6zM11.5 14.4h-.6v.6h.6v-.6zM12.1 14.4h-.6v.6h.6v-.6z" class="st42" />
    <path d="M12.6 14.4H12v.6h.6v-.6z" class="st42" />
    <path d="M13.2 14.4h-.6v.6h.6v-.6z" class="st15" />
    <path d="M13.8 14.4h-.6v.6h.6v-.6zM14.4 14.4h-.6v.6h.6v-.6z" class="st18" />
    <path d="M14.9 14.4h-.6v.6h.6v-.6zM15.5 14.4h-.6v.6h.6v-.6zM16.1 14.4h-.6v.6h.6v-.6z" class="st18" />
    <path d="M16.7 14.4h-.6v.6h.6v-.6z" class="st57" />
    <path d="M17.2 14.4h-.6v.6h.6v-.6z" class="st55" />
    <path d="M17.8 14.4h-.6v.6h.6v-.6z" class="st58" />
    <path d="M2.3 15h-.6v.6h.6V15z" />
    <path d="M2.9 15h-.6v.6h.6V15z" class="st9" />
    <path d="M3.4 15h-.5v.6h.6l-.1-.6z" class="st52" />
    <path d="M4 15h-.6v.6H4V15z" class="st48" />
    <path d="M5.2 15h-.6v.6h.6V15z" />
    <path d="M5.7 15h-.5v.6h.6l-.1-.6z" class="st15" />
    <path d="M6.3 15h-.6v.6h.6V15zM6.9 15h-.6v.6h.6V15zM7.5 15h-.6v.6h.6V15zM8 15h-.5v.6H8V15zM8.6 15H8v.6h.6V15z"
      class="st18" />
    <path d="M9.2 15h-.6v.6h.6V15zM9.8 15h-.6v.6h.6V15zM10.3 15h-.5v.6h.6V15h-.1z" class="st15" />
    <path d="M10.9 15h-.6v.6h.6V15zM11.5 15h-.6v.6h.6V15zM12.1 15h-.6v.6h.6V15z" class="st15" />
    <path d="M12.6 15H12v.6h.6V15z" class="st15" />
    <path d="M13.2 15h-.6v.6h.6V15zM13.8 15h-.6v.6h.6V15zM14.4 15h-.6v.6h.6V15z" class="st18" />
    <path d="M14.9 15h-.6v.6h.6V15zM15.5 15h-.6v.6h.6V15z" class="st18" />
    <path d="M16.1 15h-.6v.6h.6V15z" class="st57" />
    <path d="M16.7 15h-.6v.6h.6V15z" class="st55" />
    <path d="M17.2 15h-.6v.6h.6V15z" class="st59" />
    <path d="M17.8 15h-.6v.6h.6V15z" class="st58" />
    <path d="M2.9 15.5h-.6v.6h.6v-.6z" />
    <path d="M3.4 15.5h-.5v.6h.6l-.1-.6z" class="st9" />
    <path d="M4 15.5h-.6v.6H4v-.6z" class="st52" />
    <path d="M5.2 15.5h-.6v.6h.6v-.6zM5.7 15.5h-.5v.6h.6l-.1-.6z" class="st17" />
    <path d="M6.3 15.5h-.6v.6h.6v-.6z" />
    <path d="M6.9 15.5h-.6v.6h.6v-.6z" class="st15" />
    <path
      d="M7.5 15.5h-.6v.6h.6v-.6zM8 15.5h-.5v.6H8v-.6zM8.6 15.5H8v.6h.6v-.6zM9.2 15.5h-.6v.6h.6v-.6zM9.8 15.5h-.6v.6h.6v-.6zM10.3 15.5h-.5v.6h.6v-.6h-.1z"
      class="st18" />
    <path d="M10.9 15.5h-.6v.6h.6v-.6zM11.5 15.5h-.6v.6h.6v-.6zM12.1 15.5h-.6v.6h.6v-.6z" class="st18" />
    <path d="M12.6 15.5H12v.6h.6v-.6zM13.2 15.5h-.6v.6h.6v-.6zM13.8 15.5h-.6v.6h.6v-.6zM14.4 15.5h-.6v.6h.6v-.6z"
      class="st18" />
    <path d="M14.9 15.5h-.6v.6h.6v-.6z" class="st57" />
    <path d="M15.5 15.5h-.6v.6h.6v-.6z" style="fill:#a9495a" />
    <path d="M16.1 15.5h-.6v.6h.6v-.6z" class="st55" />
    <path d="M16.7 15.5h-.6v.6h.6v-.6z" class="st59" />
    <path d="M17.2 15.5h-.6v.6h.6v-.6z" class="st58" />
    <path d="M3.4 16.1h-.5v.6h.6l-.1-.6z" class="st61" />
    <path d="M4 16.1h-.6v.6H4v-.6z" class="st9" />
    <path d="M5.2 16.1h-.6v.6h.6v-.6z" class="st48" />
    <path d="M5.7 16.1h-.5v.6h.6l-.1-.6z" class="st17" />
    <path d="M6.3 16.1h-.6v.6h.6v-.6zM6.9 16.1h-.6v.6h.6v-.6z" class="st17" />
    <path d="M7.5 16.1h-.6v.6h.6v-.6zM8 16.1h-.5v.6H8v-.6zM8.6 16.1H8v.6h.6v-.6z" class="st15" />
    <path d="M9.2 16.1h-.6v.6h.6v-.6zM9.8 16.1h-.6v.6h.6v-.6zM10.3 16.1h-.5v.6h.6v-.6h-.1z" class="st18" />
    <path d="M10.9 16.1h-.6v.6h.6v-.6zM11.5 16.1h-.6v.6h.6v-.6zM12.1 16.1h-.6v.6h.6v-.6z" class="st18" />
    <path d="M12.6 16.1H12v.6h.6v-.6z" class="st18" />
    <path d="M13.2 16.1h-.6v.6h.6v-.6zM13.8 16.1h-.6v.6h.6v-.6zM14.4 16.1h-.6v.6h.6v-.6z" class="st57" />
    <path d="M14.9 16.1h-.6v.6h.6v-.6z" class="st62" />
    <path d="M15.5 16.1h-.6v.6h.6v-.6zM16.1 16.1h-.6v.6h.6v-.6z" class="st55" />
    <path d="M16.7 16.1h-.6v.6h.6v-.6z" class="st58" />
    <path d="M4 16.7h-.6v.6H4v-.6zM5.2 17.3h-.6v.6h.6v-.6zM4.6 17.3H4v.6h.6v-.6z" class="st61" />
    <path d="M5.2 17.3v-.6h-.6v.6h.6z" class="st52" />
    <path d="M5.7 16.7h-.5v.6h.6l-.1-.6z" class="st48" />
    <path d="M6.3 16.7h-.6v.6h.6v-.6z" class="st48" />
    <path d="M6.9 16.7h-.6v.6h.6v-.6z" class="st53" />
    <path d="M7.5 16.7h-.6v.6h.6v-.6zM8 16.7h-.5v.6H8v-.6zM8.6 16.7H8v.6h.6v-.6z" class="st17" />
    <path d="M9.2 16.7h-.6v.6h.6v-.6zM9.8 16.7h-.6v.6h.6v-.6zM10.3 16.7h-.5v.6h.6v-.6h-.1z" class="st15" />
    <path d="M10.9 16.7h-.6v.6h.6v-.6zM11.5 16.7h-.6v.6h.6v-.6zM12.1 16.7h-.6v.6h.6v-.6z" class="st15" />
    <path d="M12.6 16.7H12v.6h.6v-.6z" class="st15" />
    <path d="M13.2 16.7h-.6v.6h.6v-.6zM13.8 16.7h-.6v.6h.6v-.6zM14.4 16.7h-.6v.6h.6v-.6z" class="st62" />
    <path d="M14.9 16.7h-.6v.6h.6v-.6z" class="st59" />
    <path d="M15.5 16.7h-.6v.6h.6v-.6z" class="st63" />
    <path d="M16.1 16.7h-.6v.6h.6v-.6z" class="st1" />
    <path d="M5.7 17.3h-.5v.6h.6l-.1-.6z" class="st9" />
    <path d="M6.3 17.3h-.6v.6h.6v-.6z" class="st9" />
    <path d="M6.9 17.3h-.6v.6h.6v-.6z" class="st48" />
    <path d="M7.5 17.3h-.6v.6h.6v-.6zM8 17.3h-.5v.6H8v-.6zM8.6 17.3H8v.6h.6v-.6z" class="st17" />
    <path d="M9.2 17.3h-.6v.6h.6v-.6zM9.8 17.3h-.6v.6h.6v-.6zM10.3 17.3h-.5v.6h.6v-.6h-.1z" class="st55" />
    <path d="M10.9 17.3h-.6v.6h.6v-.6zM11.5 17.3h-.6v.6h.6v-.6zM12.1 17.3h-.6v.6h.6v-.6z" class="st55" />
    <path d="M12.6 17.3H12v.6h.6v-.6z" class="st55" />
    <path d="M13.2 17.3h-.6v.6h.6v-.6zM13.8 17.3h-.6v.6h.6v-.6z" class="st59" />
    <path d="M14.4 17.3h-.6v.6h.6v-.6z" class="st1" />
    <path d="M14.9 17.3h-.6v.6h.6v-.6z" class="st1" />
    <path d="M5.7 17.8h-.5v.6h.6l-.1-.6z" class="st61" />
    <path d="M6.3 17.8h-.6v.6h.6v-.6z" class="st61" />
    <path d="M6.9 17.8h-.6v.6h.6v-.6zM7.5 17.8h-.6v.6h.6v-.6zM8 17.8h-.5v.6H8v-.6z" class="st3" />
    <path d="M8.6 17.8H8v.6h.6v-.6z" class="st5" />
    <path d="M9.2 17.8h-.6v.6h.6v-.6zM9.8 17.8h-.6v.6h.6v-.6z" class="st64" />
    <path d="M10.3 17.8h-.5v.6h.6v-.6h-.1z" class="st65" />
    <path d="M10.9 17.8h-.6v.6h.6v-.6zM11.5 17.8h-.6v.6h.6v-.6zM12.1 17.8h-.6v.6h.6v-.6z" class="st65" />
    <path d="M12.6 17.8H12v.6h.6v-.6z" class="st65" />
    <path d="M13.2 17.8h-.6v.6h.6v-.6zM13.8 17.8h-.6v.6h.6v-.6z" class="st63" />
    <path d="M6.9 18.4h-.6v.6h.6v-.6zM7.5 18.4h-.6v.6h.6v-.6zM8 18.4h-.5v.6H8v-.6zM8.6 18.4H8v.6h.6v-.6z"
      class="st61" />
    <path d="M9.2 18.4h-.6v.6h.6v-.6zM9.8 18.4h-.6v.6h.6v-.6zM10.3 18.4h-.5v.6h.6v-.6h-.1z" />
    <path d="M10.9 18.4h-.6v.6h.6v-.6zM11.5 18.4h-.6v.6h.6v-.6zM12.1 18.4h-.6v.6h.6v-.6z" />
    <path d="M12.6 18.4H12v.6h.6v-.6z" />
    <path d="M4.6 1.7H4v.6h.6v-.6z" class="st1" />
    <path d="M4.6 2.3H4v.6h.6v-.6z" class="st16" />
    <path d="M4.6 2.9H4v.6h.6v-.6z" class="st12" />
    <path d="M4.6 3.5H4V4h.6v-.5z" class="st13" />
    <path d="M4.6 4H4v.6h.6V4z" class="st19" />
    <path d="M4.6 4.6H4v.6h.6v-.6zM4.6 5.2H4v.6h.6v-.6z" class="st14" />
    <path d="M4.6 5.8H4v.6h.6v-.6z" class="st18" />
    <path d="M4.6 6.3H4v.6h.6v-.6zM4.6 6.9H4v.6h.6v-.6zM4.6 7.5H4v.6h.6v-.6zM4.6 8.1H4v.6h.6v-.6z" class="st18" />
    <path d="M4.6 8.6H4v.6h.6v-.6zM4.6 9.2H4v.6h.6v-.6zM4.6 9.8H4v.6h.6v-.6zM4.6 10.4H4v.6h.6v-.6z" class="st18" />
    <path d="M4.6 10.9H4v.6h.6v-.6zM4.6 11.5H4v.6h.6v-.6zM4.6 12.1H4v.6h.6v-.6z" class="st18" />
    <path d="M4.6 12.7H4v.6h.6v-.6z" class="st15" />
    <path d="M4.6 13.2H4v.6h.6v-.6z" style="fill:#212a29" />
    <path d="M4.6 13.8H4v.6h.6v-.6z" />
    <path d="M4.6 14.4H4v.6h.6v-.6z" style="fill:#f1f2f4" />
    <path d="M4.6 15H4v.6h.6V15z" style="fill:#e6e7ea" />
    <path d="M4.6 15.5H4v.6h.6v-.6z" class="st48" />
    <path d="M4.6 16.1H4v.6h.6v-.6z" class="st52" />
    <path d="M4.6 16.7H4v.6h.6v-.6z" class="st9" />
    <path
      class="st66"
      d="M28.7 17.3h2.4v-6.5h7.1V8.5h-7.1V4.6h8.1V2.3H28.7zM52.9 15.8c-.1-.3-.1-.6-.1-1.2l-.1-1.9c0-.9-.2-1.5-.5-2-.2-.3-.5-.6-.9-.8.5-.3.9-.7 1.2-1.2.3-.5.5-1.3.5-2.2 0-1.8-.7-3-2.2-3.7-.7-.3-1.7-.5-2.8-.5h-7v15h2.5v-6.2h4.2c.8 0 1.3.1 1.7.2.6.3.9.8.9 1.7l.1 2.4c0 .6.1 1 .1 1.2s.1.4.2.6l.1.1h2.8v-.7l-.1-.1c-.3-.1-.5-.3-.6-.7zm-3.1-7.3c-.5.3-1.2.5-2 .5h-4.3V4.5H48c.6 0 1.1.1 1.5.3.7.3 1 .9 1 1.9 0 .9-.2 1.5-.7 1.8zM59.6 2.3l-5.6 15h2.5l1.6-4.3h5.4l1.5 4.3h2.7l-5.4-15h-2.7zm-.7 8.6 2-5.4 1.9 5.4h-3.9zM78.4 13.5 71.5 2.3h-2.7v15h2.4V6.2l7 11.1h2.6v-15h-2.4zM95.9 2.3h-3.4l-6.7 6.8V2.3h-2.4v15h2.4v-5.2l2-1.9 5 7.1h3.1l-6.3-8.8zM99.4 10.7h8V8.5h-8V4.6h8.7V2.3H97v15h11.2v-2.2h-8.8zM119.9 13.5 113 2.3h-2.7v15h2.3V6.2l7.1 11.1h2.6v-15h-2.4zM134.9 2.3h-8.1v1.9h-1.9v11.1h1.9v1.9h8.1v-1.9h1.9v-2.4h-2.4v1.9h-7.1V4.7h7.1v1.9h2.4V4.2h-1.9zM150.1 4.2h-1.9V2.3H142v1.9h-1.9v1.9h-1.9v7.3h1.9v1.9h1.9v1.9h6.2v-1.9h1.9v-1.9h1.9V6.1h-1.9V4.2zm-.5 8.7h-1.9v1.9h-5.2v-1.9h-1.9V6.6h1.9V4.7h5.2v1.9h1.9v6.3zM154.4 2.3h2.4v14.9h-2.4zM168.9 2.3v10.6h-1.4V8h-1.9V6.1h-1.9V4.2h-1.9V2.3h-2.4v14.9h2.4V6.6h1.4v1.9h1.9v4.9h1.9v1.9h1.9v1.9h2.3V2.3z" />
  </g>
</svg>