<svg xmlns:inkscape="http://www.inkscape.org/namespaces/inkscape" xmlns:sodipodi="http://sodipodi.sourceforge.net/DTD/sodipodi-0.dtd" xmlns="http://www.w3.org/2000/svg" xmlns:svg="http://www.w3.org/2000/svg" version="1.1" id="Ebene_1" x="0px" y="0px" viewBox="0 0 310.25107 394.29581" xml:space="preserve" sodipodi:docname="farmy_main_logo_2021.svg" width="310.25107" height="394.29581" inkscape:version="1.1.1 (eb90963e84, 2021-10-02)">
<defs id="defs33"/>
<sodipodi:namedview id="namedview31" pagecolor="#ffffff" bordercolor="#666666" borderopacity="1.0" inkscape:pageshadow="2" inkscape:pageopacity="0.0" inkscape:pagecheckerboard="0" showgrid="false" inkscape:zoom="1.746" inkscape:cx="152.63459" inkscape:cy="193.29897" inkscape:window-width="2048" inkscape:window-height="1115" inkscape:window-x="0" inkscape:window-y="337" inkscape:window-maximized="1" inkscape:current-layer="Ebene_1"/>
<style type="text/css" id="style2">
	.st0{opacity:0.3;}
	.st1{fill:#FFFFFF;}
	.st2{fill-rule:evenodd;clip-rule:evenodd;fill:#117533;}
	.st3{fill:#117533;}
	.st4{fill-rule:evenodd;clip-rule:evenodd;fill:#107433;}
	.st5{fill:#107433;}
	.st6{fill:#D9DADB;}
	.st7{fill:#E52633;}
	.st8{opacity:0.2;}
	.st9{fill-rule:evenodd;clip-rule:evenodd;fill:#0F7634;}
	.st10{fill:#0F7634;}
	.st11{fill-rule:evenodd;clip-rule:evenodd;fill:#127735;}
	.st12{fill:#127735;}
</style>
<g id="g28" transform="translate(-87.6308481,-51.1034166) scale(0.9 0.9)">
	<g id="g10">
		<path class="st4" d="m 376.94,96.24 c -1,-1.16 1.79,-5.18 3.11,-8.85 1.34,-3.68 0.49,-15.48 -2.02,-18.15 -2.5,-2.67 -7.64,6.96 -9.49,5.29 -1.41,-1.27 -2.2,-8.8 -3.03,-10.99 -1.55,-4.04 -3.6,-7.19 -5.82,-6.71 -1.33,0.29 -4.08,6.1 -6.35,8.5 -1.22,1.29 -1.37,0.24 -5.21,-2.65 -4.98,-3.73 -5.46,-4.53 -7.08,-3.62 -1.62,0.89 0.31,9.63 -0.48,10.55 -0.79,0.93 -17.11,1.02 -28.71,9.35 -45.48,32.73 -46.67,69.61 -47.25,108.11 0,0 -1.06,68.86 -11.62,91.64 -7.27,15.68 -23.31,27.13 -39.8,27.55 -16.5,0.42 -28.1,-8.09 -42.12,-19.29 -13.36,-10.68 -28.26,-30.19 -27.49,-28.16 26.23,68.09 76.4,87.64 119.86,86.53 45.32,-1.16 80.74,-21.69 99.93,-47.26 22.32,-29.76 23.18,-74.81 8.78,-106.64 -7.43,-19.08 -19.4,-41.13 -21.69,-48.43 -0.86,-2.73 -1.78,-6.06 -2.56,-9.46 2.3,0.83 5.27,1.05 9.14,0.2 13.44,-2.96 5.79,-20.38 4.49,-23.12 0.07,0 0.15,-0.01 0.22,-0.02 4.17,-0.5 10.63,0.71 13.02,1.17 5.04,0.97 11.03,2.33 12.4,0.1 0.99,-1.62 0.73,-3.36 -0.21,-4.91 -2.65,-4.37 -9.28,-9.86 -10.02,-10.73 z M 350.68,83.6 c 3.38,0 6.13,3.1 6.13,6.91 0,3.82 -2.75,6.92 -6.13,6.92 -3.38,0 -6.13,-3.1 -6.13,-6.92 0.01,-3.82 2.75,-6.91 6.13,-6.91 z" id="path4"/>
		<path class="st5" d="m 354.3,90.45 c 0,2.24 -1.58,4.04 -3.53,4.04 -1.96,0 -3.54,-1.8 -3.54,-4.04 0,-2.23 1.58,-4.03 3.54,-4.03 1.95,0 3.53,1.8 3.53,4.03 z" id="path6"/>
		<path class="st4" d="m 260.6,187.02 c 0,0 -3.05,69.57 -9.18,84.34 -6.55,15.78 -16.51,28.84 -35.63,30.21 -19.1,1.37 -36.65,-12.67 -44.35,-19.27 -10.17,-8.71 -12.78,-12.49 -27.02,-26.72 -1.85,-1.86 -11.83,-15.25 -14.53,-21.22 -7.4,-16.27 -3.66,-21.21 -8.18,-28.4 -12.65,-20.12 4.81,-48.68 16.32,-58.29 2.33,-1.94 -1.21,-8.35 -1.94,-10.1 -2.65,-6.32 3.23,-9.98 8.93,-13.98 2.77,-1.95 -0.9,-4.17 1.94,-5.83 2.43,-1.42 11.32,-2.39 14.37,-2.73 12.67,-1.32 12.87,40.6 18.45,56.63 0.93,2.67 4.91,15.43 31.75,7.8 36.56,-10.41 49.07,7.56 49.07,7.56 z" id="path8"/>
	</g>
	<g id="g26">
		<g id="g24">
			<g id="g22">
				<path class="st5" d="m 117.92,393.47 c -0.61,7.75 -1.23,15.5 -1.8,23.25 -0.27,3.67 -0.5,7.35 -0.79,11.02 -0.17,2.07 -0.02,2.6 -2.2,2.7 -1.96,0.09 -3.96,0.14 -5.92,0.1 -3.09,-0.06 -6.46,-0.64 -8.3,-3.38 -1.75,-2.61 -1.61,-5.92 -1.46,-8.91 0.41,-8.08 1.21,-16.15 1.96,-24.2 1.64,-17.64 3.41,-35.27 4.87,-52.92 0.12,-1.49 0.25,-4.77 2.33,-6.33 1.08,-0.81 3.7,-0.42 5.06,0.01 2.23,0.71 4.46,1.41 6.68,2.12 8.66,2.73 17.33,5.41 26.12,7.7 1.83,0.48 4.56,0.52 5.08,2.69 0.45,1.85 -4.83,13.64 -9.29,12.59 -3.69,-0.86 -15.4,-3.98 -19.28,-4.96 -0.25,3.02 -0.5,6.04 -0.74,9.05 -0.23,2.85 -1.02,6.2 -0.74,9.03 0.13,1.28 -0.24,0.83 0.97,1.28 0.7,0.26 1.65,0.3 2.4,0.44 1.41,0.26 2.82,0.53 4.23,0.8 1.99,0.38 6.94,0.44 8.15,2.16 1.07,1.53 0.09,5.32 -0.03,7.12 -0.17,2.6 -0.22,5.74 -1.92,7.9 -1.51,1.92 -4.04,1.89 -6.27,1.7 -3.05,-0.25 -6.08,-0.65 -9.11,-0.96 z" id="path12"/>
				<path class="st5" d="m 139.54,416.16 c -0.05,-7.51 3.69,-14.16 10.56,-17.42 7.04,-3.34 15.48,-3.16 23.06,-2.58 0.3,-6.01 -0.45,-12.31 -7.72,-12.81 -3.24,-0.22 -4.95,1.5 -5.9,4.46 -0.39,1.21 -1.21,5.24 -4.89,4.78 -4.97,-0.61 -8.99,-3.62 -9.75,-8.82 -0.87,-5.95 1.63,-12.56 7.43,-14.97 6.06,-2.52 13.39,-0.82 19.37,1.09 5.59,1.8 11.03,4.59 14.67,9.34 4.05,5.29 4.47,11.37 4.2,17.77 -0.14,3.32 -0.37,6.64 -0.48,9.96 -0.1,3.07 -0.6,6.87 2.59,8.58 1.1,0.59 3.1,0.45 3.88,1.43 0.77,0.97 0.01,3.91 -0.22,4.94 -0.79,3.48 -2.93,6.41 -6.26,7.83 -7.28,3.11 -15.13,-0.13 -17.07,-7.86 -4.44,6.75 -11.57,9.75 -19.5,9.16 -8.69,-0.61 -13.91,-6.18 -13.97,-14.88 z m 33.03,-11.23 c -3.76,-0.24 -8.32,-0.19 -11.62,1.91 -2.61,1.66 -4.24,5.64 -2,8.32 2.32,2.76 7.07,1.87 9.5,-0.18 2.89,-2.43 4.02,-6.41 4.12,-10.05 z" id="path14"/>
				<path class="st5" d="m 236.83,401.74 c -1.7,-0.07 -4.41,-0.03 -5.01,-1.81 -0.78,-2.32 0.52,-5.06 -1.03,-7.3 -2.99,-4.32 -7.44,0.79 -8.35,3.93 -1.43,4.94 -0.87,10.49 -1.01,15.57 -0.14,5.24 0.19,10.66 -0.25,15.88 -0.21,2.52 -2.06,2.3 -4.23,2.22 -2.29,-0.09 -4.62,-0.12 -6.84,-0.76 -5.17,-1.49 -6.6,-5.73 -6.76,-10.67 -0.31,-9.91 0.3,-19.89 0.44,-29.8 0.04,-3.15 -0.16,-6.4 0.1,-9.54 0.27,-3.17 2.43,-2.4 4.92,-2.07 5.59,0.73 11.44,2.17 12.89,8.43 4.48,-8.14 17.33,-9.44 23.54,-2.6 6.64,7.3 1.46,18.9 -8.41,18.52 z" id="path16"/>
				<path class="st5" d="m 274.01,414.21 c 0.24,4.84 0.92,10.27 0.38,15.08 -0.26,2.29 -1.82,1.9 -3.85,1.9 -1.97,0 -3.96,0.05 -5.91,-0.21 -4.65,-0.63 -7.8,-3 -8.61,-7.74 -0.71,-4.15 -0.48,-8.6 -0.52,-12.79 -0.09,-9.21 -0.47,-18.41 -0.55,-27.62 -0.02,-1.98 -0.11,-2.49 1.93,-2.69 2.26,-0.21 4.77,-0.22 7.02,0 4.37,0.43 8.01,2.54 8.92,7.1 2.89,-6.09 7.88,-8.96 14.47,-9.75 6.96,-0.83 15.03,0.48 17.87,7.82 4.08,-9.55 12.11,-14.27 22.18,-15.8 4.7,-0.71 9.41,0.02 11.82,4.55 2.08,3.91 1.96,8.98 2.17,13.29 0.56,11.3 0.69,22.62 1.11,33.93 0.07,1.77 0.65,4.43 0.06,6.15 -0.68,1.98 -3.41,1.55 -5.2,1.67 -4.19,0.28 -9.71,0.49 -12.1,-3.74 -2.1,-3.72 -1.64,-9.07 -1.73,-13.19 -0.13,-5.54 -0.2,-11.09 -0.34,-16.63 -0.08,-3.38 0,-9.32 -4.54,-9.67 -5.06,-0.39 -8.51,4.08 -9.94,8.36 -3.18,9.48 -1.21,20.49 -0.77,30.27 0.07,1.5 0.85,4.8 -0.46,5.92 -1.13,0.96 -5.02,0.44 -6.41,0.42 -4.71,-0.07 -9.25,-1.29 -10.58,-6.34 -1.45,-5.47 -0.84,-11.81 -1.05,-17.41 -0.15,-4.25 0.97,-12.45 -2.88,-15.52 -4.31,-3.42 -9.26,1.21 -10.77,5.08 -2.11,5.45 -2,11.83 -1.72,17.56 z" id="path18"/>
				<path class="st5" d="m 369.7,363.43 c 0.75,6.57 0.69,13.25 0.89,19.86 0.14,4.83 -0.13,11.37 2.89,15.55 2.89,3.99 7.7,2.24 10.48,-1.47 3.22,-4.29 3.6,-7.04 2.95,-15.97 -0.89,-12.07 -2.27,-21.14 -3.06,-33.86 -0.17,-2.74 1.71,-4.69 3.69,-6.31 1.85,-1.52 5.68,-4.87 8.32,-4.68 4.62,0.34 4.41,9.43 4.77,12.73 1.18,10.99 2,19.78 3.06,30.78 1.24,12.86 2.89,25.73 3.82,38.62 0.75,10.27 -2.36,20.97 -10,26.6 -6.08,4.49 -13.64,6.32 -19.86,5.67 -5.86,-0.61 -12.75,-3.15 -16.99,-7.08 -4.66,-4.32 -6.99,-10.8 -0.79,-14.64 2.1,-1.3 6.31,-3.22 8.13,-0.96 1.9,2.37 3.07,4.41 6.15,5.48 5.93,2.06 12.29,0.04 14.62,-5.92 2.67,-6.86 1.59,-15.25 0.66,-22.35 -1.8,7.97 -6.04,14.54 -14.56,15.99 -8.48,1.45 -15.56,-2.58 -18.77,-10.52 -2.92,-7.21 -2.76,-15.41 -3.08,-23.06 -0.19,-4.55 -0.37,-9.09 -0.52,-13.64 -0.08,-2.22 -0.14,-4.45 -0.21,-6.67 -0.06,-1.89 -0.48,-4.14 0.32,-5.92 0.84,-1.87 2.84,-2.47 4.56,-3.3 1.82,-0.88 3.66,-1.87 5.64,-2.35 5.26,-1.26 6.39,3.15 6.89,7.42 z" id="path20"/>
			</g>
		</g>
	</g>
</g>
</svg>