<svg xmlns="http://www.w3.org/2000/svg" width="598" height="570" viewBox="0 0 598 570" fill="none">
<g clip-path="url(#clip0_1_8)">
<path d="M328.34 401.21V569.17H269.53V401.09C247.68 395.38 228.29 383.3 213.31 367.29L101.73 367.27L0 206.86H213.29C228.3 190.71 247.51 178.6 269.5 172.85L269.4 90.27L417.26 0L448.5 50.11L328.42 123.59L328.39 172.59C350.89 178.25 370.11 190.36 385.38 206.87H597.84L495.65 367.27H385.51C370.38 383.43 350.49 395.58 328.35 401.22" fill="white"/>
<path fill-rule="evenodd" clip-rule="evenodd" d="M310.13 550.6H287.99L287.96 385.28C261.39 382.18 237.88 368.56 221.99 348.7H111.9L33.75 225.37H221.78C233.91 210.04 250.38 198.51 269.43 192.47C275.35 190.6 281.61 189.27 287.94 188.52L287.99 100.64L411.4 25.27L422.93 44.17L310.13 112.92V188.42C337.19 191.38 361.11 205.11 377.14 225.39L564.01 225.36L485.61 348.69L376.83 348.67C360.8 368.73 337 382.43 310.1 385.35L310.13 550.59M328.34 401.2V569.16H269.53V401.08C247.68 395.37 228.29 383.29 213.31 367.28L101.73 367.26L0 206.86H213.29C228.3 190.71 247.51 178.6 269.5 172.85L269.4 90.27L417.26 0L448.5 50.11L328.42 123.59L328.51 172.59C351.02 178.25 370.11 190.36 385.37 206.87H597.83L495.64 367.27H385.5C370.37 383.43 350.48 395.58 328.34 401.22V401.2Z" fill="#E1203D"/>
<path d="M365.22 326.63C351.68 349.12 327.57 364.28 299.41 364.28C271.25 364.28 246.67 349.1 233.17 326.51H123.15L106.92 300.67L223.25 300.69C222.44 296.21 222.01 291.61 222.01 286.9C222.01 282.19 222.65 277.79 223.42 273.4H89.39L72.52 247.45L232.82 247.43C246.31 224.74 271.07 209.52 299.41 209.52C327.75 209.52 352.38 224.84 365.89 247.45H524.57L507.69 273.4H375.64C376.39 277.73 376.77 282.39 376.77 286.9C376.77 291.41 376.43 296.19 375.62 300.67H490.17L473.94 326.51L365.2 326.63" fill="#364B9B"/>
<path d="M258.42 331.16H289.58L288.87 294.3H289.58C290.27 297.91 293.08 301.18 294.94 304.57L310.1 331.16H347.21L316.76 286.02L344.29 243.2H309.41L294.01 271.43C292.25 274.59 290.27 277.74 289.58 281.35H288.87L289.58 243.2H258.42V331.16Z" fill="white"/>
</g>
<defs>
<clipPath id="clip0_1_8">
<rect width="597.83" height="569.16" fill="white"/>
</clipPath>
</defs>
</svg>