<svg width="32" height="32" viewBox="0 0 32 32" fill="none" xmlns="http://www.w3.org/2000/svg">
<g clip-path="url(#clip0_728_2505)">
<path d="M16 32C24.8366 32 32 24.8366 32 16C32 7.16344 24.8366 0 16 0C7.16344 0 0 7.16344 0 16C0 24.8366 7.16344 32 16 32Z" fill="#3D74C4"/>
<path d="M9.79087 16.7593L9.19667 17.5591C9.05535 17.8353 9.2577 18.1661 9.56925 18.1661H11.5092C12.1227 20.7067 13.8892 22.4379 16.2564 22.3994C17.9362 22.3994 19.2049 21.5643 20.0496 19.8973C20.1588 19.6853 20.0625 19.4252 19.8473 19.3288L18.9223 18.9145C18.7199 18.8245 18.479 18.908 18.3795 19.1104C17.9426 19.9969 17.2168 20.5622 16.2564 20.5622C15.3892 20.5622 14.6922 20.1382 14.159 19.2774C13.9503 18.9434 13.7832 18.574 13.658 18.1661H16.144C16.3014 18.1661 16.4459 18.0762 16.5166 17.9381L17.1108 17.1383C17.2521 16.8589 17.0497 16.5313 16.7382 16.5313H13.3785C13.3689 16.3578 13.3625 16.1844 13.3625 16.0013C13.3625 15.8214 13.3625 15.6448 13.3753 15.4713H16.144C16.3014 15.4713 16.4459 15.3814 16.5166 15.2433L17.1108 14.4435C17.2521 14.1673 17.0497 13.8365 16.7382 13.8365H13.658C14.1076 12.3654 15.0487 11.4019 16.2596 11.4211C17.1814 11.4211 17.8977 11.9254 18.357 12.7541C18.4598 12.9404 18.691 13.011 18.8869 12.9243L19.8184 12.5132C20.04 12.4136 20.1364 12.147 20.0175 11.9318C19.1599 10.3805 17.9073 9.6 16.2596 9.6C14.7564 9.6 13.5552 10.1974 12.6398 11.3826C12.1066 12.0796 11.7341 12.9018 11.5124 13.8333H10.1602C10.0029 13.8333 9.85832 13.9232 9.78766 14.0613L9.19346 14.8611C9.05213 15.1405 9.25448 15.4681 9.56604 15.4681H11.2876C11.278 15.6416 11.2715 15.815 11.2715 15.9981C11.2715 16.1779 11.2715 16.3546 11.2812 16.528H10.1602C10.0029 16.528 9.85832 16.618 9.78766 16.7561L9.79087 16.7593Z" fill="white"/>
<path d="M12.6 25.3333C7.40002 23.4667 4.7333 17.6667 6.66674 12.5333C7.66674 9.73328 9.86674 7.6 12.6 6.6C12.8667 6.46672 13 6.26672 13 5.93328V5C13 4.73328 12.8667 4.53328 12.6 4.46672C12.5333 4.46672 12.4 4.46672 12.3333 4.53328C6.00002 6.53328 2.5333 13.2667 4.5333 19.6C5.7333 23.3333 8.60002 26.2 12.3333 27.4C12.6 27.5333 12.8667 27.4 12.9333 27.1333C13 27.0667 13 27 13 26.8667V25.9333C13 25.7333 12.8 25.4667 12.6 25.3333ZM19.6667 4.53328C19.4 4.4 19.1333 4.53328 19.0667 4.8C19 4.86672 19 4.93328 19 5.06672V6C19 6.26672 19.2 6.53328 19.4 6.66672C24.6 8.53328 27.2667 14.3333 25.3333 19.4667C24.3333 22.2667 22.1333 24.4 19.4 25.4C19.1333 25.5333 19 25.7333 19 26.0667V27C19 27.2667 19.1333 27.4667 19.4 27.5333C19.4667 27.5333 19.6 27.5333 19.6667 27.4667C26 25.4667 29.4667 18.7333 27.4667 12.4C26.2667 8.6 23.3333 5.73328 19.6667 4.53328V4.53328Z" fill="white"/>
</g>
<defs>
<clipPath id="clip0_728_2505">
<rect width="32" height="32" fill="white"/>
</clipPath>
</defs>
</svg>
