<svg width="33" height="32" viewBox="0 0 33 32" fill="none" xmlns="http://www.w3.org/2000/svg">
<g clip-path="url(#clip0_369_260)">
<circle cx="16.5663" cy="16" r="16" fill="white"/>
<path d="M16.5663 0C7.73143 0 0.566284 7.16515 0.566284 16C0.566284 24.8349 7.73143 32 16.5663 32C25.4011 32 32.5663 24.8349 32.5663 16C32.5663 7.16515 25.4011 0 16.5663 0ZM17.855 14.9787H14.4427L15.0101 12.8551H18.5602C19.8084 12.8551 20.8135 13.8602 20.8135 15.1084V19.2259H14.4346L15.0019 17.1023H18.6818V15.8136C18.6818 15.3516 18.3089 14.9787 17.8469 14.9787H17.855ZM13.5187 10.7315C12.854 10.7315 12.311 11.3394 12.311 12.1905V19.8987C12.311 20.7497 12.8459 21.3577 13.5187 21.3577H22.3697L22.9371 23.4813H13.5349C11.6869 23.4813 10.1874 21.9818 10.1874 19.8501V12.2391C10.1874 10.1074 11.6869 8.6079 13.5349 8.6079H22.9371L22.3697 10.7315H13.5187Z" fill="#132330"/>
</g>
<defs>
<clipPath id="clip0_369_260">
<rect width="32" height="32" fill="white" transform="translate(0.566284)"/>
</clipPath>
</defs>
</svg>
