<svg width="96" height="96" viewBox="0 0 96 96" fill="none" xmlns="http://www.w3.org/2000/svg">
<path fill-rule="evenodd" clip-rule="evenodd" d="M1.06953 48.8243L18.2078 12.4041C18.3174 12.1585 18.5681 12 18.8423 12H77.1499C77.4241 12 77.6747 12.1585 77.7844 12.4121L94.9305 48.8322C95.0636 49.1096 95.001 49.4424 94.7816 49.6564L48.4896 94.5239C48.2154 94.7854 47.7846 94.7854 47.5104 94.5239L1.21836 49.6484C0.999039 49.4345 0.936376 49.1017 1.06953 48.8243ZM17.7461 36.2017V53.144H29.5594V49.8184H21.841V46.3356H28.9555V43.0017H21.841V39.5272H29.5594V36.2017H17.7461ZM46.4603 36.2017H42.3736V46.774C42.3736 47.3586 42.244 47.8798 41.9848 48.3376C41.7256 48.7953 41.3644 49.1538 40.9011 49.413C40.4434 49.6722 39.9084 49.8018 39.2962 49.8018C38.6841 49.8018 38.1463 49.6722 37.6831 49.413C37.2198 49.1538 36.8586 48.7953 36.5994 48.3376C36.3457 47.8798 36.2188 47.3586 36.2188 46.774V36.2017H32.1239V47.1298C32.1239 48.3927 32.4217 49.493 33.0173 50.4305C33.6129 51.3626 34.4485 52.0851 35.5239 52.598C36.5994 53.1054 37.8568 53.359 39.2962 53.359C40.7191 53.359 41.9683 53.1054 43.0437 52.598C44.1192 52.0851 44.9574 51.3626 45.5586 50.4305C46.1597 49.493 46.4603 48.3927 46.4603 47.1298V36.2017ZM49.0269 53.144V36.2017H56.0255C57.294 36.2017 58.3887 36.4305 59.3097 36.8883C60.2363 37.3405 60.9505 37.9913 61.4523 38.8406C61.9542 39.6844 62.2051 40.6854 62.2051 41.8436C62.2051 43.0183 61.9487 44.0165 61.4358 44.8383C60.9266 45.6486 60.2054 46.2687 59.2723 46.6985L62.7842 53.144H58.317L55.2192 47.3449H53.1218V53.144H49.0269ZM55.1403 44.1185H53.1218V39.5024H55.1403C55.7525 39.5024 56.2682 39.5907 56.6873 39.7672C57.1065 39.9381 57.4236 40.1973 57.6387 40.5448C57.8537 40.8867 57.9613 41.3196 57.9613 41.8436C57.9613 42.3675 57.8537 42.7977 57.6387 43.1341C57.4236 43.465 57.1065 43.7132 56.6873 43.8786C56.2737 44.0386 55.758 44.1185 55.1403 44.1185ZM63.8969 36.2017V39.5272H69.0424V43.0925L66.4596 43.5479V46.0379L69.0424 45.5825V46.9113L66.4596 47.3667V49.8567L69.0424 49.4013V53.144H73.0795V48.6894L75.8262 48.2051V45.7151L73.0795 46.1994V44.8706L75.8262 44.3863V41.8963L73.0795 42.3806V39.5272H78.2168V36.2017H63.8969Z" fill="#409091"/>
</svg>
