<svg width="24" height="24" viewBox="0 0 24 24" fill="none" xmlns="http://www.w3.org/2000/svg">
<circle cx="12" cy="12" r="12" fill="#8247E5"/>
<path d="M15.9453 9.37611C15.6649 9.21588 15.3044 9.21588 14.9839 9.37611L12.7406 10.6981L11.2183 11.5393L9.01507 12.8613C8.73465 13.0215 8.37412 13.0215 8.05364 12.8613L6.33109 11.8197C6.05068 11.6595 5.85038 11.339 5.85038 10.9785V8.97552C5.85038 8.65504 6.01062 8.33457 6.33109 8.13427L8.05364 7.13279C8.33406 6.97255 8.69459 6.97255 9.01507 7.13279L10.7376 8.17433C11.018 8.33457 11.2183 8.65504 11.2183 9.01558V10.3375L12.7406 9.45623V8.09421C12.7406 7.77374 12.5803 7.45326 12.2599 7.25297L9.05513 5.37018C8.77471 5.20994 8.41418 5.20994 8.0937 5.37018L4.80884 7.29303C4.48836 7.45326 4.32812 7.77374 4.32812 8.09421V11.8598C4.32812 12.1803 4.48836 12.5007 4.80884 12.701L8.05364 14.5838C8.33406 14.7441 8.69459 14.7441 9.01507 14.5838L11.2183 13.3019L12.7406 12.4206L14.9439 11.1387C15.2243 10.9785 15.5848 10.9785 15.9053 11.1387L17.6278 12.1402C17.9082 12.3004 18.1085 12.6209 18.1085 12.9815V14.9844C18.1085 15.3049 17.9483 15.6254 17.6278 15.8257L15.9453 16.8272C15.6649 16.9874 15.3044 16.9874 14.9839 16.8272L13.2614 15.8257C12.9809 15.6654 12.7806 15.345 12.7806 14.9844V13.7025L11.2584 14.5838V15.9058C11.2584 16.2263 11.4186 16.5467 11.7391 16.747L14.9839 18.6298C15.2643 18.7901 15.6249 18.7901 15.9453 18.6298L19.1901 16.747C19.4706 16.5868 19.6709 16.2663 19.6709 15.9058V12.1001C19.6709 11.7797 19.5106 11.4592 19.1901 11.2589L15.9453 9.37611Z" fill="white"/>
</svg>
