<svg xmlns="http://www.w3.org/2000/svg" viewBox="-7 0 135 135">
    <g id="full-rgb">
        <path id="logoMark" d="M54.0366,1.5605,6.5747,28.7289A14.43,14.43,0,0,0,0,40.0718L.0148,94.2782a14.43,14.43,0,0,0,6.5809,11.3393L54.0725,132.76a14.6593,14.6593,0,0,0,13.1557-.0036L114.69,105.588a14.43,14.43,0,0,0,6.5747-11.3429L121.25,40.0386a14.43,14.43,0,0,0-6.5809-11.3392L67.1923,1.5569A14.6593,14.6593,0,0,0,54.0366,1.5605Zm46.52,95.5782L66.9853,116.3556a14.1279,14.1279,0,0,1-12.6789.0035L20.7246,97.1605a13.9078,13.9078,0,0,1-6.3425-10.9284l-.01-38.1219a13.9075,13.9075,0,0,1,6.3365-10.9318L54.28,17.9613a14.1279,14.1279,0,0,1,12.6789-.0035L100.54,37.1566a13.9075,13.9075,0,0,1,6.3425,10.9283l.01,38.122A13.9076,13.9076,0,0,1,100.5566,97.1387Z" style="fill: #0081c1"/>
    </g>
</svg>