<svg xmlns="http://www.w3.org/2000/svg" width="178" height="76" viewBox="0 0 178 76" fill="none">
<path d="M177.165 0H0V76H177.165V0Z" fill="#7bed95"/>
<path d="M21.5751 60.0351C23.373 60.6106 25.2538 60.8849 27.1414 60.8467C28.2899 60.8564 29.4349 60.7181 30.548 60.4353C31.5226 60.1978 32.4464 59.7874 33.2755 59.2235C34.0169 58.7083 34.6269 58.0267 35.0568 57.2335C35.4906 56.38 35.7085 55.4333 35.6913 54.4763C35.7195 53.6781 35.5433 52.886 35.1792 52.1749C34.8341 51.5544 34.3503 51.0218 33.7654 50.6185C33.112 50.1441 32.3916 49.7695 31.6279 49.5067C30.7474 49.2233 29.8517 48.9894 28.9449 48.8063L25.8723 48.1615C24.4919 47.8613 23.7571 47.2276 23.7571 46.3271C23.7694 46.0314 23.8689 45.7459 24.0433 45.5065C24.2176 45.2672 24.4589 45.0846 24.7368 44.9818C25.3801 44.7088 26.0755 44.5798 26.7741 44.6038C28.1411 44.5946 29.4999 44.8164 30.7929 45.2598C31.6021 45.5291 32.3908 45.856 33.1531 46.2381C33.2111 46.2667 33.2778 46.2722 33.3398 46.2537C33.4017 46.2351 33.4543 46.1938 33.4871 46.1381L35.2349 42.8695C35.2484 42.8379 35.2553 42.8038 35.2553 42.7694C35.2553 42.7351 35.2484 42.701 35.2349 42.6694C35.2101 42.6097 35.1673 42.5592 35.1124 42.5249C34.0409 41.9969 32.9229 41.5689 31.7726 41.2463C30.2011 40.8256 28.579 40.6236 26.9522 40.646C25.901 40.6466 24.854 40.7773 23.835 41.0351C22.891 41.2618 21.9891 41.6371 21.1632 42.1469C20.4182 42.6237 19.7903 43.2621 19.3263 44.0146C18.9141 44.7709 18.6834 45.6124 18.6525 46.4729C18.6216 47.3334 18.7913 48.1893 19.1482 48.9731C19.472 49.6065 19.923 50.1666 20.473 50.6185C21.0569 51.0873 21.7105 51.4624 22.41 51.7302C23.1589 52.0283 23.9342 52.2554 24.7256 52.4084L27.0635 52.9087C27.8932 53.055 28.7012 53.3053 29.4682 53.6536C29.78 53.7648 30.0521 53.9655 30.2501 54.2305C30.4482 54.4956 30.5634 54.8131 30.5814 55.1433C30.5814 55.588 30.3699 56.2551 29.3346 56.5219C28.5905 56.7418 27.8171 56.8468 27.0412 56.8332C25.6679 56.842 24.3062 56.5814 23.0335 56.0661C22.1446 55.7168 21.2941 55.2772 20.4952 54.7542C20.4341 54.7321 20.3671 54.7321 20.306 54.7542C20.2736 54.7607 20.243 54.774 20.2161 54.7931C20.1893 54.8123 20.1668 54.8369 20.1501 54.8654L18.046 58.0895C18.0321 58.1191 18.0249 58.1513 18.0249 58.184C18.0249 58.2167 18.0321 58.2489 18.046 58.2785C18.052 58.3081 18.064 58.3362 18.0812 58.3611C18.0985 58.3859 18.1206 58.407 18.1462 58.423C19.2212 59.0942 20.3722 59.6353 21.5751 60.0351ZM70.659 31.7185C71.4251 32.4239 72.3547 32.9282 73.3643 33.1861C74.6995 33.5212 76.0734 33.6782 77.45 33.653C78.8475 33.6882 80.2418 33.5005 81.5802 33.0971C82.5906 32.7903 83.5063 32.2317 84.2409 31.4739C84.9448 30.6883 85.4522 29.7472 85.7215 28.7279C86.0691 27.4001 86.2339 26.0311 86.2114 24.6588V14.1861C86.2114 14.1182 86.1844 14.0532 86.1364 14.0052C86.0883 13.9573 86.0232 13.9304 85.9553 13.9304H81.5022C81.4691 13.9303 81.4363 13.937 81.4059 13.95C81.3754 13.963 81.3479 13.982 81.325 14.0059C81.3021 14.0298 81.2843 14.0581 81.2727 14.089C81.261 14.12 81.2558 14.153 81.2573 14.1861V25.237C81.3107 26.3506 81.0276 27.4546 80.4446 28.4055C80.0849 28.8611 79.6155 29.2184 79.0802 29.4439C78.5448 29.6694 77.961 29.7559 77.3832 29.6951C76.8126 29.7544 76.236 29.6786 75.7003 29.4739C75.1645 29.2691 74.6846 28.9412 74.2994 28.5167C73.679 27.5402 73.3902 26.3902 73.4756 25.237V14.1861C73.4771 14.153 73.4719 14.12 73.4602 14.089C73.4486 14.0581 73.4308 14.0298 73.4079 14.0059C73.385 13.982 73.3575 13.963 73.327 13.95C73.2966 13.937 73.2638 13.9303 73.2307 13.9304H68.7776C68.7445 13.9303 68.7117 13.937 68.6812 13.95C68.6508 13.963 68.6233 13.982 68.6004 14.0059C68.5775 14.0298 68.5597 14.0581 68.548 14.089C68.5364 14.12 68.5312 14.153 68.5327 14.1861V24.8367C68.4998 26.26 68.6799 27.6802 69.0671 29.0503C69.363 30.0599 69.9108 30.978 70.659 31.7185ZM94.1824 31.196C95.2615 31.8825 96.4204 32.435 97.6335 32.8414C99.4311 33.4178 101.312 33.692 103.2 33.653C104.348 33.6627 105.493 33.5244 106.606 33.2416C107.58 33.0019 108.504 32.5916 109.334 32.0298C110.076 31.5092 110.683 30.8194 111.104 30.0175C111.553 29.1492 111.775 28.1817 111.75 27.2048C111.792 26.45 111.637 25.6972 111.299 25.0207C110.962 24.3441 110.453 23.7673 109.824 23.347C109.168 22.8705 108.443 22.4957 107.675 22.2352C106.795 21.9442 105.899 21.703 104.992 21.5126L101.931 20.8677C100.55 20.5676 99.8155 19.9339 99.8155 19.0333C99.8438 18.7544 99.9509 18.4892 100.124 18.2687C100.298 18.0483 100.53 17.8816 100.795 17.7882C101.439 17.5193 102.135 17.3941 102.832 17.4213C104.199 17.4093 105.557 17.6273 106.851 18.0661C107.66 18.3354 108.449 18.6623 109.211 19.0445C109.268 19.0724 109.333 19.0776 109.393 19.059C109.453 19.0403 109.504 18.9993 109.534 18.9444L111.293 15.6091C111.31 15.5813 111.321 15.5501 111.324 15.5177C111.327 15.4854 111.324 15.4527 111.313 15.4219C111.302 15.3912 111.285 15.3632 111.262 15.3398C111.24 15.3164 111.212 15.2983 111.182 15.2867C110.115 14.7466 108.996 14.3146 107.842 13.9971C106.274 13.5763 104.656 13.3742 103.033 13.3967C101.982 13.3973 100.935 13.528 99.9157 13.7858C98.9716 14.0125 98.0697 14.3878 97.2438 14.8976C96.4988 15.3744 95.8709 16.0128 95.4069 16.7653C94.9408 17.568 94.7058 18.4837 94.7279 19.4113C94.7089 20.2097 94.8766 21.0015 95.2177 21.7238C95.5492 22.3554 96.0033 22.9148 96.5536 23.3692C97.136 23.8403 97.7899 24.2156 98.4907 24.481C99.2362 24.7776 100.008 25.0046 100.795 25.1591L103.144 25.6594C103.974 25.8069 104.781 26.0571 105.549 26.4043C105.861 26.5142 106.134 26.7146 106.333 26.9799C106.531 27.2452 106.646 27.5635 106.662 27.8941C106.662 28.3388 106.451 28.9502 105.426 29.2727C104.681 29.4876 103.908 29.5888 103.133 29.5728C101.752 29.6125 100.376 29.386 99.0807 28.9058C98.1929 28.5542 97.3426 28.1147 96.5425 27.5939C96.4852 27.5716 96.4216 27.5716 96.3643 27.5939C96.332 27.6004 96.3014 27.6137 96.2745 27.6328C96.2476 27.652 96.2251 27.6766 96.2085 27.7051L94.1044 30.9292C94.0922 30.9572 94.0858 30.9875 94.0858 31.0181C94.0858 31.0487 94.0922 31.079 94.1044 31.1071C94.1234 31.1422 94.15 31.1725 94.1824 31.196ZM43.2393 33.2861H47.6923C47.7573 33.2861 47.8196 33.2603 47.8655 33.2145C47.9114 33.1686 47.9373 33.1064 47.9373 33.0415V26.8379C47.9373 26.6993 47.9924 26.5664 48.0905 26.4684C48.1886 26.3704 48.3217 26.3154 48.4605 26.3154H50.9876C51.0776 26.3162 51.1658 26.3401 51.2438 26.3849C51.3218 26.4297 51.387 26.4938 51.4329 26.5711L55.3071 33.1638C55.3276 33.2017 55.3582 33.2332 55.3956 33.2548C55.4329 33.2764 55.4755 33.2872 55.5186 33.2861H60.4058C60.4504 33.2868 60.4944 33.2759 60.5334 33.2545C60.5725 33.233 60.6052 33.2018 60.6285 33.1638C60.648 33.126 60.6582 33.0841 60.6582 33.0415C60.6582 32.999 60.648 32.9571 60.6285 32.9192L56.4315 26.0708C56.4018 26.0024 56.3864 25.9286 56.3864 25.854C56.3864 25.7794 56.4018 25.7056 56.4315 25.6372C56.4788 25.4977 56.5786 25.3821 56.7098 25.3148C57.6548 24.8707 58.4709 24.1935 59.0811 23.347C59.7461 22.3661 60.0707 21.1945 60.0051 20.0117C60.0474 18.9643 59.8213 17.9235 59.3482 16.9877C58.9319 16.2169 58.312 15.5747 57.5559 15.1311C56.6852 14.6349 55.7304 14.3033 54.7393 14.1527C53.5212 13.9545 52.2886 13.8578 51.0544 13.8636H43.2615C43.2284 13.8636 43.1956 13.8703 43.1652 13.8833C43.1347 13.8962 43.1072 13.9153 43.0843 13.9392C43.0614 13.9631 43.0436 13.9914 43.032 14.0223C43.0203 14.0533 43.0151 14.0863 43.0166 14.1194V33.0193C43.0136 33.0514 43.0169 33.0839 43.0265 33.1147C43.036 33.1456 43.0516 33.1742 43.0723 33.199C43.093 33.2238 43.1184 33.2443 43.1471 33.2592C43.1757 33.2742 43.2071 33.2833 43.2393 33.2861ZM47.8705 18.5442C47.8705 18.4056 47.9256 18.2727 48.0237 18.1747C48.1218 18.0767 48.2549 18.0216 48.3937 18.0216H51.7335C52.4997 17.9683 53.2668 18.1139 53.96 18.4441C54.257 18.6124 54.4996 18.8619 54.6593 19.1633C54.8191 19.4646 54.8893 19.8052 54.8618 20.1451C54.8891 20.4819 54.8185 20.8194 54.6586 21.1172C54.4986 21.4149 54.2561 21.6603 53.96 21.8239C53.262 22.1377 52.4973 22.2752 51.7335 22.2241H48.3937C48.2549 22.2241 48.1218 22.169 48.0237 22.071C47.9256 21.9731 47.8705 21.8401 47.8705 21.7016V18.5442ZM18.2576 18.0216H23.6792C23.8179 18.0216 23.951 18.0767 24.0492 18.1747C24.1473 18.2727 24.2024 18.4056 24.2024 18.5442V32.9971C24.2024 33.0619 24.2282 33.1241 24.2741 33.17C24.3201 33.2159 24.3824 33.2416 24.4473 33.2416H28.9004C28.9653 33.2416 29.0276 33.2159 29.0736 33.17C29.1195 33.1241 29.1453 33.0619 29.1453 32.9971V18.5442C29.1453 18.4056 29.2004 18.2727 29.2986 18.1747C29.3967 18.0767 29.5298 18.0216 29.6685 18.0216H35.1124C35.1774 18.0216 35.2397 17.9959 35.2856 17.95C35.3315 17.9041 35.3573 17.8419 35.3573 17.777V14.1861C35.3588 14.153 35.3536 14.12 35.342 14.089C35.3304 14.0581 35.3126 14.0298 35.2897 14.0059C35.2668 13.982 35.2393 13.963 35.2088 13.95C35.1783 13.937 35.1455 13.9303 35.1124 13.9304H18.2576C18.2244 13.9303 18.1917 13.937 18.1612 13.95C18.1307 13.963 18.1032 13.982 18.0803 14.0059C18.0574 14.0298 18.0396 14.0581 18.028 14.089C18.0164 14.12 18.0111 14.153 18.0126 14.1861V17.7882C18.0155 17.8511 18.0426 17.9105 18.0882 17.954C18.1338 17.9975 18.1945 18.0217 18.2576 18.0216ZM85.9664 41.1352H81.5134C81.4803 41.1351 81.4475 41.1418 81.417 41.1548C81.3865 41.1678 81.359 41.1868 81.3361 41.2107C81.3132 41.2346 81.2954 41.2629 81.2838 41.2938C81.2722 41.3248 81.267 41.3578 81.2685 41.3909V52.4418C81.3341 53.5423 81.0706 54.6375 80.5114 55.588C80.1517 56.0437 79.6823 56.401 79.147 56.6265C78.6116 56.852 78.0278 56.9384 77.45 56.8777C76.8794 56.937 76.3028 56.8612 75.7671 56.6564C75.2313 56.4517 74.7514 56.1237 74.3662 55.6992C73.7458 54.7228 73.457 53.5728 73.5424 52.4195V41.3909C73.5439 41.3578 73.5387 41.3248 73.527 41.2938C73.5154 41.2629 73.4976 41.2346 73.4747 41.2107C73.4518 41.1868 73.4243 41.1678 73.3938 41.1548C73.3634 41.1418 73.3306 41.1351 73.2975 41.1352H68.8444C68.7765 41.1352 68.7114 41.1621 68.6633 41.21C68.6153 41.258 68.5884 41.323 68.5884 41.3909V52.0415C68.5554 53.4648 68.7355 54.885 69.1227 56.2551C69.4027 57.2591 69.931 58.1766 70.659 58.9233C71.4251 59.6287 72.3547 60.133 73.3643 60.3909C74.6995 60.726 76.0734 60.883 77.45 60.8578C78.8475 60.893 80.2418 60.7053 81.5802 60.3019C82.5906 59.9951 83.5063 59.4365 84.2409 58.6787C84.9483 57.8956 85.4562 56.9536 85.7215 55.9327C86.0684 54.6047 86.2332 53.2359 86.2114 51.8636V41.3909C86.2114 41.3249 86.186 41.2615 86.1403 41.2139C86.0947 41.1662 86.0324 41.138 85.9664 41.1352ZM105.003 41.3019C104.986 41.254 104.954 41.2124 104.912 41.1827C104.87 41.153 104.821 41.1364 104.77 41.1352H99.2923C99.2414 41.1378 99.1924 41.1549 99.151 41.1845C99.1096 41.214 99.0775 41.2548 99.0585 41.3019L92.1228 60.2019C92.1043 60.236 92.0946 60.2742 92.0946 60.313C92.0946 60.3519 92.1043 60.3901 92.1228 60.4242C92.1476 60.4565 92.1797 60.4824 92.2165 60.4998C92.2532 60.5172 92.2936 60.5256 92.3343 60.5243H97.0434C97.0946 60.523 97.1443 60.5064 97.186 60.4767C97.2276 60.447 97.2594 60.4055 97.2772 60.3575L98.2346 57.4447C98.2699 57.3402 98.3373 57.2495 98.4273 57.1856C98.5173 57.1217 98.6252 57.0878 98.7356 57.0889H105.193C105.303 57.0895 105.41 57.124 105.499 57.1877C105.589 57.2513 105.657 57.3411 105.694 57.4447L106.651 60.3575C106.669 60.4055 106.701 60.447 106.742 60.4767C106.784 60.5064 106.834 60.523 106.885 60.5243H111.716C111.756 60.5268 111.795 60.5188 111.83 60.5012C111.865 60.4837 111.895 60.4571 111.917 60.4242C111.937 60.3908 111.948 60.3523 111.948 60.313C111.948 60.2738 111.937 60.2353 111.917 60.2019L105.003 41.3019ZM104.012 52.8198C103.964 52.8857 103.9 52.9391 103.826 52.9758C103.753 53.0125 103.672 53.0314 103.589 53.031H100.417C100.333 53.0311 100.251 53.0109 100.178 52.9721C100.104 52.9334 100.041 52.8773 99.9936 52.8086C99.9449 52.7423 99.9133 52.665 99.9016 52.5835C99.89 52.5021 99.8986 52.419 99.9268 52.3417L101.519 47.5167C101.554 47.4122 101.621 47.3215 101.711 47.2576C101.801 47.1937 101.909 47.1598 102.02 47.1609C102.13 47.1612 102.237 47.1971 102.326 47.2632C102.414 47.3293 102.478 47.4221 102.51 47.5278L104.079 52.3417C104.105 52.4213 104.112 52.5056 104.101 52.5884C104.089 52.6711 104.059 52.7502 104.012 52.8198ZM158.863 56.4108H149.078C148.939 56.4108 148.806 56.3557 148.708 56.2577C148.609 56.1597 148.554 56.0268 148.554 55.8882V53.3645C148.557 53.2279 148.614 53.0978 148.711 53.0022C148.809 52.9066 148.941 52.8531 149.078 52.8531H158.217C158.251 52.8531 158.283 52.8465 158.314 52.8335C158.344 52.8205 158.372 52.8015 158.395 52.7776C158.418 52.7537 158.435 52.7254 158.447 52.6944C158.459 52.6635 158.464 52.6305 158.462 52.5974V48.9731C158.462 48.9082 158.437 48.846 158.391 48.8001C158.345 48.7542 158.282 48.7285 158.217 48.7285H149.078C148.939 48.7285 148.806 48.6734 148.708 48.5754C148.609 48.4774 148.554 48.3445 148.554 48.206V45.749C148.554 45.6104 148.609 45.4775 148.708 45.3795C148.806 45.2815 148.939 45.2264 149.078 45.2264H158.741C158.806 45.2264 158.868 45.2007 158.914 45.1548C158.96 45.1089 158.986 45.0467 158.986 44.9818V41.3909C158.987 41.3578 158.982 41.3248 158.97 41.2938C158.959 41.2629 158.941 41.2346 158.918 41.2107C158.895 41.1868 158.868 41.1678 158.837 41.1548C158.807 41.1418 158.774 41.1351 158.741 41.1352H143.879C143.845 41.1351 143.813 41.1418 143.782 41.1548C143.752 41.1678 143.724 41.1868 143.701 41.2107C143.678 41.2346 143.661 41.2629 143.649 41.2938C143.637 41.3248 143.632 41.3578 143.634 41.3909V60.2908C143.634 60.3557 143.659 60.4179 143.705 60.4637C143.751 60.5096 143.814 60.5354 143.879 60.5354H158.863C158.928 60.5354 158.99 60.5096 159.036 60.4637C159.082 60.4179 159.108 60.3557 159.108 60.2908V56.6998C159.115 56.6642 159.113 56.6275 159.104 56.5925C159.095 56.5575 159.078 56.525 159.054 56.4973C159.031 56.4697 159.001 56.4475 158.968 56.4326C158.935 56.4176 158.899 56.4101 158.863 56.4108ZM123.996 18.5442V32.9971C123.996 33.0619 124.021 33.1241 124.067 33.17C124.113 33.2159 124.176 33.2416 124.241 33.2416H128.694C128.759 33.2416 128.821 33.2159 128.867 33.17C128.913 33.1241 128.939 33.0619 128.939 32.9971V18.5442C128.939 18.4056 128.994 18.2727 129.092 18.1747C129.19 18.0767 129.323 18.0216 129.462 18.0216H134.906C134.971 18.0216 135.033 17.9959 135.079 17.95C135.125 17.9041 135.151 17.8419 135.151 17.777V14.1861C135.152 14.153 135.147 14.12 135.135 14.089C135.124 14.0581 135.106 14.0298 135.083 14.0059C135.06 13.982 135.032 13.963 135.002 13.95C134.972 13.937 134.939 13.9303 134.906 13.9304H118.062C118.029 13.9303 117.996 13.937 117.966 13.95C117.935 13.963 117.908 13.982 117.885 14.0059C117.862 14.0298 117.844 14.0581 117.832 14.089C117.821 14.12 117.815 14.153 117.817 14.1861V17.7882C117.817 17.853 117.843 17.9152 117.889 17.9611C117.935 18.007 117.997 18.0327 118.062 18.0327H123.472C123.609 18.0327 123.741 18.0862 123.839 18.1818C123.936 18.2774 123.993 18.4075 123.996 18.5442ZM131.844 53.2756C131.806 53.213 131.781 53.1431 131.771 53.0703C131.762 52.9975 131.768 52.9235 131.788 52.8531C131.81 52.7817 131.846 52.7154 131.894 52.6581C131.942 52.6008 132 52.5537 132.067 52.5196C133.04 52.0977 133.888 51.4313 134.527 50.5851C135.192 49.6042 135.517 48.4326 135.451 47.2498C135.497 46.1985 135.271 45.1531 134.794 44.2147C134.375 43.4493 133.755 42.8116 133.002 42.3692C132.131 41.8731 131.176 41.5414 130.185 41.3909C128.967 41.1927 127.735 41.096 126.5 41.1018H118.708C118.674 41.1018 118.642 41.1084 118.611 41.1214C118.581 41.1344 118.553 41.1534 118.53 41.1773C118.507 41.2012 118.49 41.2295 118.478 41.2605C118.466 41.2915 118.461 41.3245 118.463 41.3575V60.2574C118.463 60.3223 118.489 60.3845 118.534 60.4304C118.58 60.4763 118.643 60.502 118.708 60.502H123.161C123.226 60.502 123.288 60.4763 123.334 60.4304C123.38 60.3845 123.406 60.3223 123.406 60.2574V54.0427C123.408 53.905 123.464 53.7737 123.562 53.6764C123.66 53.579 123.791 53.523 123.929 53.5202H126.456C126.547 53.5222 126.637 53.5465 126.716 53.5911C126.796 53.6357 126.863 53.6992 126.912 53.7759L130.775 60.3686C130.796 60.4065 130.827 60.438 130.864 60.4596C130.901 60.4812 130.944 60.492 130.987 60.4909H135.819C135.863 60.4916 135.907 60.4807 135.946 60.4593C135.985 60.4378 136.018 60.4066 136.041 60.3686C136.065 60.3323 136.078 60.2898 136.078 60.2463C136.078 60.2029 136.065 60.1603 136.041 60.124L131.844 53.2756ZM129.384 49.0287C128.686 49.3438 127.921 49.4813 127.157 49.4289H123.818C123.679 49.4289 123.546 49.3738 123.448 49.2758C123.349 49.1779 123.294 49.0449 123.294 48.9064V45.749C123.297 45.6113 123.353 45.48 123.451 45.3826C123.548 45.2852 123.68 45.2293 123.818 45.2264H127.157C127.924 45.1731 128.691 45.3187 129.384 45.6489C129.681 45.8172 129.923 46.0667 130.083 46.3681C130.243 46.6694 130.313 47.01 130.286 47.3499C130.314 47.6869 130.244 48.0249 130.084 48.323C129.924 48.621 129.681 48.8662 129.384 49.0287ZM59.3148 43.2475C58.3793 42.3762 57.2668 41.7164 56.053 41.313C53.3259 40.4233 50.386 40.4233 47.6589 41.313C46.4476 41.7154 45.3399 42.3792 44.4144 43.2573C43.4889 44.1354 42.7685 45.2063 42.3041 46.3938C41.7774 47.7777 41.5205 49.2494 41.5471 50.7297C41.5223 52.2134 41.7792 53.6884 42.3041 55.0766C42.7721 56.2723 43.498 57.3503 44.4305 58.234C45.3674 59.1086 46.4791 59.7755 47.6923 60.1907C49.0437 60.6475 50.4627 60.873 51.8894 60.8578C52.4401 60.8591 52.9904 60.8256 53.537 60.7577C54.0714 60.691 54.6502 60.591 55.1178 60.4798C55.2184 60.4584 55.323 60.4659 55.4195 60.5013C55.516 60.5367 55.6005 60.5986 55.6633 60.6799L57.4891 63.1814C57.5127 63.2121 57.543 63.2371 57.5777 63.2545C57.6125 63.2718 57.6507 63.281 57.6895 63.2814C57.7372 63.291 57.7864 63.291 57.8342 63.2814L60.2055 61.636C60.2552 61.5921 60.2902 61.5338 60.3056 61.4693C60.327 61.4119 60.327 61.3488 60.3056 61.2914L58.8918 59.3458C58.8142 59.2386 58.7792 59.1065 58.7936 58.9751C58.808 58.8436 58.8708 58.7221 58.9697 58.6343C60.0121 57.7456 60.8383 56.6317 61.3855 55.3768C61.9976 53.9208 62.2972 52.3529 62.265 50.7741C62.2916 49.2939 62.0346 47.8222 61.508 46.4383C61.0233 45.2252 60.2741 44.1353 59.3148 43.2475ZM56.7766 52.7753C56.6569 53.3432 56.4622 53.8928 56.1977 54.4096C56.1519 54.4911 56.0858 54.5595 56.0059 54.6082C55.926 54.6569 55.8348 54.6842 55.7413 54.6875C55.6574 54.6888 55.5743 54.6704 55.4989 54.6337C55.4235 54.597 55.3578 54.5431 55.3071 54.4763L53.8932 52.4974C53.8522 52.4442 53.7925 52.4085 53.7262 52.3973C53.6964 52.3841 53.6642 52.3773 53.6316 52.3773C53.599 52.3773 53.5668 52.3841 53.537 52.3973L51.2103 54.165C51.1741 54.2088 51.1543 54.2638 51.1543 54.3206C51.1543 54.3774 51.1741 54.4325 51.2103 54.4763L52.3235 56.0439C52.3749 56.1254 52.4022 56.2199 52.4022 56.3162C52.4022 56.4126 52.3749 56.5071 52.3235 56.5886C52.2759 56.6759 52.2048 56.7482 52.1183 56.7973C52.0317 56.8464 51.9332 56.8704 51.8337 56.8666C51.1773 56.867 50.5257 56.7541 49.9077 56.533C49.2657 56.2972 48.6866 55.9168 48.2156 55.4213C47.7156 54.8595 47.3367 54.201 47.1023 53.4868C46.8119 52.5895 46.6727 51.6503 46.6904 50.7074C46.6687 49.7634 46.8118 48.8229 47.1134 47.928C47.3512 47.2186 47.7298 46.5644 48.2267 46.0047C48.7009 45.5078 49.2839 45.1272 49.93 44.8929C51.1689 44.4777 52.5096 44.4777 53.7485 44.8929C54.3946 45.1272 54.9776 45.5078 55.4518 46.0047C55.9487 46.5644 56.3274 47.2186 56.5651 47.928C56.8649 48.8233 57.008 49.7636 56.9881 50.7074C56.9996 51.4026 56.9286 52.0968 56.7766 52.7753Z" fill="white"/>
</svg>