<svg width="323" height="310" viewBox="0 0 323 310" fill="none" xmlns="http://www.w3.org/2000/svg">
<rect x="31" y="41" width="248" height="229" fill="#FF3333"/>
<rect x="46" y="26" width="218" height="15" fill="black"/>
<rect x="31" y="56" width="199" height="15" transform="rotate(90 31 56)" fill="black"/>
<rect x="294" y="56" width="199" height="15" transform="rotate(90 294 56)" fill="black"/>
<rect x="31" y="41" width="15" height="15" fill="black"/>
<rect x="31" y="255" width="15" height="15" fill="black"/>
<rect x="82" y="178" width="16" height="16" fill="black"/>
<rect x="98" y="162" width="16" height="16" fill="black"/>
<rect x="114" y="146" width="16" height="16" fill="black"/>
<rect x="130" y="130" width="16" height="16" fill="black"/>
<rect x="146" y="114" width="16" height="16" fill="black"/>
<rect x="162" y="130" width="16" height="16" fill="black"/>
<rect x="178" y="114" width="16" height="16" fill="black"/>
<rect x="194" y="98" width="16" height="16" fill="black"/>
<rect x="210" y="82" width="16" height="16" fill="black"/>
<rect x="82" y="162" width="16" height="16" fill="#F46184"/>
<rect x="98" y="146" width="16" height="16" fill="#F46184"/>
<rect x="114" y="130" width="16" height="16" fill="#F46184"/>
<rect x="130" y="114" width="16" height="16" fill="#F46184"/>
<rect x="146" y="98" width="16" height="16" fill="#F46184"/>
<rect x="162" y="114" width="16" height="16" fill="#F46184"/>
<rect x="178" y="98" width="16" height="16" fill="#F46184"/>
<rect x="194" y="82" width="16" height="16" fill="#F46184"/>
<rect x="210" y="66" width="16" height="16" fill="#F46184"/>
<rect x="82" y="146" width="16" height="16" fill="black"/>
<rect x="98" y="130" width="16" height="16" fill="black"/>
<rect x="114" y="114" width="16" height="16" fill="black"/>
<rect x="130" y="98" width="16" height="16" fill="black"/>
<rect x="146" y="82" width="16" height="16" fill="black"/>
<rect x="162" y="98" width="16" height="16" fill="black"/>
<rect x="178" y="82" width="16" height="16" fill="black"/>
<rect x="194" y="66" width="16" height="16" fill="black"/>
<rect x="226" y="66" width="16" height="16" fill="black"/>
<rect x="210" y="50" width="16" height="16" fill="black"/>
<rect x="264" y="41" width="15" height="15" fill="black"/>
<rect x="264" y="255" width="15" height="15" fill="black"/>
<rect x="46" y="270" width="218" height="15" fill="black"/>
<rect x="47" y="202" width="11" height="45" fill="white"/>
<rect x="58" y="202" width="22" height="11" fill="white"/>
<rect x="58" y="219" width="12" height="9" fill="white"/>
<rect x="80" y="219" width="19" height="9" fill="white"/>
<rect x="108" y="219" width="13" height="9" fill="white"/>
<rect x="132" y="219" width="13" height="9" fill="white"/>
<rect x="131" y="238" width="13" height="9" fill="white"/>
<rect x="142" y="228" width="12" height="10" fill="white"/>
<rect x="166" y="228" width="8" height="10" fill="white"/>
<rect x="183" y="228" width="10" height="9" fill="white"/>
<rect x="216" y="228" width="10" height="19" fill="white"/>
<rect x="235" y="228" width="10" height="19" fill="white"/>
<rect x="254" y="228" width="10" height="19" fill="white"/>
<rect x="202" y="228" width="12" height="9" fill="white"/>
<rect x="174" y="219" width="9" height="9" fill="white"/>
<rect x="193" y="219" width="14" height="9" fill="white"/>
<rect x="216" y="219" width="48" height="9" fill="white"/>
<rect x="193" y="237" width="14" height="10" fill="white"/>
<rect x="174" y="237" width="9" height="10" fill="white"/>
<rect x="108" y="238" width="13" height="9" fill="white"/>
<rect x="80" y="238" width="19" height="9" fill="white"/>
<rect x="80" y="228" width="8" height="10" fill="white"/>
<rect x="154" y="202" width="12" height="45" fill="white"/>
<rect x="99" y="228" width="9" height="10" fill="white"/>
<rect x="120" y="228" width="11" height="10" fill="white"/>
</svg>
