<svg xmlns="http://www.w3.org/2000/svg" id="a" viewBox="0 0 500 500">
  <defs />
  <circle class="b" style="fill:#fff;" cx="250" cy="250" r="250" />
  <polygon class="c" style="fill:#ce0e2d;"
    points="304.39999 109.7 304.39999 109.7 285.5 79.3 147 303.70001 112.3 303.70001 168.89999 212 170.10001 213.8 170.10001 213.8 179.3 228.60001 198.10001 198.2 178.10001 166 178 166 168.8 151.2 150 181.60001 150 181.60001 54.9 335.70001 76.3 335.70001 92.6 335.70001 164.89999 335.70001 164.89999 335.70001 164.89999 335.70001 285.60001 140.10001 387.39999 303.70001 263.79999 303.70001 231.10001 251.2 212.3 281.60001 246 335.70001 246 335.70001 407.39999 335.70001 408.89999 335.70001 445.10001 335.70001 304.39999 109.7" />
</svg>