<svg width="88" height="88" viewBox="0 0 88 88" fill="none" xmlns="http://www.w3.org/2000/svg">
  <defs>
    <radialGradient id="pharosGlow" cx="50%" cy="50%" r="50%">
      <stop offset="0%" stop-color="#E8DCC4" stop-opacity="0.45"/>
      <stop offset="100%" stop-color="#E8DCC4" stop-opacity="0"/>
    </radialGradient>
    <linearGradient id="pharosTower" x1="0%" y1="0%" x2="100%" y2="0%">
      <stop offset="0%" stop-color="#D4C8B0"/>
      <stop offset="40%" stop-color="#E8DCC4"/>
      <stop offset="100%" stop-color="#C8BBAA"/>
    </linearGradient>
    <filter id="pharosLanternGlow" x="-40%" y="-40%" width="180%" height="180%">
      <feGaussianBlur in="SourceGraphic" stdDeviation="3" result="blur"/>
      <feMerge><feMergeNode in="blur"/><feMergeNode in="SourceGraphic"/></feMerge>
    </filter>
  </defs>
  <circle cx="44" cy="16" r="16" fill="url(#pharosGlow)"/>
  <line x1="44" y1="16" x2="44" y2="-4" stroke="#E8DCC4" stroke-width="2.5" opacity="0.55" stroke-linecap="round"/>
  <line x1="44" y1="16" x2="22" y2="-2" stroke="#E8DCC4" stroke-width="2.5" opacity="0.4" stroke-linecap="round"/>
  <line x1="44" y1="16" x2="66" y2="-2" stroke="#E8DCC4" stroke-width="2.5" opacity="0.4" stroke-linecap="round"/>
  <line x1="44" y1="16" x2="4" y2="4" stroke="#E8DCC4" stroke-width="2" opacity="0.25" stroke-linecap="round"/>
  <line x1="44" y1="16" x2="84" y2="4" stroke="#E8DCC4" stroke-width="2" opacity="0.25" stroke-linecap="round"/>
  <line x1="44" y1="16" x2="-4" y2="14" stroke="#E8DCC4" stroke-width="1.5" opacity="0.15" stroke-linecap="round"/>
  <line x1="44" y1="16" x2="92" y2="14" stroke="#E8DCC4" stroke-width="1.5" opacity="0.15" stroke-linecap="round"/>
  <path d="M14,8 L74,8 L74,36 Q74,74 44,84 Q14,74 14,36 Z" fill="none" stroke="#E8DCC4" stroke-width="3" opacity="0.5" stroke-linejoin="round"/>
  <circle cx="44" cy="16" r="5" fill="white" opacity="0.85" filter="url(#pharosLanternGlow)"/>
  <path d="M39,22 C39,14 49,14 49,22 Z" fill="#E8DCC4" opacity="0.9"/>
  <rect x="38.5" y="22" width="11" height="7" rx="1" fill="#F5F0E6" opacity="0.85"/>
  <line x1="42" y1="22" x2="42" y2="29" stroke="#0a1628" stroke-width="0.8" opacity="0.3"/>
  <line x1="46" y1="22" x2="46" y2="29" stroke="#0a1628" stroke-width="0.8" opacity="0.3"/>
  <rect x="34" y="29" width="20" height="4" rx="1.5" fill="#E8DCC4" opacity="0.85"/>
  <path d="M37,33 L51,33 L54,66 L34,66 Z" fill="url(#pharosTower)" opacity="0.8"/>
  <line x1="36.2" y1="44" x2="52.2" y2="44" stroke="#0d1f3c" stroke-width="2" opacity="0.35"/>
  <line x1="35.3" y1="55" x2="53.1" y2="55" stroke="#0d1f3c" stroke-width="2" opacity="0.35"/>
  <rect x="30" y="66" width="28" height="5" rx="2.5" fill="#E8DCC4" opacity="0.7"/>
  <rect x="26" y="71" width="36" height="5" rx="2.5" fill="#E8DCC4" opacity="0.45"/>
</svg>
