<svg width="115" height="115" viewBox="0 0 115 115" fill="none" xmlns="http://www.w3.org/2000/svg">
<path d="M0.527344 102.303C0.527344 102.743 0.543064 103.168 0.590204 103.592C1.23444 109.956 6.59265 114.937 13.1136 114.937C18.6447 114.937 23.343 111.354 25.0243 106.389L26.2656 101.392L30.0211 72.7467C30.0211 65.77 35.6621 60.1133 42.6074 60.1133C48.5313 60.1133 53.4967 64.2144 54.8323 69.7455L55.5551 74.5694L59.9705 105.729L60.2376 106.577C61.9818 111.448 66.6329 114.937 72.0854 114.937H101.579C108.524 114.937 114.165 109.28 114.165 102.303V72.7467C114.165 65.77 108.524 60.1133 101.579 60.1133C98.5622 60.1133 95.7967 61.1818 93.6283 62.9574L91.6798 64.9529L81.3876 81.2633L79.7692 82.756C77.915 84.1859 75.6366 85.113 73.1696 85.333L72.1011 85.3801C65.1559 85.3801 59.5148 79.7234 59.5148 72.7467C59.5148 66.6343 63.836 61.5432 69.5713 60.3647L70.7026 60.1133L102.381 55.8236L103.81 55.635C109.719 54.5979 114.197 49.4126 114.197 43.1901V13.6335C114.197 13.5078 114.197 13.3664 114.197 13.2407C114.008 6.9554 109.231 1.81718 103.119 1.07865L72.1168 0.984375C65.9101 0.984375 60.7562 5.49407 59.7191 11.418L55.3822 42.6873L55.1465 44.4629C54.5494 50.2925 50.024 54.9593 44.2573 55.6978L42.6231 55.8078C35.6778 55.8078 30.0368 50.1511 30.0368 43.1744C30.0368 38.3976 32.6766 34.2493 36.5578 32.0966L38.302 30.9967L50.6526 23.3286L52.3182 21.6473C54.1095 19.4631 55.1937 16.6662 55.1937 13.6178C55.1937 6.64114 49.5526 0.984375 42.6074 0.984375H42.0731L14.0879 1.03151L13.1136 1.00009C6.16839 1.00009 0.527344 6.65685 0.527344 13.6335C0.527344 18.0018 2.7272 21.8358 6.07412 24.1143L7.14262 24.7742L19.6346 32.3951C23.2644 34.6107 25.6842 38.6176 25.6842 43.2058C25.6842 46.3328 24.5529 49.1926 22.683 51.4081L10.2695 59.6576L7.14262 61.6532L6.46695 62.046C3.49715 63.9002 1.36015 66.9642 0.731624 70.5311L0.543064 100.983V102.319" fill="url(#paint0_linear_17_12)"/>
<defs>
<linearGradient id="paint0_linear_17_12" x1="0.527344" y1="57.9763" x2="114.213" y2="57.9763" gradientUnits="userSpaceOnUse">
<stop offset="0.12" stop-color="#0CC2AC"/>
<stop offset="1" stop-color="#0075C7"/>
</linearGradient>
</defs>
</svg>
